<svg width="232" height="252" viewBox="0 0 232 252" fill="none" xmlns="http://www.w3.org/2000/svg">
<g id="dots" opacity="0.9">
<path id="Vector" d="M68.9448 189.616C75.5514 189.616 80.9071 184.263 80.9071 177.659C80.9071 171.055 75.5514 165.701 68.9448 165.701C62.3381 165.701 56.9824 171.055 56.9824 177.659C56.9824 184.263 62.3381 189.616 68.9448 189.616Z" fill="white"/>
<path id="Vector_2" d="M104.054 210.686C110.423 210.686 115.586 205.525 115.586 199.159C115.586 192.792 110.423 187.631 104.054 187.631C97.6851 187.631 92.522 192.792 92.522 199.159C92.522 205.525 97.6851 210.686 104.054 210.686Z" fill="white"/>
<path id="Vector_3" d="M143.747 213.614C149.878 213.614 154.849 208.645 154.849 202.516C154.849 196.387 149.878 191.419 143.747 191.419C137.615 191.419 132.645 196.387 132.645 202.516C132.645 208.645 137.615 213.614 143.747 213.614Z" fill="white"/>
<path id="Vector_4" d="M181.321 198.398C187.215 198.398 191.993 193.622 191.993 187.731C191.993 181.839 187.215 177.063 181.321 177.063C175.428 177.063 170.65 181.839 170.65 187.731C170.65 193.622 175.428 198.398 181.321 198.398Z" fill="white"/>
<path id="Vector_5" d="M199.141 156.621C199.141 150.965 203.724 146.384 209.382 146.384C215.041 146.384 219.624 150.965 219.624 156.621C219.624 162.278 215.041 166.859 209.382 166.859C203.724 166.859 199.141 162.278 199.141 156.621Z" fill="white"/>
<path id="Vector_6" d="M211.699 118.268C211.699 112.843 216.1 108.461 221.51 108.461C226.921 108.461 231.322 112.86 231.322 118.268C231.322 123.676 226.921 128.076 221.51 128.076C216.1 128.076 211.699 123.676 211.699 118.268Z" fill="white"/>
<path id="Vector_7" d="M217.275 87.9858C222.456 87.9858 226.656 83.7874 226.656 78.6084C226.656 73.4294 222.456 69.231 217.275 69.231C212.093 69.231 207.893 73.4294 207.893 78.6084C207.893 83.7874 212.093 87.9858 217.275 87.9858Z" fill="white"/>
<path id="Vector_8" d="M196.709 52.0142C201.652 52.0142 205.66 48.0083 205.66 43.0668C205.66 38.1252 201.652 34.1193 196.709 34.1193C191.765 34.1193 187.758 38.1252 187.758 43.0668C187.758 48.0083 191.765 52.0142 196.709 52.0142Z" fill="white"/>
<path id="Vector_9" d="M154.601 18.2422C154.601 13.5286 158.423 9.72475 163.121 9.72475C167.82 9.72475 171.642 13.5452 171.642 18.2422C171.642 22.9392 167.82 26.7596 163.121 26.7596C158.423 26.7596 154.601 22.9392 154.601 18.2422Z" fill="white"/>
<path id="Vector_10" d="M116.182 8.08742C116.182 3.62197 119.805 0 124.273 0C128.74 0 132.363 3.62197 132.363 8.08742C132.363 12.5529 128.74 16.1748 124.273 16.1748C119.805 16.1748 116.182 12.5529 116.182 8.08742Z" fill="white"/>
<path id="Vector_11" d="M76.9197 12.6686C76.9197 8.43474 80.3446 5.01123 84.5802 5.01123C88.8158 5.01123 92.2407 8.43474 92.2407 12.6686C92.2407 16.9025 88.8158 20.3261 84.5802 20.3261C80.3446 20.3261 76.9197 16.9025 76.9197 12.6686Z" fill="white"/>
<path id="Vector_12" d="M41.2312 31.9527C41.2312 27.9504 44.4741 24.7253 48.4616 24.7253C52.449 24.7253 55.6919 27.9669 55.6919 31.9527C55.6919 35.9386 52.449 39.1802 48.4616 39.1802C44.4741 39.1802 41.2312 35.9386 41.2312 31.9527Z" fill="white"/>
<path id="Vector_13" d="M14.3284 63.9717C14.3284 60.2174 17.3727 57.1743 21.1285 57.1743C24.8844 57.1743 27.9287 60.2174 27.9287 63.9717C27.9287 67.7259 24.8844 70.7691 21.1285 70.7691C17.3727 70.7691 14.3284 67.7259 14.3284 63.9717Z" fill="white"/>
<path id="Vector_14" d="M0.529541 101.845C0.529541 98.3225 3.3919 95.4613 6.91608 95.4613C10.4403 95.4613 13.3026 98.3225 13.3026 101.845C13.3026 105.368 10.4403 108.229 6.91608 108.229C3.3919 108.229 0.529541 105.368 0.529541 101.845Z" fill="white"/>
<path id="Vector_15" d="M0 141.753C0 138.462 2.66381 135.799 5.95635 135.799C9.24889 135.799 11.9127 138.462 11.9127 141.753C11.9127 145.044 9.24889 147.707 5.95635 147.707C2.66381 147.707 0 145.044 0 141.753Z" fill="white"/>
<path id="Vector_16" d="M12.7234 180.123C12.7234 177.08 15.1887 174.599 18.2496 174.599C21.3105 174.599 23.7757 177.063 23.7757 180.123C23.7757 183.183 21.3105 185.647 18.2496 185.647C15.1887 185.647 12.7234 183.183 12.7234 180.123Z" fill="white"/>
<path id="Vector_17" d="M43.7627 218.493C46.5772 218.493 48.8587 216.212 48.8587 213.399C48.8587 210.585 46.5772 208.305 43.7627 208.305C40.9483 208.305 38.6667 210.585 38.6667 213.399C38.6667 216.212 40.9483 218.493 43.7627 218.493Z" fill="white"/>
<path id="Vector_18" d="M78.2598 241.217C80.8367 241.217 82.9256 239.129 82.9256 236.553C82.9256 233.977 80.8367 231.889 78.2598 231.889C75.6829 231.889 73.594 233.977 73.594 236.553C73.594 239.129 75.6829 241.217 78.2598 241.217Z" fill="white"/>
<path id="Vector_19" d="M116.943 252C119.282 252 121.179 250.104 121.179 247.766C121.179 245.428 119.282 243.532 116.943 243.532C114.604 243.532 112.708 245.428 112.708 247.766C112.708 250.104 114.604 252 116.943 252Z" fill="white"/>
<path id="Vector_20" d="M153.111 247.038C153.111 244.938 154.815 243.235 156.917 243.235C159.018 243.235 160.722 244.938 160.722 247.038C160.722 249.139 159.018 250.842 156.917 250.842C154.815 250.842 153.111 249.139 153.111 247.038Z" fill="white"/>
<path id="Vector_21" d="M191.861 234.386C191.861 232.517 193.366 231.012 195.236 231.012C197.106 231.012 198.611 232.517 198.611 234.386C198.611 236.255 197.106 237.76 195.236 237.76C193.366 237.76 191.861 236.255 191.861 234.386Z" fill="white"/>
<path id="Vector_22" d="M229.055 212.721C230.681 212.721 232 211.403 232 209.777C232 208.151 230.681 206.833 229.055 206.833C227.428 206.833 226.11 208.151 226.11 209.777C226.11 211.403 227.428 212.721 229.055 212.721Z" fill="white"/>
</g>
</svg>
