<svg width="234" height="233" viewBox="0 0 234 233" fill="none" xmlns="http://www.w3.org/2000/svg">
<g id="double_esphere">
<path id="Vector" d="M184.294 183.252C184.64 183.307 184.986 183.361 185.313 183.398C185.587 183.434 185.86 183.452 186.151 183.489C186.096 183.489 186.042 183.489 185.969 183.47C185.441 183.398 184.876 183.325 184.276 183.252H184.294Z" fill="white"/>
<path id="Vector_2" d="M203.867 181.833C203.12 182.051 202.356 182.251 201.591 182.415C202.192 182.269 202.938 182.069 203.867 181.833Z" fill="white"/>
<path id="Vector_3" d="M186.06 181.942C185.368 181.76 184.676 181.542 183.984 181.305C184.057 181.705 184.112 182.088 184.166 182.47C185.568 182.852 186.97 183.143 188.409 183.343C190.903 183.671 193.434 183.707 195.928 183.434L196.711 183.343C198.295 183.143 199.005 183.034 200.189 182.761C200.589 182.67 201.026 182.561 201.573 182.433C199.461 182.888 197.294 183.125 195.127 183.143C192.087 183.179 189.028 182.779 186.042 181.96L186.06 181.942Z" fill="white"/>
<path id="Vector_4" d="M203.867 181.833C203.867 181.833 203.885 181.833 203.903 181.833L204.14 181.76C204.14 181.76 204.067 181.778 204.049 181.796C203.994 181.815 203.921 181.833 203.867 181.851V181.833Z" fill="white"/>
<path id="Vector_5" d="M183.147 176.811C183.292 177.484 183.438 178.175 183.566 178.867C192.414 182.688 204.195 183.743 216.521 175.664C216.521 175.664 216.521 175.664 216.539 175.664C217.468 174.991 217.959 174.627 218.615 174.081C219.27 173.517 220.108 172.753 221.728 171.243C222.183 170.788 222.675 170.224 223.167 169.678C223.148 169.696 223.112 169.732 223.094 169.751C213.681 179.758 197.913 183.907 183.11 176.847L183.147 176.811Z" fill="white"/>
<path id="Vector_6" d="M224.478 168.186C224.059 168.677 223.64 169.168 223.185 169.641C223.64 169.132 224.077 168.622 224.478 168.186Z" fill="white"/>
<path id="Vector_7" d="M230.668 156.595C229.922 158.105 229.029 159.579 228.01 160.998C226.99 162.418 225.843 163.764 224.569 165.056C221.255 168.386 217.358 170.915 213.153 172.644C208.947 174.372 204.449 175.282 199.916 175.373C195.382 175.464 190.812 174.755 186.479 173.208C184.822 172.626 183.183 171.898 181.617 171.079C181.617 171.115 181.636 171.152 181.654 171.188C181.708 171.352 181.745 171.516 181.799 171.679C182.018 172.389 182.218 173.062 182.418 173.736C183.602 174.336 184.804 174.864 186.024 175.337C190.339 176.974 194.891 177.775 199.406 177.757C203.921 177.739 208.4 176.883 212.588 175.209C216.776 173.535 220.654 171.024 223.986 167.694C224.86 166.821 225.679 165.911 226.426 164.965C227.172 164.019 227.864 163.054 228.501 162.054C229.139 161.053 229.703 160.034 230.213 158.979C230.559 158.251 230.887 157.523 231.178 156.777C231.305 156.449 231.433 156.104 231.56 155.776C231.597 155.649 231.651 155.503 231.688 155.376C232.052 154.266 232.434 152.919 232.744 151.846C232.744 151.828 232.744 151.809 232.762 151.791C232.762 151.755 232.762 151.718 232.78 151.682C232.926 151.027 233.09 150.281 233.235 149.535C233.053 150.354 232.835 151.154 232.58 151.955C232.088 153.538 231.469 155.103 230.704 156.613L230.668 156.595Z" fill="white"/>
<path id="Vector_8" d="M233.181 149.517C233.326 148.843 233.454 148.152 233.563 147.479C233.581 147.351 233.599 147.224 233.618 147.097C233.618 147.133 233.618 147.188 233.599 147.224C233.472 147.915 233.326 148.716 233.181 149.517Z" fill="white"/>
<path id="Vector_9" d="M178.813 163.528C179.269 164.583 179.724 165.748 180.124 166.821C202.356 178.594 234.856 165.493 233.982 136.416L233.945 135.961C233.818 134.614 233.581 132.958 233.363 131.448C233.29 130.957 233.217 130.484 233.163 130.047C233.217 130.374 233.254 130.684 233.29 131.011C236.804 158.906 204.267 177.193 178.813 163.546V163.528Z" fill="white"/>
<path id="Vector_10" d="M229.831 131.484C229.157 134.105 228.083 136.707 226.59 139.218C225.115 141.747 223.221 144.185 220.945 146.478C217.613 149.826 213.735 152.519 209.584 154.557C205.433 156.577 200.99 157.923 196.547 158.56C192.105 159.179 187.644 159.106 183.438 158.251C180.416 157.65 177.521 156.631 174.844 155.23C175.427 156.358 176.046 157.541 176.519 158.542C176.574 158.651 176.61 158.76 176.665 158.869C179.214 160.234 181.945 161.271 184.785 161.945C189.046 162.964 193.561 163.2 198.059 162.709C202.556 162.217 207.017 160.98 211.204 159.033C215.392 157.086 219.27 154.43 222.602 151.082C224.769 148.916 226.553 146.605 227.973 144.185C229.394 141.783 230.468 139.272 231.16 136.761C231.852 134.232 232.198 131.685 232.179 129.174C232.161 126.826 231.833 124.515 231.178 122.277C231.123 122.113 231.087 121.95 231.032 121.786C230.905 121.404 230.759 120.967 230.613 120.549C230.231 119.457 229.794 118.274 229.412 117.219C230.122 119.311 230.541 121.495 230.632 123.715C230.759 126.28 230.468 128.901 229.794 131.503L229.831 131.484Z" fill="white"/>
<path id="Vector_11" d="M225.461 111.032C225.697 113.489 225.461 116.091 224.787 118.729C224.113 121.367 222.966 124.06 221.382 126.717C219.798 129.374 217.759 131.994 215.265 134.487C211.933 137.835 208.091 140.637 204.031 142.857C199.952 145.077 195.655 146.696 191.358 147.661C187.08 148.625 182.801 148.953 178.813 148.552C175.554 148.225 172.495 147.442 169.728 146.132C170.001 146.587 170.274 147.024 170.511 147.442C170.966 148.207 171.494 149.098 172.022 149.99C174.771 151.354 177.794 152.246 180.962 152.701C185.059 153.283 189.41 153.138 193.78 152.319C198.15 151.5 202.501 149.99 206.616 147.861C210.731 145.732 214.573 142.966 217.923 139.618C220.344 137.198 222.311 134.632 223.858 132.03C225.406 129.41 226.499 126.735 227.172 124.097C227.846 121.44 228.083 118.82 227.882 116.291C227.718 114.125 227.209 112.033 226.389 110.05C226.262 109.722 226.116 109.413 225.971 109.103C225.315 107.739 224.387 106.01 223.658 104.573C223.731 104.718 223.786 104.845 223.858 104.991C224.732 106.865 225.26 108.885 225.461 110.996V111.032Z" fill="white"/>
<path id="Vector_12" d="M213.79 113.416C212.097 116.072 209.93 118.747 207.308 121.367C203.958 124.716 200.189 127.645 196.256 130.083C192.305 132.522 188.172 134.45 184.112 135.797C180.052 137.143 176.046 137.908 172.35 138.017C169.054 138.108 166.014 137.671 163.374 136.67C164.32 138.017 165.267 139.4 166.141 140.692C168.854 141.838 171.949 142.438 175.245 142.529C179.068 142.639 183.201 142.056 187.353 140.874C191.522 139.691 195.728 137.889 199.734 135.542C203.739 133.195 207.526 130.32 210.877 126.972C213.444 124.406 215.556 121.75 217.195 119.075C218.851 116.418 220.035 113.743 220.763 111.178C221.492 108.594 221.746 106.101 221.546 103.772C221.346 101.443 220.654 99.2957 219.507 97.3851L216.83 93.1454L216.703 92.9453L216.43 92.545C216.43 92.545 216.521 92.6723 216.557 92.7451C217.613 94.4373 218.232 96.3843 218.396 98.4951C218.578 100.697 218.269 103.117 217.504 105.628C216.739 108.139 215.501 110.777 213.79 113.416Z" fill="white"/>
<path id="Vector_13" d="M204.231 99.4958C202.41 102.08 200.134 104.736 197.458 107.429C194.108 110.777 190.43 113.834 186.624 116.491C182.837 119.148 178.923 121.404 175.154 123.151C171.367 124.897 167.707 126.135 164.375 126.772C161.261 127.372 158.457 127.409 156.127 126.863C156.254 127.026 156.382 127.19 156.509 127.336C157.365 128.391 158.385 129.738 159.313 130.975C161.789 131.721 164.703 131.885 167.889 131.521C171.367 131.102 175.19 130.065 179.086 128.482C183.001 126.899 186.988 124.788 190.848 122.223C194.708 119.657 198.423 116.655 201.773 113.307C204.431 110.65 206.652 107.975 208.419 105.355C210.185 102.735 211.514 100.187 212.37 97.8036C213.225 95.4017 213.626 93.1636 213.535 91.1438C213.462 89.3424 213.007 87.723 212.169 86.3583C212.06 86.1945 211.969 86.0308 211.86 85.867L210.767 84.3567L209.784 82.992L208.346 81.0815C209.311 82.3552 209.766 83.9746 209.766 85.8306C209.766 87.7048 209.293 89.8337 208.346 92.1264C207.417 94.4373 206.015 96.912 204.194 99.4776L204.231 99.4958Z" fill="white"/>
<path id="Vector_14" d="M197.676 78.4794C196.529 80.5174 194.945 82.8101 192.979 85.2665C191.012 87.723 188.645 90.3432 185.914 93.0726C182.564 96.4207 178.977 99.605 175.372 102.498C171.767 105.391 168.126 107.975 164.666 110.14C161.207 112.306 157.948 114.034 155.053 115.217C152.249 116.364 149.827 116.964 147.952 116.946C148.061 117.073 148.17 117.201 148.28 117.31C149.245 118.42 150.41 119.803 151.466 121.076C153.542 121.331 156.145 120.967 159.095 120.057C162.172 119.111 165.613 117.583 169.218 115.599C172.823 113.616 176.574 111.159 180.252 108.375C183.948 105.591 187.571 102.462 190.921 99.1137C193.634 96.4025 195.965 93.7459 197.858 91.2348C199.77 88.7238 201.263 86.3583 202.319 84.193C203.375 82.0459 203.994 80.0989 204.14 78.443C204.286 76.8964 204.012 75.6045 203.321 74.6219C203.284 74.5673 203.23 74.4945 203.175 74.4399L202.483 73.5847L201.937 72.9114L199.26 69.709C199.916 70.4914 200.098 71.6741 199.825 73.148C199.552 74.6401 198.823 76.4233 197.676 78.4794Z" fill="white"/>
<path id="Vector_15" d="M140.833 108.994C141.506 109.704 142.18 110.45 142.836 111.159C144.42 110.832 146.568 109.868 149.117 108.412C151.721 106.92 154.743 104.9 157.984 102.48C161.225 100.078 164.703 97.2941 168.199 94.2735C171.694 91.253 175.208 87.9959 178.577 84.6479C181.326 81.9003 183.748 79.3164 185.805 76.9327C187.862 74.5491 189.556 72.4019 190.848 70.5277C192.141 68.6536 193.033 67.0523 193.489 65.7968C193.944 64.5413 193.962 63.6315 193.525 63.1402L193.343 62.94L190.284 59.6101L189.264 58.5002C189.264 58.5002 189.283 58.5366 189.301 58.5548C189.519 58.8823 189.319 59.5737 188.755 60.6109C188.154 61.7027 187.116 63.1402 185.714 64.9052C184.312 66.6702 182.528 68.7263 180.397 71.0372C178.267 73.3481 175.809 75.9138 173.06 78.6614C169.71 82.0094 166.232 85.3211 162.827 88.4326C159.423 91.5441 156.091 94.4737 152.995 97.0575C149.918 99.6414 147.078 101.861 144.675 103.59C142.308 105.282 140.396 106.501 139.048 107.084C139.158 107.193 139.267 107.32 139.376 107.429C139.54 107.593 139.704 107.775 139.868 107.957C139.868 107.957 139.85 107.921 139.831 107.902L140.851 109.012L140.833 108.994Z" fill="white"/>
<path id="Vector_16" d="M133.513 101.37C141.47 93.8551 180.634 54.9702 183.037 52.077L182.928 51.9678C181.708 50.7487 180.343 49.4022 179.25 48.3286C179.032 48.1285 178.813 47.9101 178.595 47.6918L178.467 47.5644C178.285 47.4188 177.666 47.71 176.701 48.3832C175.718 49.0747 174.353 50.1846 172.659 51.6585C170.966 53.1324 168.963 54.9702 166.687 57.1173C164.411 59.2644 161.862 61.7573 159.113 64.5049C155.763 67.8529 152.413 71.292 149.226 74.6401C146.04 77.9881 143.036 81.227 140.341 84.2112C137.646 87.1953 135.298 89.9065 133.422 92.1628C131.583 94.4009 130.218 96.1841 129.471 97.3851C129.599 97.4943 129.726 97.6216 129.835 97.7308C130.928 98.8044 132.293 100.151 133.513 101.37Z" fill="white"/>
<path id="Vector_17" d="M152.194 43.9252C149.773 45.9267 147.151 48.3104 144.401 51.0398C141.051 54.3879 137.829 57.9361 134.879 61.5025C131.929 65.069 129.253 68.6172 126.995 72.0016C124.737 75.3679 122.88 78.534 121.569 81.318C120.295 84.0292 119.548 86.3401 119.421 88.1051C119.548 88.2143 119.694 88.3417 119.803 88.4326C120.969 89.4334 122.407 90.7253 123.663 91.9081C124.046 90.3796 125.047 88.2689 126.558 85.7578C128.106 83.1922 130.163 80.208 132.603 77.0055C135.043 73.803 137.865 70.364 140.906 66.8886C143.946 63.4131 147.224 59.9195 150.592 56.5714C153.341 53.8238 155.927 51.4037 158.294 49.3476C160.661 47.2914 162.809 45.581 164.666 44.2709C166.523 42.9608 168.089 42.051 169.327 41.5597C170.547 41.0684 171.421 41.032 171.895 41.4505L167.98 37.9751L167.051 37.1563C167.051 37.1563 166.942 37.0653 166.888 37.0289C166.214 36.5558 165.194 36.483 163.902 36.8105C162.5 37.1563 160.788 37.9387 158.803 39.1396C156.819 40.3406 154.579 41.96 152.158 43.9616L152.194 43.9252Z" fill="white"/>
<path id="Vector_18" d="M122.407 90.7799C122.407 90.7799 122.462 90.7981 122.48 90.8163C122.462 90.8163 122.425 90.7981 122.407 90.7799Z" fill="white"/>
<path id="Vector_19" d="M110.608 80.6265C111.519 81.3726 112.484 82.155 113.376 82.9011C113.139 80.8267 113.54 78.2429 114.468 75.3133C115.452 72.2564 116.999 68.8355 119.002 65.2509C121.005 61.6663 123.481 57.9361 126.285 54.2605C129.089 50.5849 132.239 46.9639 135.589 43.6158C138.302 40.9046 140.96 38.5937 143.473 36.6832C145.985 34.7726 148.352 33.2805 150.501 32.2251C152.649 31.1698 154.579 30.5511 156.218 30.3873C157.784 30.2418 159.077 30.5147 160.042 31.2244C160.078 31.2608 160.133 31.2971 160.169 31.3153L159.841 31.0424L155.508 27.6034L155.144 27.3122C155.144 27.3122 154.98 27.203 154.907 27.1485C153.76 26.3478 152.303 25.9839 150.61 26.0203C148.808 26.0567 146.732 26.5662 144.474 27.5306C142.216 28.495 139.758 29.9142 137.191 31.752C134.624 33.5898 131.966 35.8825 129.253 38.5574C125.903 41.9054 122.807 45.5628 120.113 49.3112C117.418 53.0596 115.087 56.9171 113.267 60.6473C111.446 64.3775 110.099 67.9621 109.37 71.2192C108.678 74.2943 108.533 77.0419 108.988 79.2982C109.097 79.3892 109.225 79.4802 109.316 79.5712C109.662 79.8441 110.026 80.1535 110.408 80.4628L110.736 80.7357C110.736 80.7357 110.645 80.6629 110.608 80.6447V80.6265Z" fill="white"/>
<path id="Vector_20" d="M129.908 17.6501C127.45 18.4508 124.865 19.7063 122.261 21.3985C119.658 23.0907 117.018 25.2379 114.414 27.8035C111.064 31.1334 108.096 34.9 105.638 38.8121C103.18 42.7424 101.195 46.8365 99.7933 50.8579C98.3914 54.8792 97.572 58.8459 97.39 62.5033C97.2443 65.7786 97.6085 68.7991 98.5734 71.4012C99.3564 71.9652 100.121 72.5111 100.777 73.0206C101.414 73.4937 102.124 74.0214 102.834 74.5673C102.051 72.0744 101.887 69.1449 102.251 65.906C102.652 62.4123 103.69 58.5912 105.256 54.679C106.821 50.7669 108.952 46.7638 111.501 42.9062C114.068 39.0486 117.072 35.3367 120.422 31.9886C123.062 29.3684 125.721 27.1667 128.324 25.4016C130.928 23.6548 133.459 22.3265 135.844 21.4713C138.229 20.6161 140.487 20.2158 142.508 20.2704C144.529 20.3431 146.331 20.8708 147.824 21.8898L143.837 19.1422L142.654 18.3234C142.508 18.2324 142.344 18.1414 142.198 18.0504C140.614 17.177 138.812 16.6857 136.845 16.5766C134.679 16.4674 132.33 16.8131 129.872 17.5955L129.908 17.6501Z" fill="white"/>
<path id="Vector_21" d="M90.9263 58.3546C90.7988 54.5153 91.3451 50.3666 92.5103 46.1997C93.6756 42.0328 95.4599 37.8113 97.8087 33.8082C100.139 29.8051 103.016 26.0021 106.384 22.6722C108.897 20.1612 111.519 18.105 114.123 16.4856C116.744 14.8661 119.366 13.6834 121.915 12.9374C124.464 12.2095 126.941 11.9184 129.253 12.0821C131.547 12.2459 133.695 12.8464 135.625 13.9017C135.625 13.9017 135.662 13.9017 135.68 13.9199L135.571 13.8654L131.092 11.2815L130.782 11.0996C130.782 11.0996 130.691 11.0632 130.655 11.045C128.616 10.026 126.376 9.42553 124.009 9.26176C121.588 9.0798 119.057 9.35274 116.453 10.0442C113.868 10.7538 111.228 11.882 108.606 13.465C106.002 15.0481 103.417 17.0679 100.94 19.5061C97.5902 22.836 94.7498 26.6572 92.5103 30.7149C90.2708 34.7726 88.5958 39.0486 87.5943 43.3247C86.5747 47.5826 86.2106 51.8222 86.5565 55.789C86.8296 59.1007 87.6126 62.2122 88.9235 64.9962C90.2344 65.815 91.5636 66.6884 92.8381 67.5254C92.8381 67.5254 92.8745 67.5436 92.8927 67.5436C91.7092 64.8142 91.072 61.7027 90.9627 58.3728L90.9263 58.3546Z" fill="white"/>
<path id="Vector_22" d="M81.6224 60.6655C82.296 61.0294 82.9515 61.3934 83.5706 61.7573C82.1868 58.9915 81.2582 55.9528 80.7848 52.7503C80.184 48.638 80.3114 44.2709 81.1126 39.9039C81.9137 35.5368 83.4249 31.1698 85.5552 27.0575C87.6854 22.9452 90.453 19.1058 93.8031 15.776C96.2065 13.3923 98.7373 11.4453 101.323 9.91684C103.908 8.38837 106.566 7.29661 109.207 6.62336C111.847 5.95011 114.45 5.69536 116.981 5.87732C119.457 6.05928 121.824 6.64155 124.046 7.64234C124.082 7.66053 124.137 7.67873 124.173 7.69692L123.991 7.62414L120.441 6.02289L119.476 5.62258C119.202 5.5134 118.929 5.40423 118.656 5.31325C116.562 4.54901 114.341 4.09411 112.083 3.94854C109.516 3.80298 106.876 4.05772 104.254 4.71278C101.614 5.38603 98.9922 6.45959 96.425 7.95167C93.8577 9.44374 91.3815 11.3361 89.051 13.647C85.7008 16.9769 82.9697 20.8344 80.9305 24.9831C78.8731 29.1318 77.4893 33.5353 76.8156 37.9751C76.1419 42.3967 76.1784 46.8366 76.9613 51.0216C77.5439 54.115 78.5271 57.0627 79.9473 59.7557C80.3661 59.9741 80.7848 60.2106 81.2036 60.4472C81.24 60.4654 81.2946 60.4836 81.331 60.5018L81.6406 60.6837L81.6224 60.6655Z" fill="white"/>
<path id="Vector_23" d="M72.027 55.8618C72.8463 56.2257 73.7385 56.626 74.5396 57.0263L74.7217 57.0991C74.7217 57.0991 74.6307 57.0627 74.5942 57.0445C74.7763 57.1355 74.9402 57.2083 75.104 57.2811C62.1586 33.1532 82.296 -4.60358 112.065 2.91137C110.681 2.49287 108.879 2.01977 107.386 1.63765C107.222 1.60126 107.058 1.54667 106.894 1.51028C106.767 1.47389 106.621 1.4375 106.475 1.4193C105.765 1.27373 104.928 1.12816 104.272 1.03718C79.1825 -2.2199 57.716 29.3866 72.027 55.8618Z" fill="white"/>
<path id="Vector_24" d="M70.7708 9.33456C67.4206 12.6462 64.8716 16.5402 63.1236 20.7435C61.3757 24.9467 60.4107 29.4412 60.2651 33.9902C60.1194 38.521 60.7749 43.1064 62.2497 47.437C62.887 49.3294 63.7063 51.1854 64.6531 52.9686C64.999 53.096 65.345 53.2052 65.6727 53.3325C66.2917 53.5691 67.0018 53.842 67.7301 54.115C55.8225 31.7339 69.0957 -0.92799 98.3003 0.145575C98.3185 0.145575 98.3368 0.145575 98.355 0.145575H98.1547L96.6617 0.0363992H96.607C96.607 0.0363992 96.5888 0.0363992 96.5706 0.0363992C95.0048 -0.0181889 92.9474 0.0182032 91.3997 0.0363992C89.5426 0.127379 87.7036 0.40032 85.8647 0.837024C84.0439 1.27373 82.2414 1.8742 80.4935 2.65663C78.7456 3.43905 77.0523 4.36705 75.4136 5.4952C73.7932 6.60516 72.2273 7.89708 70.7526 9.35276L70.7708 9.33456Z" fill="white"/>
<path id="Vector_25" d="M54.8028 35.3549C54.821 39.8493 55.6768 44.3619 57.37 48.638C57.716 49.4932 58.0983 50.3302 58.4989 51.1672C59.3364 51.3856 60.2104 51.6039 61.0844 51.8587C51.1977 32.6983 59.0997 9.48013 80.1293 2.00157C80.1657 2.00157 80.1839 1.98338 80.2203 1.96518C80.1839 1.96518 80.1293 2.00157 80.0929 2.01977C78.3632 2.62024 76.1237 3.49364 74.4668 4.20329C73.5382 4.63999 72.3547 5.31325 71.4262 5.80454C71.4079 5.80454 71.3715 5.82274 71.3533 5.84093C71.3533 5.84093 71.3169 5.85913 71.2987 5.87732C70.7343 6.20485 70.1698 6.56877 69.6054 6.93269C69.041 7.31481 68.4766 7.71512 67.9121 8.13363C67.3659 8.55214 66.8197 8.98884 66.2917 9.46194C65.7637 9.91684 65.2356 10.4081 64.744 10.9176C61.4121 14.2293 58.8995 18.105 57.2426 22.2537C55.5857 26.4206 54.7664 30.8787 54.7846 35.3731L54.8028 35.3549Z" fill="white"/>
<path id="Vector_26" d="M53.7286 50.1482C54.3659 50.2574 55.0031 50.3666 55.604 50.4939C50.5423 39.085 51.9079 26.3114 59.9737 15.5394L58.3897 17.6137C58.2987 17.7411 58.2258 17.8503 58.153 17.9595C57.5339 18.8329 57.188 19.3606 56.7146 20.143C56.2958 20.8708 55.7678 21.817 54.8757 23.5093C54.8757 23.5093 54.8757 23.5456 54.8575 23.5638L54.8028 23.673L54.4569 24.4009C53.0003 27.5488 52.0717 30.8968 51.6894 34.2995C51.307 37.7021 51.4527 41.1776 52.1081 44.5802C52.4723 46.4726 53.0367 48.3286 53.7286 50.1482Z" fill="white"/>
<path id="Vector_27" d="M50.9793 49.7661C50.9793 49.7661 51.0339 49.7661 51.0703 49.7661C51.307 49.8025 51.5802 49.8389 51.8168 49.8571C51.307 48.0739 50.9429 46.2543 50.7426 44.4347C50.4877 42.0874 50.5059 39.7219 50.779 37.3928C50.8154 37.1563 50.8336 36.9197 50.8701 36.6832L50.7972 37.229C50.6516 38.4482 50.5605 39.0305 50.5241 39.9766C50.4877 40.7227 50.4695 41.7053 50.4513 43.3975C50.4513 43.7068 50.4513 44.0344 50.4513 44.3983C50.4513 45.2353 50.5059 46.0359 50.5787 46.8365C50.6698 47.8555 50.8336 48.8199 51.0157 49.7661H50.9793Z" fill="white"/>
<path id="Vector_28" d="M14.2368 126.098C14.2368 126.098 14.2368 126.062 14.2185 126.026C14.1457 125.825 14.0729 125.625 14.0001 125.425C14.0001 125.389 13.9819 125.371 13.9636 125.334C13.9636 125.316 13.9636 125.28 13.9454 125.261C13.8726 125.043 13.7998 124.825 13.7269 124.606C13.7269 124.606 13.7269 124.588 13.7269 124.57C13.6541 124.37 13.5995 124.17 13.5267 123.969C13.5267 123.933 13.5085 123.915 13.4903 123.879C13.4903 123.86 13.4903 123.824 13.472 123.806C13.3992 123.587 13.3446 123.369 13.29 123.169C12.0337 122.204 10.8866 121.167 9.84877 120.094C8.81095 119.002 7.88237 117.856 7.06304 116.655C6.24371 115.454 5.53362 114.216 4.91457 112.924C4.38656 111.815 3.94958 110.686 3.60364 109.54C4.05882 111.014 4.65967 112.779 5.11485 114.144C5.2241 114.435 5.31513 114.708 5.42438 114.981C7.80955 121.022 11.8152 124.206 14.255 126.135L14.2368 126.098Z" fill="white"/>
<path id="Vector_29" d="M17.769 134.014C17.769 134.014 17.7508 133.959 17.7326 133.941C17.6052 133.686 17.4777 133.431 17.3503 133.177C17.3503 133.177 17.3503 133.158 17.3503 133.14C17.3503 133.104 17.3139 133.086 17.3139 133.049C17.2046 132.831 17.0954 132.613 16.9861 132.394C16.9861 132.358 16.9497 132.321 16.9315 132.285C16.9315 132.267 16.9133 132.23 16.8951 132.212C16.7676 131.958 16.6584 131.721 16.5309 131.466C16.5309 131.466 16.5309 131.448 16.5309 131.43C16.5309 131.393 16.4945 131.375 16.4945 131.339C16.3853 131.12 16.2942 130.92 16.2032 130.702C16.2032 130.666 16.1668 130.629 16.1486 130.593C11.1051 127.045 9.66675 124.333 8.17374 121.477C8.17374 121.458 8.15554 121.422 8.13733 121.404C8.811 122.878 9.7942 124.806 10.5043 126.262C10.7228 126.681 10.9413 127.081 11.1962 127.481C11.3965 127.809 11.6149 128.155 11.8516 128.482C12.3432 129.192 12.9077 129.883 13.5085 130.52C14.1094 131.175 14.783 131.794 15.4931 132.376C16.2032 132.958 16.9861 133.504 17.8055 134.032L17.769 134.014Z" fill="white"/>
<path id="Vector_30" d="M22.6304 142.402C22.5576 142.293 22.4847 142.165 22.4119 142.056C22.3573 141.965 22.3027 141.893 22.248 141.802C22.1206 141.583 21.9749 141.365 21.8475 141.146C21.7928 141.074 21.7382 140.983 21.7018 140.91L21.6836 140.874C21.6654 140.837 21.6472 140.801 21.6108 140.764C21.4651 140.528 21.3195 140.291 21.1738 140.055C21.1556 140.018 21.1192 139.982 21.101 139.946C21.101 139.927 21.0828 139.891 21.0645 139.873C20.9007 139.6 20.7368 139.327 20.5912 139.072C20.5912 139.072 20.5729 139.036 20.5547 139.018C19.8447 138.635 19.1892 138.217 18.5701 137.762C17.9511 137.307 17.3867 136.834 16.8586 136.325C16.3306 135.815 15.839 135.287 15.402 134.723C15.0743 134.323 14.783 133.886 14.5099 133.468L16.9133 137.398L17.1135 137.726C17.1135 137.726 17.1864 137.853 17.241 137.908C17.5323 138.363 17.86 138.781 18.206 139.2C18.6066 139.673 19.0435 140.109 19.5169 140.528C19.9903 140.946 20.5183 141.347 21.0645 141.711C21.6108 142.074 22.2116 142.42 22.8489 142.73C22.776 142.62 22.7032 142.511 22.6486 142.402H22.6304Z" fill="white"/>
<path id="Vector_31" d="M28.566 151.118C28.566 151.118 28.5296 151.063 28.5114 151.045C28.2747 150.718 28.038 150.39 27.8013 150.063C27.7831 150.026 27.7467 149.99 27.7285 149.953C27.6557 149.862 27.601 149.771 27.5282 149.68C27.3826 149.48 27.2551 149.28 27.1094 149.098C27.0366 148.989 26.9638 148.88 26.891 148.789C26.7999 148.661 26.7271 148.552 26.6361 148.425C26.5632 148.334 26.4904 148.225 26.4358 148.134C25.8895 147.915 25.3797 147.661 24.9063 147.388C24.433 147.115 23.9778 146.824 23.5772 146.496C23.1584 146.169 22.7943 145.841 22.4484 145.477C22.157 145.168 21.9021 144.859 21.6654 144.531C21.6108 144.458 21.5562 144.385 21.5198 144.313L21.7018 144.567L24.8881 149.007C25.143 149.353 25.4162 149.662 25.7257 149.953C26.0352 150.245 26.3629 150.536 26.7271 150.79C27.0912 151.045 27.4918 151.282 27.9106 151.5C28.3293 151.718 28.7845 151.9 29.2761 152.064C29.1123 151.846 28.9484 151.609 28.7845 151.391C28.7299 151.318 28.6753 151.227 28.6024 151.154L28.566 151.118Z" fill="white"/>
<path id="Vector_32" d="M35.8307 160.525C35.7579 160.434 35.6851 160.343 35.594 160.234C35.4302 160.034 35.2481 159.816 35.0842 159.597C34.9932 159.488 34.9204 159.397 34.8293 159.288C34.7201 159.161 34.6291 159.033 34.5198 158.906C34.4288 158.797 34.3559 158.687 34.2649 158.578C34.101 158.378 33.9372 158.178 33.7733 157.96C33.7005 157.869 33.6276 157.759 33.5548 157.668C33.5184 157.632 33.5002 157.596 33.4638 157.559C33.045 157.468 32.6627 157.359 32.2985 157.214C31.9344 157.068 31.6066 156.922 31.2971 156.74C30.9876 156.559 30.7145 156.358 30.4596 156.14C30.3321 156.031 30.2047 155.922 30.0954 155.794C29.9862 155.685 29.8769 155.558 29.7859 155.43L31.115 157.086L33.5002 160.052L33.5366 160.089C34.4652 161.144 35.3027 161.308 36.7047 161.581C36.4316 161.235 36.1403 160.907 35.8672 160.562C35.8489 160.525 35.8125 160.489 35.7943 160.471L35.8307 160.525Z" fill="white"/>
<path id="Vector_33" d="M44.8799 171.024C44.6796 170.806 44.4793 170.588 44.279 170.369C44.188 170.26 44.0969 170.169 44.0059 170.06C43.8967 169.933 43.7874 169.805 43.66 169.678C43.5507 169.569 43.4597 169.46 43.3504 169.35C43.1684 169.15 43.0045 168.95 42.8224 168.75C42.7314 168.659 42.6403 168.55 42.5493 168.459C42.5129 168.422 42.4765 168.386 42.4401 168.331C42.1487 167.986 41.8392 167.658 41.5479 167.312C41.2384 167.331 40.9653 167.331 40.7104 167.312C40.4555 167.294 40.2188 167.258 40.0185 167.185C39.8182 167.13 39.6179 167.039 39.4541 166.948C39.3266 166.876 39.2174 166.785 39.1263 166.694C39.0899 166.657 39.0535 166.621 39.0353 166.603L42.167 170.115L43.1501 171.188C43.2412 171.279 43.3322 171.352 43.4597 171.406C43.5871 171.461 43.7328 171.497 43.8967 171.516C44.0605 171.534 44.2608 171.516 44.4611 171.516C44.6614 171.516 44.8981 171.443 45.1712 171.388C45.1348 171.352 45.1165 171.334 45.0801 171.297C45.0073 171.206 44.9163 171.134 44.8434 171.043L44.8799 171.024Z" fill="white"/>
<path id="Vector_34" d="M53.7467 180.322C53.6375 180.213 53.5283 180.104 53.4008 179.977C53.2187 179.795 53.0367 179.613 52.8546 179.413C52.7453 179.304 52.6543 179.213 52.5451 179.103C52.5086 179.067 52.454 179.012 52.4176 178.976C52.0899 178.648 51.7621 178.321 51.4344 177.975C51.4162 177.957 51.398 177.939 51.3798 177.902C51.307 177.83 51.2341 177.757 51.1613 177.684C50.9246 177.448 50.6879 177.211 50.4694 176.956C50.2691 177.084 50.1053 177.193 49.9414 177.266C49.7957 177.357 49.6501 177.411 49.5408 177.466C49.4316 177.502 49.3406 177.539 49.2677 177.539C49.2131 177.539 49.1767 177.539 49.1585 177.539C49.1585 177.539 49.1221 177.539 49.1221 177.52L51.2523 179.704L53.5283 181.978C53.5283 181.978 53.5283 181.942 53.5647 181.906C53.6011 181.869 53.6557 181.796 53.7103 181.705C53.7832 181.614 53.8742 181.505 53.9834 181.396C54.0927 181.269 54.2201 181.123 54.384 180.959C54.293 180.868 54.2019 180.777 54.1109 180.686C53.9834 180.559 53.856 180.432 53.7467 180.322Z" fill="white"/>
<path id="Vector_35" d="M64.2707 192.077C64.1979 191.932 64.1433 191.768 64.1069 191.586C64.0704 191.404 64.0522 191.204 64.0704 190.967C64.0886 190.731 64.1069 190.494 64.1615 190.221C63.9794 190.057 63.7791 189.875 63.597 189.712C63.4878 189.621 63.3786 189.512 63.2693 189.421C63.2147 189.384 63.1783 189.33 63.1237 189.293C62.7777 188.984 62.4318 188.656 62.0858 188.347C62.0858 188.347 62.0494 188.311 62.0312 188.292C61.9584 188.238 61.9038 188.165 61.8309 188.11C61.576 187.874 61.3029 187.637 61.048 187.383C60.957 187.31 60.8841 187.219 60.7931 187.146C60.6657 187.019 60.5382 186.909 60.4108 186.782C60.2833 186.655 60.1558 186.546 60.0284 186.418C59.9374 186.655 59.8645 186.855 59.8099 187.037C59.7553 187.219 59.7189 187.383 59.7189 187.528C59.7189 187.674 59.7189 187.801 59.7371 187.892C59.7553 187.983 59.8099 188.056 59.8645 188.129L60.1559 188.402L60.8295 189.038L63.1601 191.167L64.5256 192.405C64.5256 192.405 64.4528 192.332 64.4164 192.296C64.3618 192.223 64.3071 192.15 64.2525 192.059L64.2707 192.077Z" fill="white"/>
<path id="Vector_36" d="M75.4682 201.685C75.2679 201.448 75.104 201.193 74.9584 200.902C74.8127 200.611 74.6671 200.302 74.5578 199.974C74.4486 199.647 74.3575 199.283 74.2847 198.882C73.9206 198.591 73.5746 198.3 73.2105 198.009C73.2105 198.009 73.174 197.991 73.174 197.973C73.1194 197.918 73.0648 197.882 72.992 197.827C72.7007 197.591 72.4275 197.354 72.1362 197.136C72.0452 197.063 71.9724 196.99 71.8813 196.917C71.7539 196.808 71.6264 196.699 71.499 196.59C71.3533 196.481 71.2259 196.353 71.0802 196.244C70.8981 196.098 70.7343 195.953 70.5522 195.807C70.4247 195.716 70.3155 195.607 70.2062 195.516C70.1516 195.462 70.0788 195.407 70.0242 195.371C70.0242 195.716 70.0788 196.026 70.1334 196.317C70.188 196.608 70.2791 196.863 70.3701 197.117C70.4611 197.354 70.5886 197.572 70.7161 197.773C70.8435 197.954 70.9892 198.1 71.1348 198.246C71.1348 198.246 71.1712 198.282 71.1894 198.282L71.7357 198.719L72.7553 199.574L76.0872 202.322C75.9416 202.212 75.8141 202.085 75.7049 201.958C75.6138 201.867 75.541 201.776 75.4682 201.685Z" fill="white"/>
<path id="Vector_37" d="M87.8493 211.256C87.8493 211.256 87.9949 211.365 88.0677 211.42C88.1224 211.456 88.1588 211.492 88.2134 211.529L87.5944 211.074C87.5944 211.074 87.7582 211.201 87.8493 211.256Z" fill="white"/>
<path id="Vector_38" d="M86.065 209.491C85.7555 209.09 85.4641 208.636 85.191 208.162C84.9179 207.689 84.6812 207.18 84.4809 206.634C84.3899 206.561 84.2806 206.488 84.1896 206.434C84.0075 206.306 83.8255 206.179 83.6434 206.052C83.5706 205.997 83.4977 205.961 83.4431 205.906C83.3521 205.833 83.261 205.779 83.17 205.706C82.9879 205.579 82.8059 205.451 82.6238 205.306C82.551 205.251 82.4781 205.196 82.3871 205.142C82.296 205.087 82.2232 205.015 82.1322 204.96C81.9501 204.833 81.768 204.687 81.586 204.56C81.4949 204.505 81.4221 204.432 81.331 204.378C81.2582 204.323 81.1854 204.268 81.0944 204.214C80.9123 204.068 80.7302 203.941 80.5481 203.795C80.4571 203.723 80.3661 203.65 80.275 203.595C80.4207 204.068 80.5845 204.505 80.7848 204.905C80.9669 205.306 81.1854 205.688 81.4221 206.052C81.6588 206.397 81.9137 206.725 82.1868 207.016C82.4599 207.307 82.7694 207.58 83.079 207.798L87.5944 211.092C87.4123 210.946 87.2302 210.783 87.0664 210.637C86.7022 210.291 86.3745 209.927 86.0468 209.527L86.065 209.491Z" fill="white"/>
<path id="Vector_39" d="M98.3367 218.17C97.7541 217.734 97.1897 217.242 96.6617 216.696C96.1337 216.15 95.6421 215.568 95.1687 214.931C94.7135 214.294 94.2765 213.603 93.8759 212.857C93.7849 212.802 93.6939 212.748 93.6028 212.693C93.439 212.584 93.2751 212.493 93.1112 212.384C93.0566 212.348 93.002 212.311 92.9474 212.293C92.8563 212.238 92.7653 212.184 92.6742 212.129C92.5104 212.02 92.3465 211.929 92.1644 211.82C92.1098 211.783 92.037 211.747 91.9824 211.711C91.8913 211.656 91.8185 211.601 91.7275 211.547C91.5636 211.438 91.3997 211.329 91.2177 211.219C91.1448 211.183 91.072 211.128 91.0174 211.092C90.9445 211.037 90.8717 210.983 90.7807 210.946C90.6168 210.837 90.4347 210.728 90.2709 210.619C90.198 210.564 90.1252 210.528 90.0342 210.473C90.3437 211.128 90.6896 211.747 91.072 212.311C91.4544 212.875 91.8549 213.403 92.2919 213.894C92.7289 214.385 93.1841 214.822 93.6757 215.222C93.7849 215.313 93.9124 215.404 94.0216 215.495C94.404 215.787 94.8045 216.06 95.2051 216.296L98.6827 218.461C98.6827 218.461 98.6463 218.443 98.6463 218.425C98.537 218.352 98.4096 218.261 98.3003 218.17H98.3367Z" fill="white"/>
<path id="Vector_40" d="M106.457 222.246C105.692 221.573 104.964 220.845 104.272 220.044C103.58 219.244 102.925 218.389 102.324 217.461C102.233 217.424 102.142 217.37 102.051 217.333C101.905 217.26 101.76 217.188 101.614 217.115C101.578 217.097 101.541 217.078 101.487 217.06C101.396 217.024 101.323 216.969 101.232 216.933C101.086 216.86 100.94 216.787 100.795 216.715C100.74 216.696 100.704 216.66 100.649 216.642C100.576 216.605 100.485 216.551 100.412 216.514C100.267 216.442 100.121 216.369 99.9571 216.278C99.9025 216.241 99.8479 216.223 99.7933 216.187C99.7204 216.15 99.6476 216.114 99.5566 216.059C99.4109 215.987 99.247 215.896 99.1014 215.823C99.0468 215.787 98.9739 215.75 98.9193 215.732C99.4291 216.587 99.9935 217.37 100.576 218.116C101.177 218.843 101.796 219.517 102.47 220.135C103.125 220.754 103.835 221.3 104.564 221.809C104.873 222.01 105.183 222.21 105.492 222.41C105.929 222.665 106.366 222.919 106.821 223.138L107.204 223.338L109.917 224.703C109.552 224.502 109.188 224.284 108.842 224.066C108.005 223.538 107.204 222.938 106.439 222.264L106.457 222.246Z" fill="white"/>
<path id="Vector_41" d="M110.572 225.012C110.845 225.158 111.118 225.285 111.391 225.412C111.41 225.412 111.428 225.43 111.464 225.449L109.953 224.684C110.153 224.794 110.372 224.921 110.59 225.03L110.572 225.012Z" fill="white"/>
<path id="Vector_42" d="M123.153 230.107C122.644 229.925 122.079 229.725 121.478 229.525C122.024 229.743 122.589 229.925 123.153 230.107Z" fill="white"/>
<path id="Vector_43" d="M115.834 226.504C114.687 225.703 113.613 224.794 112.575 223.775C111.537 222.756 110.572 221.646 109.662 220.427C109.589 220.408 109.498 220.372 109.425 220.354C109.298 220.317 109.17 220.263 109.043 220.226C109.006 220.226 108.988 220.226 108.952 220.19C108.879 220.172 108.788 220.135 108.715 220.117C108.588 220.081 108.46 220.026 108.333 219.99C108.296 219.99 108.26 219.972 108.223 219.953C108.151 219.935 108.078 219.899 108.005 219.862C107.877 219.808 107.75 219.771 107.623 219.717C107.586 219.717 107.55 219.681 107.495 219.681C107.422 219.662 107.349 219.626 107.277 219.59C107.149 219.535 107.022 219.499 106.876 219.444C106.821 219.444 106.785 219.408 106.73 219.389C107.477 220.445 108.278 221.427 109.134 222.319C109.989 223.211 110.882 224.029 111.81 224.775C112.739 225.521 113.722 226.176 114.742 226.741C115.616 227.232 116.508 227.669 117.436 228.051C117.582 228.105 117.728 228.178 117.873 228.233C118.365 228.415 118.911 228.615 119.476 228.833C120.131 229.07 120.823 229.306 121.478 229.543C120.768 229.27 120.058 228.96 119.384 228.633C118.165 228.032 116.981 227.323 115.834 226.522V226.504Z" fill="white"/>
<path id="Vector_44" d="M125.429 229.616C123.645 228.688 121.915 227.559 120.295 226.249C118.674 224.939 117.127 223.429 115.725 221.755C115.652 221.755 115.597 221.755 115.525 221.737C115.415 221.737 115.306 221.718 115.197 221.7C115.197 221.7 115.16 221.7 115.142 221.7C115.069 221.7 115.015 221.7 114.942 221.682C114.833 221.682 114.723 221.664 114.614 221.646C114.596 221.646 114.578 221.646 114.541 221.646C114.468 221.646 114.414 221.627 114.341 221.609C114.232 221.609 114.123 221.573 114.013 221.555C113.977 221.555 113.959 221.555 113.922 221.555C113.868 221.555 113.795 221.536 113.74 221.518C113.631 221.5 113.522 221.482 113.412 221.464C113.376 221.464 113.34 221.464 113.321 221.445C114.487 222.901 115.725 224.193 117.054 225.376C118.383 226.54 119.767 227.559 121.223 228.451C122.68 229.343 124.173 230.07 125.721 230.671C127.268 231.271 128.852 231.726 130.473 232.054C131.547 232.254 132.858 232.436 134.114 232.618C133.04 232.436 131.984 232.181 130.928 231.89C129.034 231.344 127.177 230.598 125.393 229.67L125.429 229.616Z" fill="white"/>
<path id="Vector_45" d="M134.132 232.563C134.715 232.672 135.298 232.745 135.899 232.818C136.172 232.854 136.445 232.873 136.736 232.909C136.681 232.909 136.627 232.909 136.554 232.891C135.808 232.8 134.988 232.691 134.132 232.581V232.563Z" fill="white"/>
<path id="Vector_46" d="M154.434 231.235C153.687 231.453 152.922 231.653 152.158 231.817C152.759 231.672 153.505 231.472 154.434 231.235Z" fill="white"/>
<path id="Vector_47" d="M136.627 231.344C133.641 230.525 130.746 229.288 127.997 227.632C125.265 225.976 122.68 223.884 120.368 221.391C120.313 221.391 120.277 221.409 120.222 221.427C120.149 221.446 120.058 221.482 119.967 221.5C119.967 221.5 119.949 221.5 119.931 221.5C119.876 221.5 119.821 221.518 119.785 221.537C119.712 221.555 119.621 221.573 119.548 221.591C119.548 221.591 119.53 221.591 119.512 221.591C119.457 221.591 119.403 221.591 119.366 221.627C119.293 221.627 119.202 221.664 119.111 221.664C119.111 221.664 119.075 221.664 119.057 221.664C119.002 221.664 118.948 221.664 118.911 221.682C118.82 221.682 118.747 221.7 118.656 221.718C118.638 221.718 118.62 221.718 118.602 221.718C120.477 223.829 122.534 225.649 124.719 227.159C126.904 228.669 129.216 229.907 131.62 230.816C134.023 231.726 136.481 232.363 138.976 232.691C141.47 233.018 144.001 233.055 146.495 232.782L147.278 232.691C148.862 232.49 149.572 232.381 150.756 232.108C151.156 232.017 151.593 231.908 152.14 231.781C150.028 232.236 147.861 232.472 145.694 232.49C142.654 232.527 139.595 232.127 136.609 231.308L136.627 231.344Z" fill="white"/>
<path id="Vector_48" d="M154.434 231.235C154.434 231.235 154.452 231.235 154.47 231.235L154.707 231.162C154.707 231.162 154.634 231.18 154.616 231.199C154.561 231.217 154.488 231.235 154.434 231.253V231.235Z" fill="white"/>
<path id="Vector_49" d="M123.536 219.317C123.536 219.317 123.499 219.371 123.463 219.408C123.463 219.426 123.426 219.444 123.39 219.48C123.372 219.517 123.335 219.553 123.299 219.59C123.299 219.59 123.281 219.626 123.263 219.644C123.263 219.644 123.263 219.644 123.244 219.662C123.19 219.735 123.117 219.79 123.062 219.844C123.008 219.899 122.971 219.935 122.917 219.99C122.88 220.026 122.844 220.044 122.807 220.081C122.807 220.081 122.789 220.099 122.771 220.117C122.771 220.117 122.771 220.117 122.753 220.135C122.698 220.172 122.644 220.226 122.589 220.263C122.571 220.281 122.534 220.299 122.516 220.317C122.516 220.317 122.48 220.336 122.48 220.354C122.48 220.372 122.443 220.372 122.425 220.39C129.981 228.069 147.879 237.695 167.106 225.085C167.106 225.085 167.106 225.085 167.124 225.085C168.053 224.411 168.544 224.048 169.2 223.502C169.855 222.938 170.693 222.173 172.313 220.663C172.768 220.208 173.26 219.644 173.752 219.098C173.733 219.116 173.697 219.153 173.679 219.171C162.044 231.526 140.723 234.947 123.517 219.353L123.536 219.317Z" fill="white"/>
<path id="Vector_50" d="M175.044 217.588C174.626 218.079 174.207 218.571 173.752 219.044C174.207 218.534 174.644 218.025 175.044 217.588Z" fill="white"/>
<path id="Vector_51" d="M181.235 205.997C180.489 207.507 179.596 208.981 178.577 210.401C177.557 211.82 176.41 213.166 175.136 214.458C171.822 217.788 167.925 220.317 163.72 222.046C159.514 223.775 155.016 224.684 150.483 224.775C145.949 224.866 141.379 224.157 137.046 222.61C132.712 221.063 128.616 218.716 125.011 215.514C125.011 215.532 125.011 215.55 125.011 215.568C125.011 215.696 124.974 215.823 124.956 215.95C124.956 215.95 124.956 215.968 124.956 215.987C124.938 216.132 124.901 216.26 124.883 216.405V216.442C124.883 216.46 124.883 216.496 124.865 216.514C124.847 216.605 124.81 216.715 124.792 216.806C124.792 216.824 124.792 216.86 124.792 216.878V216.915C124.756 217.042 124.719 217.169 124.683 217.279C128.252 220.572 132.33 223.047 136.627 224.684C140.942 226.322 145.494 227.123 150.009 227.104C154.525 227.086 159.004 226.231 163.191 224.557C167.379 222.883 171.257 220.372 174.589 217.042C175.463 216.169 176.283 215.259 177.029 214.313C177.776 213.366 178.467 212.402 179.105 211.401C179.742 210.401 180.306 209.382 180.816 208.326C181.162 207.598 181.49 206.87 181.781 206.124C181.909 205.797 182.036 205.451 182.164 205.124C182.2 204.996 182.255 204.851 182.291 204.723C182.655 203.613 183.038 202.267 183.347 201.193C183.347 201.175 183.347 201.157 183.365 201.139C183.365 201.102 183.365 201.066 183.383 201.03C183.529 200.375 183.693 199.628 183.839 198.882C183.657 199.701 183.438 200.502 183.183 201.303C182.692 202.886 182.073 204.45 181.308 205.961L181.235 205.997Z" fill="white"/>
<path id="Vector_52" d="M183.748 198.919C183.893 198.246 184.021 197.554 184.13 196.881C184.148 196.754 184.166 196.626 184.185 196.499C184.185 196.535 184.185 196.59 184.166 196.626C184.039 197.318 183.893 198.118 183.748 198.919Z" fill="white"/>
<path id="Vector_53" d="M183.93 180.832C183.857 180.341 183.784 179.868 183.729 179.431C183.784 179.758 183.82 180.068 183.857 180.395C187.589 210.055 150.574 228.851 124.665 209.964C124.665 209.964 124.665 210 124.665 210.018C124.701 210.219 124.737 210.419 124.774 210.619C124.774 210.619 124.774 210.619 124.774 210.637C124.774 210.655 124.774 210.692 124.774 210.71C124.81 210.874 124.828 211.037 124.847 211.201C124.847 211.219 124.847 211.256 124.847 211.274C124.847 211.31 124.847 211.329 124.847 211.365C124.865 211.51 124.883 211.656 124.901 211.783C124.901 211.82 124.901 211.856 124.901 211.893C124.901 211.893 124.901 211.911 124.901 211.929C124.919 212.111 124.938 212.293 124.956 212.475C124.956 212.475 124.956 212.475 124.956 212.493C146.805 230.216 185.441 217.461 184.476 185.8L184.439 185.345C184.312 183.998 184.075 182.342 183.857 180.832H183.93Z" fill="white"/>
<path id="Vector_54" d="M181.599 171.061C181.49 170.697 181.344 170.315 181.217 169.914C180.834 168.823 180.397 167.64 180.015 166.585C180.725 168.677 181.144 170.861 181.235 173.081C181.362 175.646 181.071 178.266 180.397 180.868C179.724 183.489 178.649 186.091 177.156 188.602C175.682 191.131 173.788 193.569 171.512 195.862C168.18 199.21 164.302 201.903 160.151 203.941C156 205.961 151.557 207.307 147.114 207.944C142.672 208.563 138.211 208.49 134.005 207.635C129.799 206.798 125.848 205.196 122.407 202.813C122.407 202.813 122.407 202.849 122.425 202.867C122.516 203.104 122.607 203.34 122.698 203.577C122.698 203.577 122.698 203.613 122.716 203.632C122.716 203.668 122.735 203.704 122.753 203.723C122.826 203.923 122.898 204.123 122.971 204.323C122.971 204.359 122.99 204.378 123.008 204.414V204.45C123.099 204.687 123.172 204.905 123.244 205.124C123.244 205.124 123.244 205.16 123.263 205.178C123.263 205.215 123.281 205.233 123.299 205.269C123.372 205.469 123.426 205.651 123.499 205.852C123.499 205.888 123.518 205.906 123.536 205.943C127.05 208.526 131.074 210.31 135.334 211.329C139.595 212.348 144.11 212.584 148.607 212.093C153.105 211.601 157.565 210.364 161.753 208.417C165.941 206.47 169.819 203.814 173.151 200.466C175.318 198.3 177.102 195.989 178.522 193.569C179.942 191.167 181.016 188.656 181.708 186.145C182.4 183.616 182.746 181.069 182.728 178.558C182.71 176.21 182.382 173.899 181.727 171.661C181.672 171.497 181.636 171.334 181.581 171.17C181.581 171.134 181.563 171.097 181.544 171.061H181.599Z" fill="white"/>
<path id="Vector_55" d="M174.862 155.23C174.644 154.812 174.425 154.393 174.225 154.011C174.298 154.157 174.353 154.284 174.425 154.43C175.299 156.304 175.827 158.324 176.028 160.434C176.264 162.891 176.028 165.493 175.354 168.131C174.68 170.77 173.533 173.463 171.949 176.119C170.365 178.776 168.326 181.396 165.832 183.889C162.5 187.237 158.658 190.039 154.598 192.259C150.519 194.479 146.222 196.099 141.925 197.063C137.647 198.027 133.368 198.355 129.38 197.954C125.393 197.572 121.679 196.462 118.474 194.606C118.492 194.643 118.511 194.679 118.529 194.716C118.656 194.952 118.784 195.171 118.893 195.407C118.911 195.443 118.929 195.48 118.948 195.516C118.948 195.516 118.948 195.553 118.966 195.553C119.111 195.807 119.239 196.08 119.384 196.335C119.384 196.353 119.403 196.371 119.421 196.408C119.439 196.444 119.457 196.481 119.476 196.517C119.585 196.735 119.712 196.972 119.821 197.19C119.821 197.227 119.858 197.245 119.876 197.281C119.876 197.281 119.876 197.299 119.894 197.318C120.022 197.572 120.149 197.827 120.277 198.082C120.277 198.1 120.295 198.118 120.313 198.155C123.627 200.247 127.45 201.557 131.547 202.14C135.644 202.722 139.995 202.576 144.365 201.757C148.735 200.939 153.086 199.428 157.201 197.299C161.316 195.171 165.158 192.405 168.508 189.057C170.93 186.637 172.896 184.071 174.444 181.469C175.991 178.849 177.084 176.174 177.757 173.535C178.431 170.879 178.668 168.259 178.467 165.729C178.304 163.564 177.794 161.471 176.974 159.488C176.883 159.288 176.792 159.07 176.701 158.869C176.647 158.76 176.61 158.651 176.556 158.542C176.082 157.559 175.463 156.358 174.881 155.23H174.862Z" fill="white"/>
<path id="Vector_56" d="M113.558 186.491C113.558 186.491 113.613 186.582 113.649 186.618C113.849 186.946 114.068 187.255 114.268 187.583C114.268 187.601 114.286 187.619 114.305 187.637C114.341 187.71 114.396 187.783 114.432 187.837C114.578 188.074 114.723 188.292 114.869 188.529C114.924 188.62 114.978 188.693 115.033 188.784C115.106 188.893 115.179 189.02 115.251 189.129C115.324 189.239 115.397 189.366 115.47 189.475C118.474 191.004 122.006 191.804 125.83 191.895C129.653 192.004 133.786 191.422 137.938 190.239C142.107 189.057 146.313 187.255 150.319 184.908C154.324 182.561 158.112 179.686 161.462 176.338C164.029 173.772 166.141 171.115 167.78 168.441C169.437 165.784 170.62 163.109 171.348 160.543C172.077 157.96 172.332 155.467 172.131 153.138C171.931 150.809 171.239 148.661 170.092 146.751L167.416 142.511L167.288 142.311L167.015 141.911C167.015 141.911 167.106 142.038 167.142 142.111C168.198 143.803 168.817 145.75 168.981 147.861C169.163 150.063 168.854 152.483 168.089 154.994C167.324 157.505 166.086 160.143 164.375 162.782C162.682 165.438 160.515 168.113 157.911 170.733C154.561 174.081 150.792 177.011 146.859 179.449C142.908 181.887 138.793 183.816 134.715 185.163C130.655 186.509 126.649 187.273 122.953 187.383C119.257 187.492 115.87 186.928 113.03 185.636C113.139 185.818 113.267 185.981 113.376 186.163C113.449 186.273 113.503 186.364 113.576 186.473L113.558 186.491Z" fill="white"/>
<path id="Vector_57" d="M107.022 177.211C107.022 177.211 107.131 177.338 107.167 177.411C107.349 177.666 107.55 177.921 107.732 178.175C107.786 178.266 107.859 178.339 107.914 178.43C108.005 178.558 108.096 178.685 108.187 178.812C108.278 178.94 108.369 179.067 108.46 179.194C108.587 179.358 108.697 179.522 108.824 179.686C108.915 179.795 108.988 179.922 109.079 180.031C109.115 180.086 109.152 180.141 109.188 180.177C111.792 181.123 114.942 181.342 118.438 180.923C121.933 180.504 125.739 179.467 129.635 177.884C133.55 176.301 137.537 174.19 141.397 171.625C145.257 169.059 148.971 166.057 152.322 162.709C154.98 160.052 157.201 157.377 158.967 154.757C160.733 152.137 162.063 149.589 162.918 147.206C163.774 144.804 164.175 142.566 164.084 140.546C164.011 138.745 163.556 137.125 162.718 135.76C162.609 135.597 162.518 135.433 162.409 135.269L161.316 133.759L160.333 132.394L158.894 130.484C159.859 131.757 160.315 133.377 160.315 135.233C160.315 137.107 159.841 139.236 158.894 141.529C157.966 143.84 156.582 146.314 154.743 148.88C152.922 151.464 150.647 154.12 147.97 156.813C144.62 160.161 140.942 163.218 137.137 165.875C133.35 168.532 129.435 170.788 125.666 172.535C121.879 174.281 118.219 175.519 114.887 176.156C111.573 176.793 108.587 176.811 106.184 176.137C106.439 176.483 106.694 176.811 106.949 177.156C106.949 177.156 106.967 177.193 106.985 177.211H107.022Z" fill="white"/>
<path id="Vector_58" d="M148.243 127.882C147.096 129.92 145.512 132.212 143.546 134.669C141.579 137.125 139.212 139.745 136.481 142.475C133.131 145.823 129.544 149.007 125.939 151.9C122.334 154.794 118.693 157.377 115.233 159.543C111.774 161.708 108.515 163.437 105.62 164.619C102.743 165.802 100.23 166.421 98.3367 166.366C98.3367 166.366 98.3549 166.384 98.3731 166.403C98.4277 166.457 98.4641 166.512 98.5187 166.585C98.7554 166.857 98.9739 167.13 99.2106 167.403C99.2835 167.476 99.3381 167.567 99.4109 167.64C99.5202 167.767 99.6294 167.895 99.7204 168.022C99.8297 168.149 99.9389 168.295 100.048 168.422C100.194 168.586 100.321 168.75 100.467 168.932C100.558 169.041 100.667 169.168 100.758 169.278C100.813 169.332 100.849 169.387 100.904 169.441C101.177 169.787 101.468 170.133 101.741 170.46C103.872 170.788 106.566 170.406 109.643 169.459C112.721 168.513 116.162 166.985 119.767 165.001C123.372 163.018 127.123 160.562 130.8 157.778C134.497 154.994 138.12 151.864 141.47 148.516C144.183 145.805 146.513 143.148 148.425 140.637C150.337 138.126 151.83 135.76 152.886 133.595C153.942 131.448 154.543 129.501 154.707 127.845C154.852 126.299 154.579 125.007 153.887 124.024C153.851 123.969 153.796 123.897 153.742 123.842L153.05 122.987L152.504 122.314L149.827 119.111C150.483 119.894 150.665 121.076 150.392 122.55C150.118 124.042 149.39 125.825 148.243 127.882Z" fill="white"/>
<path id="Vector_59" d="M90.4711 157.523C90.6168 157.687 90.7624 157.85 90.9081 157.996C91.0173 158.123 91.1266 158.233 91.254 158.36C91.3086 158.415 91.3633 158.487 91.4179 158.542C91.7274 158.888 92.0369 159.233 92.3647 159.561C92.4011 159.597 92.4193 159.615 92.4557 159.652C92.7288 159.961 93.0201 160.271 93.2932 160.58C94.8773 160.271 97.0622 159.288 99.6658 157.796C102.269 156.304 105.292 154.284 108.533 151.864C111.774 149.462 115.251 146.678 118.747 143.658C122.243 140.637 125.757 137.38 129.125 134.032C131.875 131.284 134.296 128.7 136.354 126.317C138.411 123.933 140.104 121.786 141.397 119.912C142.69 118.038 143.582 116.436 144.037 115.181C144.492 113.925 144.511 113.015 144.074 112.524L143.892 112.324L140.833 108.994L139.813 107.884C139.813 107.884 139.831 107.921 139.85 107.939C140.068 108.266 139.868 108.958 139.303 109.995C138.702 111.087 137.665 112.524 136.263 114.289C134.861 116.054 133.076 118.11 130.946 120.421C130.455 120.949 129.963 121.495 129.435 122.041C127.687 123.915 125.739 125.916 123.609 128.045C122.443 129.21 121.26 130.374 120.058 131.521C117.837 133.668 115.579 135.797 113.358 137.817C112.611 138.49 111.883 139.163 111.155 139.818C111.045 139.927 110.918 140.037 110.809 140.146C109.826 141.019 108.861 141.874 107.896 142.711C106.403 144.021 104.946 145.277 103.526 146.442C103.052 146.842 102.597 147.206 102.142 147.588C101.414 148.188 100.704 148.752 100.012 149.298C98.2821 150.681 96.6616 151.919 95.205 152.956C94.1854 153.702 93.2568 154.32 92.4011 154.866C91.254 155.594 90.2708 156.158 89.5061 156.486C89.5789 156.559 89.6518 156.631 89.7246 156.722C89.852 156.85 89.9613 156.977 90.0887 157.104C90.2162 157.25 90.3436 157.377 90.4711 157.523Z" fill="white"/>
<path id="Vector_60" d="M80.8212 147.642C80.8212 147.642 80.9487 147.77 81.0215 147.824C81.3675 148.152 81.6952 148.48 82.0411 148.825H82.0594C82.2596 149.044 82.4599 149.244 82.642 149.444C82.7694 149.571 82.8969 149.699 83.0426 149.826C83.1154 149.899 83.17 149.953 83.2428 150.026C83.3703 150.154 83.4795 150.263 83.607 150.39L84.044 150.827C91.9096 143.385 131.201 104.372 133.623 101.479L133.532 101.388C132.312 100.151 130.946 98.8044 129.854 97.7308C129.745 97.6216 129.617 97.4943 129.49 97.3851C129.399 97.2941 129.289 97.2031 129.198 97.094L129.071 96.9666C128.889 96.821 128.27 97.1121 127.305 97.7854C126.322 98.4769 124.956 99.5868 123.263 101.061C121.569 102.535 119.567 104.372 117.291 106.519C115.015 108.667 112.466 111.159 109.716 113.907C106.366 117.255 103.016 120.694 99.8298 124.042C96.6435 127.39 93.6393 130.629 90.9446 133.613C88.2499 136.598 85.9011 139.309 84.0257 141.565C82.1504 143.821 80.7848 145.641 80.0383 146.842C80.2022 146.987 80.3479 147.151 80.5117 147.297C80.6392 147.406 80.7484 147.533 80.8759 147.642H80.8212Z" fill="white"/>
<path id="Vector_61" d="M83.1882 126.39C85.628 123.187 88.4501 119.748 91.4907 116.273C92.1826 115.49 92.8927 114.689 93.6028 113.907C95.4782 111.833 97.4446 109.758 99.4292 107.72C100.012 107.12 100.594 106.538 101.177 105.955C103.926 103.208 106.512 100.788 108.879 98.7316C109.844 97.8946 110.772 97.1121 111.665 96.4025C112.957 95.3653 114.159 94.4373 115.251 93.6549C115.852 93.2182 116.417 92.8543 116.963 92.5085C118.074 91.7989 119.075 91.2712 119.894 90.9437C120.786 90.5798 121.497 90.4706 122.006 90.598C122.006 90.598 122.025 90.598 122.043 90.598C122.188 90.6344 122.298 90.7071 122.407 90.7799C122.425 90.7799 122.462 90.7981 122.48 90.8163L119.421 88.0869L118.583 87.3409L117.655 86.522C117.655 86.522 117.546 86.4311 117.491 86.3947C116.817 85.9216 115.798 85.8488 114.505 86.1763C113.103 86.5221 111.391 87.3045 109.407 88.5054C107.422 89.7064 105.183 91.3258 102.761 93.3274C100.34 95.3289 97.7177 97.7126 94.9684 100.442C91.6182 103.79 88.3955 107.338 85.4459 110.905C82.4963 114.471 79.8198 118.019 77.5621 121.404C75.3044 124.77 73.4472 127.936 72.1363 130.72C70.8253 133.486 70.0606 135.87 69.9696 137.653C70.2973 137.944 70.6433 138.235 70.971 138.526C70.9892 138.526 71.0074 138.563 71.0256 138.581C71.0256 138.581 71.0438 138.599 71.062 138.617C71.408 138.927 71.7539 139.218 72.0817 139.527C72.1545 139.582 72.2091 139.636 72.2819 139.709C72.4094 139.818 72.5368 139.946 72.6643 140.055C72.8282 140.2 72.992 140.346 73.1377 140.491C73.2833 140.619 73.429 140.764 73.5747 140.892C73.7021 141.001 73.8296 141.128 73.957 141.237C74.0299 141.31 74.1027 141.365 74.1755 141.438C74.303 140.874 74.5579 140.2 74.8674 139.472C75.3954 138.235 76.1237 136.798 77.1069 135.178C77.2344 134.978 77.38 134.741 77.5075 134.541C78.5271 132.886 79.7288 131.102 81.1125 129.174C81.768 128.282 82.4417 127.354 83.1518 126.426L83.1882 126.39Z" fill="white"/>
<path id="Vector_62" d="M86.1742 93.018C88.8871 90.3068 91.5453 87.9959 94.058 86.0854C96.5706 84.1748 98.9375 82.6827 101.086 81.6273C103.234 80.572 105.164 79.9533 106.803 79.7895C108.369 79.644 109.662 79.9169 110.627 80.6266C110.663 80.6629 110.718 80.6993 110.754 80.7175L110.426 80.4446L106.093 77.0055L105.729 76.7144C105.729 76.7144 105.565 76.6052 105.492 76.5506C104.345 75.75 102.889 75.3861 101.195 75.4225C99.3927 75.4589 97.3171 75.9684 95.0594 76.9328C92.8017 77.8971 90.3437 79.3164 87.7764 81.1542C85.2092 82.992 82.5509 85.2847 79.838 87.9595C76.4878 91.3076 73.3926 94.965 70.6979 98.7134C68.0032 102.462 65.6726 106.319 63.8519 110.05C62.0312 113.78 60.6838 117.364 59.9555 120.621C59.2272 123.86 59.0816 126.772 59.6642 129.083C60.0283 129.355 60.3925 129.647 60.7566 129.938C60.8295 129.992 60.8841 130.047 60.9569 130.083C61.0844 130.192 61.2118 130.283 61.3393 130.393C61.5031 130.52 61.6852 130.666 61.8491 130.793C61.9947 130.902 62.1404 131.03 62.2861 131.139C62.4135 131.248 62.5592 131.357 62.6866 131.466C62.7595 131.539 62.8505 131.594 62.9233 131.666C63.2146 131.903 63.5242 132.158 63.8155 132.394C63.8701 132.431 63.9247 132.485 63.9794 132.522C63.9794 132.522 63.9976 132.522 64.0158 132.54C63.7244 130.429 64.125 127.754 65.09 124.697C66.0732 121.64 67.6208 118.22 69.6236 114.635C71.6265 111.05 74.1027 107.32 76.9066 103.645C79.7105 99.9689 82.8604 96.3479 86.2106 92.9998L86.1742 93.018Z" fill="white"/>
<path id="Vector_63" d="M71.0074 81.409C73.6475 78.7887 76.3057 76.587 78.9094 74.822C81.5131 73.0752 84.0439 71.7469 86.429 70.8917C88.8142 70.0365 91.0719 69.6361 93.093 69.6907C95.114 69.7635 96.9165 70.2912 98.4095 71.3102L94.4221 68.5626L93.2386 67.7438C93.1112 67.6528 92.9655 67.58 92.8198 67.5072C92.8198 67.5072 92.7834 67.489 92.7652 67.489C91.1812 66.6156 89.3786 66.1243 87.4122 66.0151C85.2456 65.906 82.8968 66.2517 80.4388 67.0341C77.9808 67.8347 75.3954 69.0903 72.7917 70.7825C70.1881 72.4747 67.548 74.6219 64.9443 77.1875C61.5942 80.5174 58.6264 84.2839 56.1684 88.1961C53.7104 92.1264 51.7258 96.2205 50.3238 100.242C48.9218 104.263 48.1025 108.23 47.9204 111.887C47.7565 115.545 48.2299 118.875 49.4498 121.677C49.5591 121.75 49.6501 121.822 49.7594 121.877C49.9414 122.004 50.1235 122.132 50.3056 122.241C50.3602 122.277 50.4148 122.314 50.4694 122.35C50.5605 122.423 50.6697 122.477 50.7608 122.55C50.9428 122.678 51.1249 122.805 51.307 122.932C51.3798 122.969 51.4344 123.023 51.4891 123.06C51.5801 123.114 51.6711 123.187 51.7622 123.242C51.9442 123.369 52.1263 123.496 52.3084 123.624C52.3812 123.678 52.4541 123.733 52.5269 123.769C52.6179 123.824 52.6907 123.878 52.7818 123.951C52.9639 124.079 53.1459 124.206 53.328 124.352C53.419 124.406 53.4919 124.461 53.5647 124.534C52.5997 121.913 52.3812 118.747 52.7818 115.254C53.1823 111.76 54.2202 107.939 55.786 104.027C57.3518 100.114 59.4821 96.1114 62.0311 92.2538C64.5984 88.3962 67.6026 84.6843 70.9528 81.3362L71.0074 81.409Z" fill="white"/>
<path id="Vector_64" d="M40.601 116.163C40.7649 116.254 40.947 116.364 41.1108 116.454C41.1472 116.454 41.1654 116.491 41.2019 116.509C41.2929 116.564 41.4021 116.618 41.5114 116.691C41.6752 116.782 41.8391 116.891 42.0212 116.982C42.0576 117 42.094 117.019 42.1304 117.055C42.2215 117.11 42.3307 117.164 42.4217 117.219C42.5856 117.31 42.7495 117.419 42.9316 117.51C42.9862 117.546 43.0226 117.564 43.0772 117.601C43.1683 117.655 43.2593 117.71 43.3503 117.765C43.5142 117.874 43.6781 117.965 43.8601 118.074C43.9148 118.11 43.9694 118.147 44.024 118.183C42.4582 115.163 41.6388 111.596 41.5114 107.757C41.3839 103.917 41.9302 99.7688 43.0954 95.6019C44.2607 91.435 46.045 87.2135 48.3938 83.2104C50.7243 79.2073 53.6011 75.4043 56.9695 72.0744C59.4821 69.5634 62.1039 67.5072 64.7076 65.8878C67.3295 64.2683 69.9513 63.0856 72.5004 62.3395C75.0494 61.6117 77.5256 61.3206 79.8379 61.4843C82.1321 61.6481 84.2805 62.2486 86.2105 63.3039C86.2105 63.3039 86.2469 63.3039 86.2652 63.3221L86.1559 63.2675L81.6769 60.6837L81.3674 60.5017C81.3674 60.5017 81.2763 60.4654 81.2399 60.4472C79.2007 59.4282 76.9612 58.8277 74.5942 58.664C72.1726 58.482 69.6418 58.7549 67.0381 59.4464C64.4527 60.156 61.8126 61.2842 59.1908 62.8672C56.5871 64.4503 54.0017 66.47 51.5254 68.9083C48.1753 72.2382 45.3349 76.0593 43.0954 80.1171C40.8559 84.1748 39.1808 88.4508 38.1794 92.7269C37.1598 96.9848 36.7957 101.224 37.1416 105.191C37.4875 109.158 38.5254 112.852 40.3279 116C40.4371 116.054 40.5282 116.109 40.6374 116.182L40.601 116.163Z" fill="white"/>
<path id="Vector_65" d="M74.5579 57.0263L71.0074 55.4251L70.0424 55.0248C69.7693 54.9156 69.4962 54.8064 69.2231 54.7154C67.1292 53.9512 64.9079 53.4963 62.6502 53.3507C60.083 53.2052 57.4429 53.4599 54.821 54.115C52.181 54.7882 49.5591 55.8618 46.9919 57.3539C44.4428 58.8459 41.9484 60.7383 39.6179 63.0492C36.2677 66.3791 33.5366 70.2366 31.4974 74.3853C29.4399 78.534 28.0562 82.9375 27.3825 87.3773C26.7088 91.7989 26.7453 96.2387 27.5282 100.424C28.3111 104.609 29.8587 108.539 32.1711 111.96C32.2257 111.978 32.2985 112.015 32.3531 112.033C32.5534 112.124 32.7355 112.197 32.9358 112.288C32.9358 112.288 32.954 112.288 32.9722 112.288C33.0632 112.324 33.1543 112.36 33.2271 112.397C33.391 112.47 33.5548 112.542 33.7187 112.615C33.7187 112.615 33.7551 112.615 33.7733 112.633C33.8643 112.67 33.9554 112.724 34.0464 112.761C34.2103 112.834 34.3559 112.906 34.5198 112.979C34.538 112.979 34.5744 112.997 34.5926 113.015C34.6837 113.052 34.7747 113.106 34.8657 113.143C35.0114 113.216 35.1753 113.288 35.3209 113.361C35.3573 113.361 35.3938 113.398 35.412 113.416C33.2999 110.086 31.9526 106.247 31.3517 102.152C30.7509 98.0402 30.8783 93.6731 31.6795 89.3061C32.4806 84.939 33.9918 80.572 36.1221 76.4597C38.2523 72.3474 41.0198 68.508 44.37 65.1781C46.7734 62.7945 49.3042 60.8475 51.8897 59.319C54.4751 57.7906 57.1334 56.6988 59.7735 56.0256C62.4135 55.3523 65.0172 55.0976 67.548 55.2795C70.0242 55.4615 72.3912 56.0437 74.6125 57.0445C74.6489 57.0627 74.7035 57.0809 74.7399 57.0991L74.5579 57.0263Z" fill="white"/>
<path id="Vector_66" d="M62.632 52.3136C61.2482 51.895 59.4457 51.4219 57.9527 51.0398C57.7888 51.0034 57.625 50.9489 57.4611 50.9125C57.3337 50.8761 57.188 50.8397 57.0423 50.8215C56.3322 50.6759 55.4947 50.5303 54.8392 50.4394C28.3657 47.0185 5.91598 82.3552 25.234 109.558C25.234 109.558 25.2522 109.558 25.2704 109.558C25.4161 109.595 25.5618 109.631 25.7074 109.667C25.762 109.667 25.8349 109.704 25.8895 109.722C26.108 109.777 26.3265 109.849 26.545 109.904C26.5632 109.904 26.5814 109.904 26.6178 109.922C26.8181 109.977 27.0183 110.031 27.2186 110.104C27.2186 110.104 27.2186 110.104 27.2368 110.104C27.3097 110.122 27.3825 110.159 27.4553 110.177C27.601 110.231 27.7466 110.268 27.9105 110.322C27.9105 110.322 27.9287 110.322 27.9469 110.322C27.5646 109.758 27.0366 109.031 26.6724 108.448C11.6877 84.4477 32.08 44.5802 62.5956 52.2772L62.632 52.3136Z" fill="white"/>
<path id="Vector_67" d="M21.3376 58.7367C17.9875 62.0484 15.4385 65.9424 13.6905 70.1456C11.9426 74.3489 10.9776 78.8433 10.832 83.3923C10.6863 87.9231 11.3418 92.5085 12.8166 96.8392C14.2914 101.188 16.5855 105.282 19.699 108.885C19.699 108.885 19.7354 108.885 19.7536 108.885C19.8446 108.885 19.9539 108.885 20.0449 108.885C20.0995 108.885 20.1542 108.885 20.2088 108.885H20.2452C20.3544 108.885 20.4455 108.885 20.5547 108.885C20.6094 108.885 20.6822 108.885 20.7368 108.885C20.7368 108.885 20.755 108.885 20.7732 108.885C20.8825 108.885 21.0099 108.885 21.1192 108.903C21.1738 108.903 21.2284 108.903 21.283 108.903C21.4469 108.903 21.6108 108.921 21.7564 108.94C21.7746 108.94 21.7928 108.94 21.8292 108.94C4.2227 86.9224 17.1864 48.3468 48.8672 49.5295C48.8854 49.5295 48.9036 49.5295 48.9218 49.5295H48.7216L47.2286 49.4204H47.1739C47.1739 49.4204 47.1557 49.4204 47.1375 49.4204C45.5899 49.3658 43.5325 49.4022 41.9666 49.4204C40.1095 49.5295 38.2705 49.7843 36.4498 50.221C34.629 50.6577 32.8265 51.2582 31.0786 52.0406C29.3307 52.823 27.6374 53.751 25.9987 54.8792C24.3783 55.9891 22.8124 57.281 21.3376 58.7367Z" fill="white"/>
<path id="Vector_68" d="M5.36972 84.757C5.38793 89.2515 6.24367 93.7641 7.93696 98.0401C9.63025 102.316 12.1611 106.356 15.5477 109.886C15.5659 109.886 15.5841 109.868 15.6023 109.849C15.6569 109.813 15.7297 109.777 15.7843 109.758C15.8208 109.758 15.8572 109.722 15.8936 109.704C15.8936 109.704 15.93 109.704 15.9482 109.686C16.021 109.649 16.0757 109.631 16.1485 109.595C16.1849 109.595 16.2213 109.558 16.2577 109.54C16.2577 109.54 16.2942 109.54 16.3124 109.54C16.3852 109.504 16.458 109.485 16.5309 109.467C16.5673 109.467 16.6219 109.431 16.6583 109.413C16.6583 109.413 16.6765 109.413 16.6947 109.413C16.7675 109.394 16.8586 109.358 16.9314 109.34C16.986 109.34 17.0225 109.303 17.0771 109.303C-0.238158 89.1787 6.64424 60.0105 30.6962 51.4583C30.7326 51.4583 30.7508 51.4401 30.7872 51.4219C30.7508 51.4219 30.6962 51.4583 30.6416 51.4765C28.9119 52.077 26.6724 52.9504 25.0155 53.66C24.0869 54.0967 22.9034 54.77 21.9749 55.2613C21.9567 55.2613 21.9202 55.2795 21.902 55.2977C21.902 55.2977 21.8656 55.3159 21.8474 55.3341C21.283 55.6616 20.7186 56.0255 20.1541 56.3894C19.5897 56.7716 19.0253 57.1719 18.4608 57.5904C17.9146 58.0089 17.3684 58.4456 16.8404 58.9187C16.3124 59.3736 15.7843 59.8649 15.2927 60.3744C11.9608 63.6861 9.44818 67.5618 7.7913 71.7105C6.13443 75.8774 5.3151 80.3354 5.3333 84.8298L5.36972 84.757Z" fill="white"/>
<path id="Vector_69" d="M6.2802 103.863C8.0099 107.011 10.2676 109.959 13.0351 112.615C13.0351 112.597 13.0533 112.579 13.0716 112.561C13.108 112.47 13.1626 112.379 13.199 112.306C13.199 112.306 13.199 112.269 13.2172 112.251C13.2172 112.251 13.2354 112.215 13.2536 112.197C13.29 112.124 13.3447 112.033 13.3993 111.96C13.3993 111.942 13.4175 111.924 13.4357 111.906C13.4357 111.906 13.4357 111.906 13.4357 111.887C13.5085 111.778 13.5632 111.687 13.636 111.596C13.636 111.596 13.6542 111.578 13.6724 111.56C13.727 111.487 13.7999 111.396 13.8545 111.323C13.8545 111.323 13.8727 111.305 13.8909 111.287C1.00005 97.7308 -0.329087 79.6258 10.4497 65.0872C10.4861 65.0326 10.5225 64.978 10.5589 64.9416L10.304 65.2691L9.15697 66.7794L8.97489 67.0159C8.88385 67.1433 8.81103 67.2525 8.7382 67.3617C8.11914 68.2351 7.7732 68.7628 7.29981 69.5452C6.88104 70.273 6.35303 71.2192 5.46086 72.9114C5.46086 72.9114 5.46086 72.9478 5.44266 72.966L5.38804 73.0752L5.04209 73.8031C3.5855 76.951 2.65693 80.299 2.27457 83.7017C1.89222 87.1043 2.03787 90.5798 2.69334 93.9824C3.36701 97.3851 4.5687 100.715 6.29841 103.863H6.2802Z" fill="white"/>
<path id="Vector_70" d="M12.234 117.055C12.234 117.055 12.234 117 12.234 116.982C12.234 116.855 12.234 116.727 12.234 116.6C12.234 116.564 12.234 116.545 12.234 116.509C12.234 116.509 12.234 116.491 12.234 116.473C12.234 116.309 12.234 116.163 12.234 116C12.234 116 12.234 116 12.234 115.981C12.234 115.963 12.234 115.927 12.234 115.909C12.234 115.781 12.234 115.672 12.2704 115.545C12.2704 115.527 12.2704 115.49 12.2704 115.472C12.2704 115.454 12.2704 115.417 12.2704 115.399C12.2704 115.29 12.2886 115.181 12.3068 115.072C12.3068 115.035 12.3068 115.017 12.3068 114.981C10.1401 113.034 8.28298 110.905 6.73535 108.63C5.18772 106.356 3.96782 103.954 3.05745 101.461C2.14708 98.9681 1.54624 96.4207 1.27313 93.8369C1.01823 91.4896 1.03643 89.1241 1.30954 86.795C1.34596 86.5585 1.36417 86.3219 1.40058 86.0854L1.32775 86.6312C1.18209 87.8504 1.09106 88.4326 1.05464 89.3788C1.01823 90.1249 1.00002 91.1075 0.981812 92.7997C0.981812 93.109 0.981812 93.4365 0.981812 93.8005C0.981812 94.6375 1.03643 95.4381 1.10926 96.2387C2.14708 107.648 9.64853 114.635 12.234 117.037V117.055Z" fill="white"/>
<path id="Vector_71" d="M1.92861 102.662C1.92861 102.662 1.92861 102.717 1.92861 102.753C2.03785 103.408 2.18351 104.063 2.34738 104.7C2.38379 104.845 2.42021 104.973 2.45662 105.118C2.25634 104.263 2.07427 103.408 1.9104 102.662H1.92861Z" fill="white"/>
<path id="Vector_72" d="M7.0266 116.618C7.84593 117.819 8.77451 118.966 9.81233 120.057C10.8502 121.149 11.9972 122.186 13.2535 123.132C13.1989 122.914 13.1261 122.696 13.0715 122.496C13.0715 122.477 13.0715 122.459 13.0715 122.423C13.0715 122.386 13.0532 122.332 13.035 122.295C12.9986 122.15 12.9622 122.004 12.9258 121.841C12.9258 121.804 12.9076 121.768 12.8894 121.731C12.8894 121.695 12.8894 121.677 12.8712 121.64C12.8348 121.477 12.7983 121.313 12.7619 121.167C12.7619 121.131 12.7619 121.094 12.7437 121.058C12.7437 121.058 12.7437 121.04 12.7437 121.022C12.7073 120.822 12.6527 120.621 12.6163 120.439C12.6163 120.439 12.6163 120.421 12.6163 120.403C11.1233 119.202 9.79412 117.91 8.59243 116.545C7.40895 115.181 6.35293 113.725 5.46076 112.233C4.5686 110.723 3.8221 109.176 3.23946 107.557C2.94814 106.756 2.67503 105.937 2.45654 105.1C2.76607 106.428 3.11201 107.793 3.38512 108.921C3.42153 109.049 3.45795 109.158 3.49436 109.285C3.51257 109.358 3.53078 109.413 3.54899 109.485C3.91313 110.632 4.35011 111.778 4.85992 112.87C5.46076 114.144 6.17085 115.399 7.00839 116.6L7.0266 116.618Z" fill="white"/>
</g>
</svg>
