<svg id="Capa_1" enable-background="new 0 0 317.44 317.44" height="512" viewBox="0 0 317.44 317.44"
    width="512" xmlns="http://www.w3.org/2000/svg">
    <g>
        <circle cx="158.72" cy="158.72" fill="#f4f3f2" r="153.6" />
        <path
            d="m158.72 317.44c-87.659 0-158.72-71.061-158.72-158.72s71.061-158.72 158.72-158.72 158.72 71.061 158.72 158.72c-.1 87.617-71.103 158.62-158.72 158.72zm0-307.2c-82.003 0-148.48 66.477-148.48 148.48s66.477 148.48 148.48 148.48 148.48-66.477 148.48-148.48c-.092-81.965-66.515-148.388-148.48-148.48z" />
        <path
            d="m61.377 133.8 87.033 93.878c5.279 5.694 14.174 6.031 19.869.752.26-.241.511-.492.752-.752l87.033-93.879c5.279-5.694 4.942-14.59-.752-19.868-2.6-2.41-6.013-3.749-9.558-3.749h-35.806c-3.725 0-7.292 1.512-9.882 4.189l-41.345 42.737-41.345-42.737c-2.59-2.678-6.156-4.189-9.882-4.189h-35.807c-7.765 0-14.059 6.295-14.059 14.059 0 3.545 1.339 6.959 3.749 9.559z"
            fill="#b589d6" />
        <path
            d="m158.72 237.3c-5.337-.007-10.432-2.232-14.065-6.142l-87.033-93.878c-7.201-7.768-6.741-19.903 1.027-27.104 3.546-3.287 8.203-5.114 13.038-5.114h35.805c5.111.011 10.001 2.084 13.562 5.75l37.665 38.933 37.665-38.932c3.561-3.666 8.452-5.739 13.562-5.75h35.805c10.592-.001 19.179 8.585 19.179 19.177 0 4.836-1.827 9.494-5.114 13.04l-87.033 93.878c-3.631 3.91-8.726 6.135-14.063 6.142zm-87.033-121.998c-4.937 0-8.939 4.003-8.939 8.94 0 2.254.852 4.425 2.384 6.078l87.033 93.878c3.523 3.62 9.314 3.699 12.934.176.059-.058.118-.116.176-.176l87.033-93.877c3.357-3.62 3.143-9.277-.477-12.633-1.653-1.533-3.824-2.384-6.078-2.384h-35.805c-2.337.005-4.574.953-6.202 2.63l-41.346 42.733c-2.048 1.995-5.312 1.995-7.36 0l-41.345-42.735c-1.629-1.677-3.865-2.625-6.202-2.63z" />
    </g>
</svg> 