<svg width="252" height="251" viewBox="0 0 252 251" fill="none" xmlns="http://www.w3.org/2000/svg">
<g id="esphere">
<path id="Vector" d="M151.021 4.62526C151.6 4.68507 152.178 4.76481 152.757 4.82462C152.178 4.74488 151.6 4.68507 151.021 4.62526Z" fill="white"/>
<path id="Vector_2" d="M187.345 16.3479L184.172 14.6334C184.072 14.5935 183.992 14.5337 183.892 14.4938C183.553 14.3144 183.234 14.1549 182.894 13.9954C183.114 14.0951 183.334 14.1948 183.553 14.3144C183.054 14.0552 182.555 13.796 182.036 13.5169L179.801 12.5002C180 12.5998 180.2 12.6995 180.38 12.7793C177.665 11.5233 174.871 10.3869 172.017 9.37014C159.822 6.49929 147.228 5.3031 125.573 4.94424C165.71 6.91795 179.502 12.6397 184.132 14.6134C185.21 15.1716 186.268 15.7299 187.325 16.328L187.345 16.3479Z" fill="white"/>
<path id="Vector_3" d="M155.392 3.64837C153.835 3.26957 152.238 2.89078 150.901 2.59173L150.063 2.41231C145.432 1.69459 136.251 3.13002 125.613 4.94424C126.531 4.82462 127.449 4.705 128.348 4.60532C145.971 2.59173 151.061 2.93065 155.392 3.62843V3.64837Z" fill="white"/>
<path id="Vector_4" d="M142.399 1.15631C141.001 0.976883 139.285 0.777518 137.948 0.618027C137.928 0.618027 137.908 0.618027 137.888 0.618027C137.628 0.677836 137.589 0.697772 125.633 4.96417C139.544 1.27593 140.922 1.23606 142.778 1.19618C142.658 1.19618 142.538 1.15631 142.419 1.15631H142.399Z" fill="white"/>
<path id="Vector_5" d="M83.0215 243.624C83.3209 243.723 83.6402 243.843 83.9596 243.942C86.1949 244.7 88.9492 245.557 91.0848 246.215C93.2803 246.853 96.2541 247.551 98.4695 248.069C69.4895 240.992 44.7807 225.142 25.0017 200.94L30.5702 207.798C31.2687 208.575 31.8874 209.273 32.4463 209.911C34.502 212.044 36.937 214.536 39.4318 216.909C40.9686 218.304 42.8847 219.999 45.5192 222.331C46.8764 223.428 48.4731 224.644 50.1097 225.84C64.1606 236.187 73.7607 239.995 83.0215 243.624Z" fill="white"/>
<path id="Vector_6" d="M131.9 0.33892C131.721 0.27911 131.481 0.179428 131.282 0.119619C131.282 0.119619 131.262 0.119619 131.242 0.119619C129.944 0.0598094 129.146 0.0398729 129.066 0.0398729C128.328 0.0398729 127.41 0 126.631 0C128.108 0.0598094 128.148 0.0996823 128.807 0.976886C128.527 1.987 127.463 3.3161 125.613 4.96418C131.521 1.6946 131.701 1.05663 131.92 0.33892H131.9Z" fill="white"/>
<path id="Vector_7" d="M8.45598 171.454C31.4883 225.76 89.1488 246.554 109.527 249.983C109.626 249.983 109.726 250.003 109.826 250.023C110.904 250.163 112.261 250.302 113.279 250.402L115.414 250.581C115.414 250.581 115.494 250.581 115.534 250.581C103.519 249.465 20.8503 225.122 2.2688 150.161C2.46839 151.278 2.66797 152.354 2.86756 153.371C4.24471 158.595 6.36032 165.433 8.1566 170.636C8.25639 170.915 8.35619 171.154 8.45598 171.434V171.454Z" fill="white"/>
<path id="Vector_8" d="M122.1 0.976881C124.955 2.05345 125.094 2.67148 125.613 4.96417C127.709 0.299042 123.378 0.199359 119.546 0.119614C118.209 0.199359 116.432 0.318978 115.095 0.398724L113.818 0.518343C115.774 0.378788 119.845 0.119614 122.1 0.956945V0.976881Z" fill="white"/>
<path id="Vector_9" d="M122.779 250.96C123.258 250.96 123.737 250.98 124.216 250.98H124.416C124.416 250.98 124.575 250.98 124.655 250.98C125.194 250.98 125.733 250.98 126.272 250.98C126.731 250.98 127.19 250.98 127.589 250.98C127.609 250.98 127.629 250.98 127.669 250.98C118.149 250.821 -18.3485 199.145 3.70584 94.1798C3.70584 94.1798 3.70584 94.1798 3.70584 94.1998C2.94741 97.1504 2.20894 101.138 1.57026 104.128C0.951546 107.936 0.45258 113.08 0.0334482 116.927C-2.22188 211.087 110.285 249.764 122.779 250.98V250.96Z" fill="white"/>
<path id="Vector_10" d="M102.202 2.19301C101.942 2.25281 101.683 2.29269 101.423 2.3525C116.772 -0.279116 123.198 3.50881 125.613 4.96417C121.262 0.179423 113.698 0.279105 102.202 2.19301Z" fill="white"/>
<path id="Vector_11" d="M15.9606 63.8365C-39.4846 170.596 115.814 245.996 134.395 250.681C134.515 250.681 134.655 250.681 134.774 250.661L135.593 250.601C135.712 250.601 135.852 250.581 135.992 250.561C136.95 250.482 138.068 250.362 139.026 250.262C139.145 250.262 139.265 250.242 139.385 250.222C117.39 233.516 90.6259 224.425 69.4098 206.462C59.0313 197.67 34.7217 177.076 20.5111 149.543C-7.90999 94.4589 17.3976 59.3309 29.7919 44.1991C29.3528 44.6975 28.9337 45.196 28.5146 45.6944L26.4189 48.1864C23.1257 52.712 18.9943 58.8724 16.0404 63.6571C16.0005 63.7169 15.9805 63.7767 15.9406 63.8365H15.9606Z" fill="white"/>
<path id="Vector_12" d="M96.5335 3.3892C96.5335 3.3892 96.6931 3.34932 96.753 3.32939C96.5534 3.36926 96.3339 3.40913 96.1543 3.46894C94.7771 3.76799 92.9609 4.2664 91.5837 4.64519C88.7696 5.42272 85.0373 6.57903 82.3229 7.59579C80.6464 8.23376 78.431 9.07109 76.7744 9.76886C74.7985 10.6062 72.2039 11.8223 70.2679 12.7195C68.272 13.6565 65.6774 15.0122 63.8013 16.1286C61.5659 17.4245 58.8316 19.1191 56.3767 20.694C31.2886 37.9391 11.4697 65.6109 14.204 96.8314C20.6706 170.437 104.138 220.936 135.553 239.955C142.804 244.341 146.643 247.391 147.069 249.106C147.069 249.106 147.208 249.086 147.268 249.066C148.985 248.747 151.16 248.289 152.877 247.93C152.937 247.93 152.996 247.91 153.056 247.89C153.675 247.691 154.114 246.793 154.533 246.315C153.116 243.564 150.302 241.59 135.193 231.701C96.3139 206.263 57.195 177.016 34.3822 135.548C-17.131 41.9662 82.8019 -6.43948 125.613 4.96418C117.31 1.75441 107.211 1.39555 96.5335 3.3892Z" fill="white"/>
<path id="Vector_13" d="M139.983 221.235C163.634 237.922 169.283 241.909 161.798 245.597C161.878 245.577 161.958 245.557 162.038 245.517C163.175 245.159 164.493 244.72 165.79 244.301C166.668 244.002 167.526 243.703 168.405 243.384C179.003 238.46 169.762 231.682 147.707 215.453C123.318 197.51 92.9409 175.182 67.1743 142.526C-8.88816 46.113 72.2837 -1.59492 125.613 4.96418C65.0187 -8.15401 -65.3512 76.2968 139.983 221.235Z" fill="white"/>
<path id="Vector_14" d="M153.895 202.455C181.478 223.587 191.816 231.502 178.124 239.377C178.224 239.317 178.344 239.277 178.444 239.238C180.739 238.141 183.593 236.646 185.789 235.509C196.466 229.269 192.195 222.032 186.008 215.154C160.062 186.326 125.593 167.247 99.0284 139.137C13.4856 48.6848 70.8667 3.70819 125.613 4.96418C69.8289 -0.119612 -29.8047 61.7432 153.895 202.455Z" fill="white"/>
<path id="Vector_15" d="M175.211 184.99C201.496 206.023 210.857 217.327 196.826 228.691C199.221 226.997 202.275 224.624 204.65 222.79C205.867 221.793 207.105 220.717 208.322 219.68C219.239 209.712 213.112 204.309 139.744 139.775C33.4044 46.2127 81.3251 13.178 115.993 6.27998C84.5584 12.1413 -3.08001 42.2852 175.211 184.99Z" fill="white"/>
<path id="Vector_16" d="M124.216 5.0838C121.622 5.32304 118.847 5.72177 115.993 6.27999C119.686 5.60215 122.599 5.24329 124.216 5.0838Z" fill="white"/>
<path id="Vector_17" d="M125.613 4.96417C125.613 4.96417 125.034 5.00405 124.216 5.08379C124.695 5.04392 125.154 5.00405 125.613 4.96417Z" fill="white"/>
<path id="Vector_18" d="M170.301 143.802C213.89 178.85 230.257 194.879 216.066 212.283C216.166 212.184 216.246 212.084 216.345 211.984C218.581 209.592 221.255 206.422 223.351 204.01C223.391 203.95 223.431 203.91 223.491 203.85C235.905 187.602 224.049 170.497 172.855 130.783C39.3321 27.1335 110.086 7.79515 125.613 4.96417C114.297 6.3996 19.3535 22.4484 170.301 143.802Z" fill="white"/>
<path id="Vector_19" d="M179.322 115.751C228.66 152.554 242.232 171.374 232.991 190.194C233.37 189.576 233.729 188.958 234.088 188.34L234.428 187.742C234.687 187.303 234.907 186.904 235.146 186.486L237.96 181.063C238.3 180.365 238.639 179.667 238.958 179.009C249.976 153.79 208.242 123.447 180.539 103.311C90.3263 37.7796 100.884 13.6565 125.613 4.96417C104.497 10.4666 67.4537 32.2771 179.322 115.751Z" fill="white"/>
<path id="Vector_20" d="M181.737 87.1821C224.808 117.486 250.614 137.761 245.245 163.06C245.505 162.203 245.764 161.346 246.004 160.508C246.862 157.358 247.72 153.81 248.419 150.979C252.111 125.779 226.065 106.56 183.274 77.3136C154.992 57.9952 102.361 22.0099 125.613 4.98412C89.1489 22.0497 158.844 71.0934 181.737 87.2021V87.1821Z" fill="white"/>
<path id="Vector_21" d="M184.891 64.8932C233.43 96.333 249.916 110.607 250.794 132.278C250.814 131.86 250.854 131.421 250.874 131.002L251.033 125.719L250.914 120.596C250.894 119.998 250.854 119.439 250.834 118.841C248.978 96.1137 218.641 77.3734 180.3 53.7088C153.336 37.0619 122.759 18.182 125.633 4.98412C112.999 18.3216 156.27 46.3523 184.91 64.9131L184.891 64.8932Z" fill="white"/>
<path id="Vector_22" d="M181.757 44.8172C226.464 70.1763 243.289 82.4771 248.638 101.058C247.96 97.8481 246.882 93.7811 245.964 90.3321C245.764 89.6144 245.545 88.9166 245.345 88.1989C238.08 69.3191 213.711 55.7623 171.438 33.5531C141.54 17.8431 131.701 11.7027 125.613 4.98412C129.086 14.9723 151.18 27.4924 181.757 44.8371V44.8172Z" fill="white"/>
<path id="Vector_23" d="M238.939 71.831C238.759 71.4523 238.579 71.0735 238.4 70.6947L235.865 65.6707L234.148 62.6802C233.829 62.1419 233.51 61.5837 233.19 61.0454C227.422 52.1139 217.004 45.4551 202.095 37.64C177.466 24.7611 151.021 16.0887 125.633 4.96417C133.557 9.98816 148.107 16.6868 166.529 25.1399C215.407 47.5684 230.496 57.2774 238.959 71.831H238.939Z" fill="white"/>
<path id="Vector_24" d="M223.71 47.4089C223.471 47.1298 223.271 46.8507 223.012 46.5516C222.852 46.3722 222.712 46.1928 222.552 45.9934C222.373 45.7741 222.173 45.5349 221.974 45.3156C220.117 43.1624 218.042 40.8498 216.385 38.9758C205.448 27.7914 174.911 16.3479 125.613 4.94424C200.398 27.3329 214.868 37.8394 223.71 47.389V47.4089Z" fill="white"/>
<path id="Vector_25" d="M203.193 27.0338C201.356 25.6383 199.361 24.163 197.664 22.887C197.305 22.6478 196.966 22.4086 196.606 22.1693C184.751 14.6932 160.88 8.89165 125.633 4.96417C147.568 8.21381 186.787 15.5504 204.769 28.3098C204.23 27.8712 203.731 27.4525 203.213 27.0338H203.193Z" fill="white"/>
<path id="Vector_26" d="M153.436 4.94425C156.37 5.34298 159.244 5.86132 162.078 6.51923C167.107 7.35656 167.726 7.55592 171.558 8.79198C171.458 8.75211 171.319 8.6923 171.219 8.65243C169.303 7.89484 166.708 7.01764 164.752 6.31986H164.712C160.122 4.84456 154.713 4.62526 148.446 4.38603C148.725 4.40596 149.025 4.44583 149.304 4.46577C146.111 4.16672 142.858 4.00723 139.564 4.00723C134.495 4.24647 133.816 4.30628 125.633 4.96418C138.646 4.4259 144.554 4.52558 153.456 4.94425H153.436ZM151.021 4.62526C151.6 4.68507 152.178 4.76482 152.757 4.82463C152.178 4.74488 151.6 4.68507 151.021 4.62526Z" fill="white"/>
</g>
</svg>
