<svg width="233" height="224" viewBox="0 0 233 224" fill="none" xmlns="http://www.w3.org/2000/svg">
<g id="square" opacity="0.9">
<path id="Vector" d="M6.13207 12.6576C7.2992 9.78508 6.52111 6.2454 4.46474 4.9852C3.00119 4.07711 1.27829 4.61455 0 6.07861V15.6042C0 15.6042 0.129681 15.6969 0.203785 15.734C2.26016 16.883 4.96494 15.5301 6.13207 12.6576Z" fill="white"/>
<path id="Vector_2" d="M24.695 3.00224C26.807 4.67016 29.1783 3.66941 29.66 0.815424C29.697 0.555971 29.7156 0.277986 29.7341 0H22.6387C23.1203 1.22314 23.8243 2.29801 24.7136 3.00224H24.695Z" fill="white"/>
<path id="Vector_3" d="M22.268 23.184C23.4537 20.5895 22.6385 17.1424 20.5266 15.6598C18.4146 14.1773 15.8025 15.3263 14.6168 18.0505C13.4312 20.7748 14.1166 24.055 16.2286 25.3893C18.3405 26.7422 21.0823 25.76 22.268 23.1655V23.184Z" fill="white"/>
<path id="Vector_4" d="M5.72456 46.1085C7.83651 47.1278 10.7451 45.8305 12.1716 43.1804C13.5981 40.5488 13.0052 37.4539 10.8933 36.2678C8.78133 35.1003 5.94687 36.4161 4.52038 39.2145C3.09389 42.0129 3.61261 45.0892 5.72456 46.1085Z" fill="white"/>
<path id="Vector_5" d="M0 57.3391V65.0115C0.370518 64.5853 0.703984 64.1035 1.0004 63.5846C2.38984 61.0271 1.92669 58.3028 0 57.3577V57.3391Z" fill="white"/>
<path id="Vector_6" d="M41.1274 16.29C43.2764 18.0505 45.6848 17.3648 46.222 14.7888C46.7593 12.2128 45.166 8.63609 42.9985 6.74579C40.8125 4.83695 38.9043 5.44852 38.3856 8.15425C37.8854 10.86 38.9599 14.5294 41.1274 16.3085V16.29Z" fill="white"/>
<path id="Vector_7" d="M36.922 27.5206C34.773 25.9453 32.1238 26.7422 30.9381 29.1885C29.7525 31.6162 30.4565 34.7297 32.5869 36.1566C34.7174 37.5836 37.4778 36.9165 38.682 34.637C39.8861 32.3575 39.0525 29.1143 36.922 27.5391V27.5206Z" fill="white"/>
<path id="Vector_8" d="M22.1013 54.2072C24.2503 55.2821 27.1589 54.2998 28.5854 52.0204C30.0119 49.7409 29.382 46.8869 27.2515 45.6452C25.121 44.4036 22.268 45.3672 20.8415 47.8135C19.4151 50.2598 19.9708 53.1323 22.1013 54.2072Z" fill="white"/>
<path id="Vector_9" d="M9.68911 66.7536C8.26261 69.2369 8.87397 71.8129 11.023 72.5357C13.172 73.2584 16.0435 71.9612 17.47 69.6632C18.8965 67.3652 18.3407 64.7706 16.1917 63.8811C14.0427 62.9915 11.1341 64.2888 9.68911 66.7536Z" fill="white"/>
<path id="Vector_10" d="M7.33625 87.4357C8.50338 85.1192 7.78087 82.8026 5.61334 82.2652C3.70518 81.7833 1.33386 82.9509 0 84.9339V90.2712C0.370518 90.5862 0.85219 90.8271 1.40797 90.9198C3.5755 91.309 6.16912 89.7523 7.33625 87.4357Z" fill="white"/>
<path id="Vector_11" d="M0 102.169V105.894C0.0926294 105.672 0.185259 105.449 0.240836 105.208C0.555776 104.078 0.444621 103.003 0 102.169Z" fill="white"/>
<path id="Vector_12" d="M59.8387 11.8978C62.0803 13.8622 63.7106 13.6028 63.1178 11.3603C62.5249 9.11792 60.2092 5.78209 57.8749 3.79913C55.5407 1.81617 54.1512 1.85323 54.8367 4.15124C55.5221 6.44926 57.597 9.95188 59.8387 11.9163V11.8978Z" fill="white"/>
<path id="Vector_13" d="M57.7082 29.7815C59.8757 31.505 62.3026 31.0047 62.8954 28.7252C63.4883 26.4457 61.9691 23.1284 59.7831 21.2752C57.597 19.4219 55.5962 19.8296 55.0219 22.2388C54.4662 24.6481 55.5407 28.058 57.6897 29.7815H57.7082Z" fill="white"/>
<path id="Vector_14" d="M55.207 45.9973C56.4297 44.0144 55.6146 41.1048 53.4656 39.5666C51.3166 38.0284 48.6303 38.5844 47.4261 40.6971C46.2034 42.8283 46.9259 45.6452 49.075 47.0537C51.224 48.4436 53.9843 47.9988 55.207 46.0159V45.9973Z" fill="white"/>
<path id="Vector_15" d="M45.0363 60.8418C46.4628 58.9144 45.8329 56.394 43.7025 55.1709C41.5535 53.9477 38.7005 54.652 37.274 56.7276C35.8475 58.8217 36.4218 61.3792 38.5708 62.4356C40.7198 63.4919 43.6284 62.7506 45.0363 60.8232V60.8418Z" fill="white"/>
<path id="Vector_16" d="M27.5664 78.0398C29.7154 78.744 32.5869 77.7062 33.9949 75.7418C35.4029 73.7959 34.8471 71.535 32.6981 70.6639C30.5491 69.7929 27.6405 70.7937 26.214 72.9249C24.7875 75.0376 25.4174 77.3356 27.5664 78.0398Z" fill="white"/>
<path id="Vector_17" d="M23.9539 90.9383C25.1025 88.9368 24.38 86.9168 22.2125 86.3979C20.0449 85.879 17.2846 87.1763 16.1174 89.326C14.9503 91.4758 15.8581 93.5329 18.0256 93.9035C20.1931 94.2742 22.7868 92.9398 23.9539 90.9383Z" fill="white"/>
<path id="Vector_18" d="M16.8955 106.561C17.5254 104.485 16.4324 102.651 14.2648 102.41C12.0973 102.169 9.68894 103.744 9.05906 105.931C8.42918 108.118 9.8001 109.99 11.9676 110.119C14.1352 110.249 16.2656 108.637 16.8955 106.561Z" fill="white"/>
<path id="Vector_19" d="M14.8207 122.833C14.7466 120.738 13.0052 118.922 10.8376 118.885C8.6701 118.848 6.92867 120.683 7.00277 122.833C7.05835 124.778 8.65157 126.446 10.8191 126.446C12.9681 126.446 14.8948 124.778 14.8207 122.833Z" fill="white"/>
<path id="Vector_20" d="M5.4836 138.066C5.11308 140.031 6.46547 141.513 8.59595 141.383C10.7079 141.272 12.8198 139.66 13.2089 137.77C13.5979 135.879 12.1159 134.36 9.98539 134.415C7.83639 134.471 5.87264 136.102 5.50212 138.066H5.4836Z" fill="white"/>
<path id="Vector_21" d="M4.37223 155.69C6.41008 155.357 8.5776 153.67 9.18896 151.891C9.80031 150.112 8.59613 148.815 6.52123 149.037C4.44633 149.26 2.31586 150.983 1.76008 152.874C1.18578 154.764 2.35291 156.024 4.37223 155.69Z" fill="white"/>
<path id="Vector_22" d="M4.13127 165.198C4.7982 163.511 3.74223 162.51 1.77848 162.992C1.18566 163.14 0.574302 163.418 0 163.771V169.108C1.75996 168.348 3.51992 166.717 4.13127 165.179V165.198Z" fill="white"/>
<path id="Vector_23" d="M3.96454 216.94C2.79741 215.661 1.31534 215.179 0 215.55V223H4.27948C4.27948 223 4.27948 223 4.298 222.981C5.81713 221.462 5.59482 218.738 3.94601 216.94H3.96454Z" fill="white"/>
<path id="Vector_24" d="M74.2147 9.28472C76.8084 11.1194 78.3089 10.4708 77.3641 7.8392C76.4378 5.24467 73.4737 1.76058 70.843 0.0185394H67.5454C67.5454 0.389187 67.6566 0.852496 67.8789 1.427C68.8607 3.9474 71.6211 7.48708 74.2147 9.30326V9.28472Z" fill="white"/>
<path id="Vector_25" d="M78.0125 26.9831C80.4579 28.8734 82.3846 28.651 81.9956 26.5198C81.588 24.3886 79.2167 20.9972 76.6972 19.0883C74.1591 17.1795 72.4918 17.4019 72.992 19.5702C73.4922 21.757 75.5856 25.0928 78.031 26.9831H78.0125Z" fill="white"/>
<path id="Vector_26" d="M75.0669 43.0136C77.4011 44.6815 80.0318 44.3665 80.6988 42.3465C81.3657 40.345 79.791 37.3057 77.4197 35.508C75.0484 33.7104 72.8253 33.9513 72.1954 36.0825C71.5655 38.2137 72.7326 41.3457 75.0484 43.0136H75.0669Z" fill="white"/>
<path id="Vector_27" d="M72.6585 57.1353C73.9368 55.4488 73.0105 52.8543 70.7133 51.3717C68.3975 49.8891 65.6001 50.2042 64.3404 52.0204C63.0991 53.8365 63.8958 56.394 66.1744 57.7283C68.4531 59.0627 71.3802 58.8032 72.6585 57.1168V57.1353Z" fill="white"/>
<path id="Vector_28" d="M60.7277 64.5112C58.4676 63.3436 55.5034 63.7699 54.0769 65.5119C52.6504 67.254 53.2988 69.5149 55.5405 70.5342C57.8006 71.5535 60.8204 71.0531 62.2654 69.4593C63.7104 67.8655 63.0064 65.6787 60.7277 64.5112Z" fill="white"/>
<path id="Vector_29" d="M44.462 83.4142C46.7037 84.0814 49.6307 83.2845 51.0572 81.6721C52.4837 80.0598 51.8539 78.1325 49.6122 77.2985C47.3706 76.4646 44.3879 77.1873 42.9614 78.9479C41.5349 80.7085 42.2204 82.7285 44.462 83.3957V83.4142Z" fill="white"/>
<path id="Vector_30" d="M34.8841 96.776C37.1072 97.1281 39.7564 95.9977 40.9236 94.3112C42.0907 92.6248 41.3126 90.8827 39.0895 90.3824C36.8664 89.882 34.0505 90.9383 32.8833 92.773C31.7162 94.6077 32.661 96.4239 34.8841 96.776Z" fill="white"/>
<path id="Vector_31" d="M33.7356 107.877C34.4026 106.024 33.2725 104.411 31.0679 104.189C28.8633 103.967 26.4179 105.338 25.7695 107.284C25.1211 109.23 26.5105 110.935 28.6966 111.046C30.8827 111.157 33.0502 109.712 33.7171 107.858L33.7356 107.877Z" fill="white"/>
<path id="Vector_32" d="M31.42 122.833C31.3644 120.831 29.66 119.145 27.4925 119.108C25.325 119.089 23.528 120.775 23.6021 122.833C23.6576 124.778 25.2509 126.409 27.3999 126.409C29.5489 126.409 31.4756 124.797 31.42 122.833Z" fill="white"/>
<path id="Vector_33" d="M24.8432 140.512C26.9552 140.401 29.1227 138.937 29.5673 137.195C30.0119 135.453 28.5669 134.026 26.4179 134.063C24.2689 134.1 22.2681 135.657 21.842 137.473C21.4159 139.289 22.7127 140.624 24.8432 140.512Z" fill="white"/>
<path id="Vector_34" d="M24.9915 149.797C25.6955 148.259 24.5654 147.147 22.4905 147.369C20.4156 147.592 18.2296 149.149 17.5626 150.798C16.8957 152.447 17.9702 153.504 20.0081 153.17C22.0459 152.836 24.3061 151.354 25.0101 149.816L24.9915 149.797Z" fill="white"/>
<path id="Vector_35" d="M19.1002 161.028C19.8783 159.638 18.9335 158.878 16.9512 159.341C14.969 159.823 12.7829 161.473 12.0419 162.992C11.3194 164.512 12.2827 165.235 14.2094 164.623C16.1361 164.011 18.3222 162.418 19.1002 161.028Z" fill="white"/>
<path id="Vector_36" d="M8.94801 175.242C10.745 174.315 12.6902 172.555 13.3757 171.276C14.0426 169.997 13.1349 169.553 11.2823 170.331C9.42968 171.109 7.39183 172.907 6.76195 174.334C6.1506 175.761 7.151 176.169 8.94801 175.242Z" fill="white"/>
<path id="Vector_37" d="M6.8547 180.616C5.13179 181.691 3.3533 183.489 3.07542 185.027C2.79753 186.565 3.94613 186.862 5.61346 185.657C7.28079 184.434 8.89254 182.284 9.24453 180.913C9.59653 179.523 8.59613 179.542 6.87322 180.616H6.8547Z" fill="white"/>
<path id="Vector_38" d="M6.39145 197.907C7.94763 196.443 8.70719 193.978 8.37372 192.403C8.04026 190.846 6.70639 190.698 5.09464 192.069C3.50142 193.422 2.27871 195.869 2.66775 197.518C3.03827 199.186 4.8538 199.353 6.40998 197.907H6.39145Z" fill="white"/>
<path id="Vector_39" d="M16.0434 211.232C17.5625 209.712 17.3402 206.988 15.6914 205.19C14.0426 203.393 11.7825 203.245 10.2633 204.764C8.7257 206.284 8.52191 208.934 10.1707 210.732C11.8195 212.529 14.5243 212.77 16.0434 211.25V211.232Z" fill="white"/>
<path id="Vector_40" d="M21.8236 219.831C21.0455 220.572 20.6009 221.721 20.4712 223H27.0664C26.9738 222.537 26.8441 222.073 26.6774 221.629C25.6214 219.053 23.3612 218.348 21.8236 219.831Z" fill="white"/>
<path id="Vector_41" d="M88.9057 0H86.5344C87.6275 0.481842 88.4426 0.444777 88.9057 0Z" fill="white"/>
<path id="Vector_42" d="M97.4461 19.4219C96.5939 16.605 93.6668 13.2506 91.0361 11.8978C88.424 10.5449 87.1272 11.6383 88.0164 14.3811C88.9057 17.1054 91.5919 20.5153 94.167 21.9423C96.7421 23.3693 98.2797 22.2388 97.4276 19.4219H97.4461Z" fill="white"/>
<path id="Vector_43" d="M96.2049 32.3205C93.6668 30.8379 91.8698 31.468 92.1663 33.5621C92.4627 35.6563 94.4449 38.6029 96.8904 40.0855C99.3358 41.5681 101.392 41.0492 101.188 38.9736C100.985 36.898 98.7244 33.803 96.2049 32.3205Z" fill="white"/>
<path id="Vector_44" d="M95.7231 47.9618C93.3518 46.5533 91.0175 46.8684 90.295 48.7401C89.5725 50.6119 90.7026 53.262 93.0368 54.5778C95.3711 55.8936 98.0388 55.4674 98.7984 53.6883C99.558 51.9092 98.0944 49.3888 95.7231 47.9803V47.9618Z" fill="white"/>
<path id="Vector_45" d="M82.0325 62.3429C80.7357 63.8811 81.5138 65.9938 83.811 67.0501C86.1082 68.1065 89.0353 67.7914 90.3691 66.3459C91.6845 64.9189 90.8323 62.8247 88.5166 61.6572C86.2008 60.4897 83.3478 60.7862 82.051 62.3429H82.0325Z" fill="white"/>
<path id="Vector_46" d="M72.9179 77.5209C75.178 78.2993 78.2163 77.836 79.6798 76.5572C81.1433 75.2785 80.4764 73.555 78.2163 72.6469C75.9376 71.7388 72.9549 72.0724 71.4914 73.4994C70.0278 74.9078 70.6762 76.7611 72.9364 77.5394L72.9179 77.5209Z" fill="white"/>
<path id="Vector_47" d="M61.6726 87.9732C63.9143 88.4735 66.8599 87.7508 68.3049 86.4535C69.7499 85.1377 69.1386 83.6366 66.8969 83.0065C64.6553 82.3764 61.6356 82.9694 60.1906 84.3964C58.7455 85.8419 59.431 87.4728 61.6726 87.9732Z" fill="white"/>
<path id="Vector_48" d="M58.0044 96.9428C59.1901 95.4973 58.4305 94.1259 56.2074 93.7552C53.9843 93.3846 51.1313 94.2927 49.9642 95.8309C48.7786 97.3876 49.7049 98.9072 51.928 99.1482C54.1511 99.4076 56.8188 98.3698 58.0044 96.9243V96.9428Z" fill="white"/>
<path id="Vector_49" d="M50.6312 108.804C51.3167 107.136 50.2237 105.746 48.0191 105.597C45.8145 105.449 43.3506 106.691 42.6651 108.433C41.9982 110.175 43.3506 111.713 45.5366 111.769C47.7227 111.843 49.9273 110.471 50.6127 108.804H50.6312Z" fill="white"/>
<path id="Vector_50" d="M48.0191 122.833C48.0006 120.85 46.3518 119.293 44.1843 119.274C42.0168 119.274 40.1642 120.85 40.2012 122.833C40.2383 124.797 41.8315 126.354 43.9805 126.354C46.1295 126.354 48.0377 124.797 48.0191 122.833Z" fill="white"/>
<path id="Vector_51" d="M45.9442 136.584C46.4444 134.99 45.0364 133.655 42.8874 133.693C40.7384 133.748 38.7005 135.194 38.2189 136.862C37.7372 138.529 38.997 139.734 41.1089 139.623C43.2209 139.512 45.4254 138.196 45.9442 136.584Z" fill="white"/>
<path id="Vector_52" d="M35.5883 150.594C37.6261 150.26 39.9604 148.982 40.7755 147.684C41.5907 146.387 40.5161 145.442 38.4227 145.664C36.3478 145.887 34.0877 147.258 33.3281 148.667C32.5685 150.075 33.5504 150.909 35.5883 150.576V150.594Z" fill="white"/>
<path id="Vector_53" d="M34.069 156.839C34.9767 155.746 34.106 155.209 32.1238 155.672C30.1415 156.154 27.8628 157.562 27.0106 158.804C26.1584 160.046 27.0291 160.509 28.9558 159.897C30.8825 159.286 33.1612 157.933 34.069 156.839Z" fill="white"/>
<path id="Vector_54" d="M22.7312 168.181C24.5282 167.255 26.5846 165.735 27.3812 164.753C28.1778 163.771 27.3812 163.585 25.5101 164.364C23.6575 165.142 21.5085 166.699 20.7675 167.811C20.0264 168.941 20.9342 169.089 22.7312 168.163V168.181Z" fill="white"/>
<path id="Vector_55" d="M20.1376 172.351C18.4147 173.426 16.5436 175.057 16.136 176.261C15.7284 177.466 16.7659 177.522 18.4332 176.298C20.1006 175.075 21.8235 173.185 22.2866 172.129C22.7683 171.072 21.8605 171.276 20.1191 172.351H20.1376Z" fill="white"/>
<path id="Vector_56" d="M20.4897 181.562C20.2489 180.209 19.0077 180.264 17.3959 181.617C15.7842 182.97 14.4873 185.212 14.7652 186.658C15.0431 188.104 16.7846 188.159 18.3407 186.714C19.8969 185.25 20.712 182.914 20.4712 181.562H20.4897Z" fill="white"/>
<path id="Vector_57" d="M27.7702 199.501C29.2893 197.981 29.067 195.239 27.4182 193.459C25.7694 191.68 23.5463 191.588 22.0087 193.107C20.471 194.627 20.2487 197.221 21.879 199.001C23.5278 200.78 26.2326 201.039 27.7517 199.519L27.7702 199.501Z" fill="white"/>
<path id="Vector_58" d="M33.6616 208.378C32.124 209.861 31.9017 213.048 32.9947 215.698C34.0877 218.367 36.107 219.572 37.7003 218.163C39.275 216.755 39.7752 213.178 38.6451 210.435C37.515 207.692 35.2178 206.895 33.6802 208.378H33.6616Z" fill="white"/>
<path id="Vector_59" d="M99.2803 0.333583C100.633 3.57675 103.708 6.83844 106.209 7.54267C108.71 8.2469 109.692 6.04155 108.339 2.74279C107.95 1.79764 107.413 0.871021 106.783 0H99.1321C99.1691 0.111194 99.2062 0.222388 99.2618 0.333583H99.2803Z" fill="white"/>
<path id="Vector_60" d="M107.821 23.9438C108.636 26.8163 111.192 29.8557 113.656 30.6525C116.12 31.4494 117.602 29.6889 116.806 26.7793C116.009 23.8697 113.23 20.9416 110.729 20.1818C108.228 19.4219 106.987 21.0898 107.802 23.9624L107.821 23.9438Z" fill="white"/>
<path id="Vector_61" d="M115.361 41.3272C112.934 40.5118 111.1 41.7164 111.192 43.792C111.285 45.8676 113.082 48.2954 115.435 49.1108C117.788 49.9447 119.881 48.8513 119.881 46.7572C119.881 44.663 117.788 42.1426 115.361 41.3272Z" fill="white"/>
<path id="Vector_62" d="M116.454 61.0086C117.306 59.3777 116.009 57.4689 113.712 56.6535C111.415 55.838 109.043 56.4681 108.228 58.1546C107.413 59.841 108.451 61.8981 110.711 62.6579C112.971 63.4178 115.602 62.6394 116.454 61.0086Z" fill="white"/>
<path id="Vector_63" d="M99.5951 69.9597C98.2427 71.294 98.9652 72.8878 101.188 73.4808C103.411 74.0739 106.32 73.4994 107.672 72.2206C109.043 70.9419 108.284 69.4408 106.042 68.7736C103.8 68.1065 100.947 68.6068 99.5951 69.9412V69.9597Z" fill="white"/>
<path id="Vector_64" d="M95.4638 78.1881C93.2592 77.6877 90.258 78.1139 88.7759 79.2815C87.2938 80.449 87.8867 81.8019 90.0913 82.2281C92.2958 82.6544 95.297 82.0243 96.7791 80.9494C98.2612 79.8745 97.6683 78.6884 95.4638 78.1695V78.1881Z" fill="white"/>
<path id="Vector_65" d="M78.735 90.8827C80.9396 91.1237 83.8482 90.3268 85.3117 89.2334C86.7753 88.1399 86.2195 87.0836 84.0149 86.75C81.8103 86.435 78.8091 87.028 77.3456 88.2141C75.882 89.4001 76.5304 90.6418 78.735 90.8827Z" fill="white"/>
<path id="Vector_66" d="M74.9372 98.2216C76.1414 96.9614 75.4189 95.905 73.2143 95.7567C71.0097 95.6085 68.1752 96.4795 66.9896 97.8138C65.8039 99.1482 66.6932 100.39 68.8792 100.464C71.0653 100.538 73.733 99.4818 74.9372 98.2216Z" fill="white"/>
<path id="Vector_67" d="M62.3582 112.028C64.5443 112.028 66.7489 110.638 67.4528 109.063C68.1568 107.488 67.1009 106.302 64.9148 106.283C62.7287 106.265 60.2463 107.451 59.5423 109.044C58.8383 110.657 60.1722 112.047 62.3582 112.028Z" fill="white"/>
<path id="Vector_68" d="M60.8575 119.293C58.6899 119.293 56.8003 120.85 56.8003 122.833C56.8003 124.816 58.412 126.317 60.5796 126.317C62.7286 126.317 64.6367 124.816 64.6182 122.833C64.6182 120.813 63.0065 119.274 60.8389 119.293H60.8575Z" fill="white"/>
<path id="Vector_69" d="M57.3933 138.733C59.5052 138.622 61.7654 137.436 62.3397 135.972C62.8954 134.508 61.5245 133.266 59.3755 133.322C57.2265 133.377 55.1516 134.73 54.6144 136.269C54.0771 137.788 55.2813 138.845 57.3933 138.733Z" fill="white"/>
<path id="Vector_70" d="M51.2054 148.037C53.2433 147.703 55.6702 146.647 56.5594 145.572C57.4672 144.515 56.4483 143.756 54.3734 143.978C52.2985 144.2 49.9642 145.386 49.112 146.572C48.2598 147.759 49.1676 148.37 51.2054 148.037Z" fill="white"/>
<path id="Vector_71" d="M43.7025 155.19C45.6292 154.578 48.0005 153.467 49.038 152.67C50.0569 151.873 49.2788 151.558 47.3151 152.04C45.3328 152.521 42.9615 153.707 41.9981 154.653C41.0348 155.598 41.8129 155.82 43.721 155.209L43.7025 155.19Z" fill="white"/>
<path id="Vector_72" d="M41.4054 158.266C42.3317 157.599 41.6092 157.655 39.7566 158.433C37.904 159.212 35.6624 160.509 34.7917 161.324C33.921 162.14 34.7176 162.047 36.5146 161.139C38.3116 160.212 40.4606 158.934 41.3869 158.266H41.4054Z" fill="white"/>
<path id="Vector_73" d="M31.2718 166.977C32.9391 165.753 34.7732 164.104 35.366 163.381C35.9589 162.659 35.1437 163.029 33.4208 164.104C31.6979 165.179 29.7527 166.625 29.1969 167.514C28.6597 168.385 29.5859 168.2 31.2533 166.977H31.2718Z" fill="white"/>
<path id="Vector_74" d="M32.624 170.72C32.4758 169.571 31.3272 169.831 29.7339 171.184C28.1222 172.536 26.7327 174.575 26.918 175.835C27.1033 177.095 28.7891 177.003 30.3453 175.539C31.9015 174.075 32.7722 171.869 32.6425 170.72H32.624Z" fill="white"/>
<path id="Vector_75" d="M39.1637 181.71C37.5149 179.949 35.3103 179.912 33.7912 181.432C32.2536 182.952 31.9942 185.472 33.643 187.251C35.2918 189.03 37.9966 189.29 39.5157 187.77C41.0348 186.25 40.8125 183.489 39.1637 181.728V181.71Z" fill="white"/>
<path id="Vector_76" d="M45.518 196.925C43.9804 198.408 43.7951 201.688 44.9622 204.523C46.1294 207.359 48.2413 208.73 49.816 207.322C51.3907 205.913 51.7983 202.17 50.5941 199.26C49.3899 196.35 47.0371 195.442 45.4995 196.943L45.518 196.925Z" fill="white"/>
<path id="Vector_77" d="M53.614 221.036C53.0767 221.443 52.6506 222.129 52.3357 223H57.2265C56.2817 220.906 54.8367 220.072 53.614 221.036Z" fill="white"/>
<path id="Vector_78" d="M118.084 4.05859C119.455 7.41295 122.363 10.1928 124.494 10.1001C126.624 10.026 127.273 7.19056 125.92 3.85473C125.328 2.37214 124.42 1.03781 123.438 0H117.473C117.269 1.07488 117.454 2.48334 118.084 4.05859Z" fill="white"/>
<path id="Vector_79" d="M128.977 22.9801C126.865 23.0728 125.735 25.4264 126.513 28.3545C127.291 31.2826 129.681 33.6733 131.775 33.5621C133.887 33.4695 135.017 31.0047 134.239 28.0765C133.461 25.1484 131.071 22.8875 128.959 22.9801H128.977Z" fill="white"/>
<path id="Vector_80" d="M133.275 44.1997C131.145 44.2924 129.385 46.1827 129.292 48.351C129.2 50.5192 130.774 52.2798 132.831 52.1686C134.887 52.0389 136.758 50.2042 136.962 48.0544C137.166 45.9047 135.424 44.1256 133.294 44.2182L133.275 44.1997Z" fill="white"/>
<path id="Vector_81" d="M127.384 65.549C129.348 65.4007 131.7 63.9367 132.59 62.3244C133.479 60.712 132.59 59.5816 130.589 59.7298C128.607 59.8781 126.235 61.1012 125.365 62.7135C124.494 64.3258 125.402 65.7158 127.384 65.549Z" fill="white"/>
<path id="Vector_82" d="M122.678 71.2384C120.678 71.3681 117.88 72.2948 116.509 73.5364C115.12 74.7781 115.75 75.7974 117.788 75.6862C119.825 75.575 122.493 74.5001 123.845 73.2399C125.198 71.9797 124.679 71.1272 122.678 71.2384Z" fill="white"/>
<path id="Vector_83" d="M106.746 83.6737C108.895 83.6366 111.748 82.6914 113.193 81.6722C114.638 80.6343 114.175 79.9486 112.081 80.0228C109.988 80.0784 107.061 80.8382 105.579 81.8389C104.097 82.8397 104.616 83.7107 106.746 83.6737Z" fill="white"/>
<path id="Vector_84" d="M100.707 87.7508C98.5021 87.7508 95.5564 88.5477 94.1114 89.5855C92.6479 90.6233 93.2407 91.4572 95.4823 91.4943C97.724 91.5314 100.614 90.6048 102.041 89.5484C103.467 88.4921 102.911 87.7508 100.707 87.7508Z" fill="white"/>
<path id="Vector_85" d="M91.8884 98.2216C93.074 96.9984 92.2959 96.0718 90.0173 96.0162C87.7386 95.9606 84.9597 96.9614 83.7555 98.1845C82.5513 99.4076 83.4035 100.371 85.7007 100.445C87.9979 100.52 90.7027 99.4447 91.8884 98.2216Z" fill="white"/>
<path id="Vector_86" d="M79.1056 111.769C81.3472 111.824 83.6073 110.434 84.3484 108.859C85.0894 107.284 83.9964 106.116 81.7177 106.042C79.439 105.968 76.9936 107.247 76.2896 108.822C75.5856 110.397 76.8824 111.713 79.1241 111.75L79.1056 111.769Z" fill="white"/>
<path id="Vector_87" d="M81.0321 122.703C81.1247 120.646 79.6241 119.145 77.4751 119.145C75.3261 119.145 73.3994 120.738 73.3994 122.833C73.3994 124.816 75.0112 126.298 77.049 126.187C79.0869 126.076 80.9394 124.575 81.0136 122.721L81.0321 122.703Z" fill="white"/>
<path id="Vector_88" d="M73.4737 137.566C75.3818 137.14 77.5308 135.879 78.1607 134.619C78.7906 133.359 77.6235 132.469 75.6597 132.747C73.696 133.025 71.584 134.286 70.9912 135.657C70.3984 137.047 71.5655 137.992 73.4737 137.566Z" fill="white"/>
<path id="Vector_89" d="M66.6745 145.183C68.5457 144.534 70.917 143.441 71.8803 142.607C72.8437 141.773 72.047 141.439 70.1574 141.995C68.2863 142.551 65.8594 143.533 64.9146 144.478C63.9698 145.424 64.8034 145.85 66.6745 145.201V145.183Z" fill="white"/>
<path id="Vector_90" d="M62.3952 148.111C60.5241 148.871 58.0416 149.816 56.9486 150.464C55.8556 151.113 56.5411 151.094 58.4307 150.242C60.3203 149.389 62.7657 148.389 63.8588 147.833C64.9518 147.277 64.2663 147.332 62.3952 148.092V148.111Z" fill="white"/>
<path id="Vector_91" d="M55.8555 151.447C56.263 151.261 56.3001 151.261 55.8555 151.447V151.447Z" fill="white"/>
<path id="Vector_92" d="M55.8556 151.447C55.8556 151.447 55.7815 151.484 55.7444 151.502C54.7626 151.928 52.3913 152.948 50.446 153.967C49.7606 154.319 49.2233 154.597 48.8713 154.782C48.9454 154.745 49.0195 154.708 49.0751 154.69C50.1682 154.134 52.2801 153.17 54.0586 152.299C54.8923 151.891 55.5036 151.613 55.8556 151.447Z" fill="white"/>
<path id="Vector_93" d="M46.9262 155.802C44.9624 156.895 42.9616 158.211 42.2947 158.748C41.6278 159.286 42.4059 158.804 44.3696 157.636C46.3333 156.469 48.5379 155.227 49.2049 154.782C49.5383 154.56 49.4642 154.541 49.0752 154.708C49.0196 154.727 48.9455 154.764 48.8714 154.801C48.4453 155.005 47.7784 155.338 46.9076 155.82L46.9262 155.802Z" fill="white"/>
<path id="Vector_94" d="M45.833 160.268C45.7774 159.323 44.3324 159.49 42.3501 160.75C40.3864 162.01 38.9414 163.919 39.034 164.957C39.1266 165.994 40.6828 165.716 42.628 164.345C44.5732 162.974 45.8886 161.195 45.833 160.249V160.268Z" fill="white"/>
<path id="Vector_95" d="M51.7428 170.053C50.1681 168.404 47.6856 168.218 45.8145 169.701C43.9434 171.202 43.7211 173.741 45.3513 175.483C47.0001 177.244 49.6493 177.466 51.4278 175.909C53.2063 174.353 53.2989 171.702 51.7242 170.034L51.7428 170.053Z" fill="white"/>
<path id="Vector_96" d="M62.0987 196.554C63.8402 195.294 64.4145 191.699 63.1547 188.585C61.8949 185.472 59.2828 184.119 57.5414 185.509C55.7814 186.899 55.6888 190.327 56.9485 193.33C58.1898 196.332 60.3573 197.814 62.0987 196.554Z" fill="white"/>
<path id="Vector_97" d="M71.2135 216.606C70.3613 212.511 68.0826 210.101 66.3041 211.25C64.5256 212.399 63.9698 216.569 64.785 220.572C64.9702 221.462 65.2111 222.277 65.489 223H71.1394C71.621 221.221 71.6951 218.904 71.2135 216.606Z" fill="white"/>
<path id="Vector_98" d="M139.556 7.46854C141.371 6.89404 141.89 3.76207 140.686 0.518906C140.611 0.333583 140.556 0.166791 140.482 0H133.331C133.423 0.796892 133.646 1.64938 133.979 2.5204C135.257 5.81916 137.74 8.06158 139.556 7.46854Z" fill="white"/>
<path id="Vector_99" d="M146.243 30.5043C147.911 29.8371 148.781 26.9831 148.096 24.1291C147.411 21.2752 145.391 19.459 143.668 20.0891C141.945 20.7192 141.204 23.5917 141.945 26.4828C142.686 29.3738 144.576 31.19 146.243 30.5228V30.5043Z" fill="white"/>
<path id="Vector_100" d="M147.633 41.0863C146.003 41.772 144.724 44.2368 144.428 46.3309C144.113 48.4251 145.095 49.537 146.651 48.8143C148.207 48.0915 149.819 45.8491 150.226 43.7735C150.616 41.7164 149.282 40.382 147.651 41.0677L147.633 41.0863Z" fill="white"/>
<path id="Vector_101" d="M140.852 62.2132C142.39 61.5275 144.372 59.6001 145.243 57.9507C146.114 56.3013 145.576 55.5786 144.057 56.2828C142.52 57.0056 140.574 58.8773 139.685 60.4897C138.796 62.1205 139.315 62.8989 140.852 62.1946V62.2132Z" fill="white"/>
<path id="Vector_102" d="M136.462 68.2177C134.85 68.8478 132.516 70.4045 131.237 71.7203C129.959 73.0546 130.348 73.5735 132.034 72.999C133.72 72.4245 136.017 70.9234 137.203 69.5334C138.388 68.1435 138.073 67.5876 136.462 68.2177Z" fill="white"/>
<path id="Vector_103" d="M122.067 81.7277C123.92 81.2644 126.421 79.9116 127.699 78.7626C128.977 77.6136 128.644 77.1873 126.865 77.6877C125.105 78.2066 122.512 79.4297 121.141 80.5231C119.77 81.598 120.214 82.191 122.067 81.7277Z" fill="white"/>
<path id="Vector_104" d="M111.841 90.3082C113.86 89.9747 116.472 88.6774 117.75 87.5284C119.029 86.3794 118.547 85.8419 116.602 86.2311C114.657 86.6203 111.915 87.7322 110.562 88.8442C109.21 89.9376 109.821 90.6604 111.841 90.3268V90.3082Z" fill="white"/>
<path id="Vector_105" d="M102.67 99.7412C104.801 99.5003 107.339 98.1474 108.45 96.8502C109.562 95.5529 108.858 94.8301 106.765 95.1081C104.671 95.3861 101.948 96.5351 100.799 97.7768C99.6506 99.037 100.54 99.9636 102.67 99.7227V99.7412Z" fill="white"/>
<path id="Vector_106" d="M95.89 111.083C98.0205 110.861 100.281 109.304 101.077 107.747C101.855 106.19 100.855 105.208 98.706 105.431C96.557 105.653 94.056 106.95 93.2964 108.526C92.5183 110.082 93.7596 111.305 95.89 111.083Z" fill="white"/>
<path id="Vector_107" d="M96.8348 121.183C97.1312 119.237 95.8159 117.977 93.7225 118.199C91.629 118.44 89.6282 120.108 89.4245 122.091C89.2392 123.796 90.6101 124.853 92.6294 124.556C94.6302 124.26 96.594 122.795 96.8348 121.165V121.183Z" fill="white"/>
<path id="Vector_108" d="M93.0555 131.672C93.741 130.542 92.648 129.856 90.7027 130.208C88.7575 130.579 86.7011 131.913 86.0342 133.081C85.3673 134.248 86.3121 134.767 88.2388 134.36C90.1655 133.952 92.3701 132.803 93.0555 131.672Z" fill="white"/>
<path id="Vector_109" d="M81.3843 140.902C83.3295 140.438 85.7194 139.549 86.6642 138.807C87.609 138.048 86.7568 137.714 84.8301 138.159C82.9034 138.604 80.6062 139.678 79.6429 140.457C78.6795 141.235 79.4391 141.365 81.3843 140.902Z" fill="white"/>
<path id="Vector_110" d="M73.5293 145.257C75.5486 144.793 78.0311 144.108 79.05 143.589C80.0689 143.07 79.2538 142.94 77.2715 143.403C75.2893 143.867 72.8438 144.756 71.7879 145.275C70.7319 145.794 71.51 145.72 73.5293 145.238V145.257Z" fill="white"/>
<path id="Vector_111" d="M69.4536 147.017C67.3787 147.462 64.9147 148.259 63.9699 148.648C63.0251 149.037 63.9699 148.889 66.1004 148.444C68.2309 147.999 70.6578 147.444 71.5655 147.036C72.4733 146.628 71.5285 146.554 69.4536 147.017Z" fill="white"/>
<path id="Vector_112" d="M60.4685 151.65C62.673 151.243 64.9888 150.613 65.6186 150.186C66.23 149.76 65.0073 149.649 62.8398 150.057C60.6722 150.483 58.338 151.28 57.6896 151.687C57.0412 152.095 58.2639 152.058 60.4685 151.65Z" fill="white"/>
<path id="Vector_113" d="M58.7084 157.599C60.9315 157.173 62.5247 156.191 62.4877 155.32C62.4506 154.449 60.7833 154.004 58.5602 154.412C56.3186 154.819 54.3548 155.95 54.3919 156.839C54.4289 157.729 56.4853 158.026 58.7084 157.618V157.599Z" fill="white"/>
<path id="Vector_114" d="M66.4523 168.274C68.5643 167.811 69.0089 165.791 67.6195 164.271C66.2486 162.77 63.6179 161.88 61.4318 162.325C59.2458 162.77 58.3751 164.438 59.8201 165.994C61.2836 167.551 64.3219 168.737 66.4338 168.274H66.4523Z" fill="white"/>
<path id="Vector_115" d="M76.7526 190.439C78.809 190.087 79.5871 187.103 78.3644 183.86C77.1417 180.616 74.3258 178.374 72.2694 178.782C70.1945 179.171 69.6758 182.025 70.917 185.231C72.1582 188.437 74.6963 190.791 76.7526 190.439Z" fill="white"/>
<path id="Vector_116" d="M84.3113 220.609C86.3862 220.257 87.4422 216.625 86.5344 212.492C85.6266 208.359 83.1071 205.283 81.0507 205.617C78.9944 205.969 78.1792 209.601 79.0499 213.734C79.9207 217.867 82.2179 220.943 84.2928 220.609H84.3113Z" fill="white"/>
<path id="Vector_117" d="M152.505 1.55672C153.005 1.2602 153.413 0.70423 153.691 0H148.985C150.078 1.53819 151.412 2.20535 152.505 1.55672Z" fill="white"/>
<path id="Vector_118" d="M155.803 13.6584C154.358 14.6776 153.746 17.7911 154.339 20.608C154.932 23.4249 156.432 24.7963 157.766 23.7214C159.1 22.6466 159.86 19.5887 159.378 16.8459C158.878 14.1031 157.248 12.6576 155.803 13.6769V13.6584Z" fill="white"/>
<path id="Vector_119" d="M158.6 34.0069C157.359 35.1374 156.34 37.9358 155.858 39.9743C155.377 42.0129 155.951 42.7356 157.137 41.5866C158.322 40.4562 159.73 37.8802 160.267 35.8601C160.805 33.8401 159.86 32.8764 158.619 34.0069H158.6Z" fill="white"/>
<path id="Vector_120" d="M151.412 55.3377C152.635 54.2628 154.265 51.9833 155.062 50.2413C155.858 48.4992 155.562 48.0174 154.395 49.1293C153.209 50.2413 151.579 52.5207 150.727 54.2072C149.893 55.8936 150.189 56.4125 151.412 55.3377Z" fill="white"/>
<path id="Vector_121" d="M147.596 61.8425C146.299 62.8433 144.335 64.8077 143.242 66.2903C142.149 67.7729 142.427 68.0509 143.816 67.1242C145.224 66.1976 147.151 64.3814 148.151 62.8247C149.133 61.268 148.892 60.8418 147.596 61.8425Z" fill="white"/>
<path id="Vector_122" d="M135.369 76.9649C136.999 76.2051 139.148 74.5001 140.222 73.1843C141.297 71.8871 140.963 71.5535 139.444 72.3874C137.925 73.2214 135.721 74.8522 134.535 76.0754C133.349 77.2985 133.738 77.7248 135.369 76.9649Z" fill="white"/>
<path id="Vector_123" d="M130.719 82.0428C128.977 82.71 126.569 84.1925 125.383 85.4342C124.198 86.6574 124.79 87.2319 126.624 86.6388C128.458 86.0458 130.774 84.4335 131.867 83.1362C132.96 81.8389 132.46 81.3756 130.737 82.0428H130.719Z" fill="white"/>
<path id="Vector_124" d="M118.51 96.9428C120.511 96.4795 122.864 94.8857 123.845 93.4773C124.827 92.0688 124.123 91.4202 122.197 91.9576C120.27 92.4765 117.787 93.922 116.731 95.2749C115.676 96.6278 116.528 97.4061 118.51 96.9428Z" fill="white"/>
<path id="Vector_125" d="M117.028 104.967C117.806 103.374 116.843 102.503 114.805 102.91C112.767 103.336 110.377 104.856 109.599 106.431C108.821 108.007 109.933 109.063 111.989 108.655C114.045 108.248 116.25 106.543 117.028 104.949V104.967Z" fill="white"/>
<path id="Vector_126" d="M112.267 118.329C112.73 116.457 111.526 115.327 109.506 115.716C107.487 116.124 105.431 117.903 105.042 119.793C104.708 121.35 105.931 122.221 107.913 121.795C109.877 121.387 111.896 119.849 112.267 118.311V118.329Z" fill="white"/>
<path id="Vector_127" d="M107.932 128.615C108.636 127.484 107.598 126.817 105.672 127.225C103.745 127.632 101.651 128.948 100.947 130.06C100.243 131.172 101.188 131.672 103.115 131.283C105.042 130.894 107.228 129.745 107.932 128.615Z" fill="white"/>
<path id="Vector_128" d="M96.5568 138.029C98.5391 137.733 100.892 136.917 101.763 136.083C102.633 135.249 101.744 134.786 99.7803 135.12C97.8351 135.453 95.5379 136.454 94.6301 137.232C93.7224 138.011 94.5745 138.307 96.5568 138.029Z" fill="white"/>
<path id="Vector_129" d="M94.8709 141.643C95.7602 141.013 94.8339 140.587 92.7775 140.809C90.7212 141.031 88.2943 141.736 87.3494 142.292C86.3861 142.848 87.3309 143.088 89.4243 142.959C91.5363 142.81 93.9632 142.273 94.8524 141.643H94.8709Z" fill="white"/>
<path id="Vector_130" d="M85.8488 145.127C83.6628 145.183 81.1988 145.683 80.3652 146.146C79.5315 146.61 80.6801 146.906 82.9403 146.943C85.1819 146.98 87.6088 146.647 88.3869 146.091C89.165 145.553 88.0349 145.071 85.8674 145.127H85.8488Z" fill="white"/>
<path id="Vector_131" d="M74.8631 149.723C74.3073 150.205 75.7338 150.742 78.1051 150.946C80.4764 151.15 82.8292 150.891 83.3479 150.316C83.8666 149.742 82.4401 149.111 80.1244 148.982C77.8087 148.852 75.4188 149.241 74.8631 149.723Z" fill="white"/>
<path id="Vector_132" d="M76.7156 157.395C79.161 157.729 80.9025 157.266 80.8284 156.302C80.7728 155.338 78.9202 154.282 76.5118 154.004C74.0849 153.726 71.9915 154.282 72.0286 155.172C72.0656 156.08 74.2702 157.043 76.7156 157.377V157.395Z" fill="white"/>
<path id="Vector_133" d="M83.6815 168.181C86.0343 168.589 86.7753 167.181 85.5341 165.661C84.3113 164.141 81.5881 162.584 79.1797 162.214C76.7713 161.825 75.5857 162.733 76.8825 164.234C78.1793 165.735 81.3102 167.792 83.6629 168.2L83.6815 168.181Z" fill="white"/>
<path id="Vector_134" d="M93.3889 190.587C95.6491 190.958 96.6309 188.567 95.4453 185.379C94.2782 182.173 91.3696 179.338 89.0724 178.93C86.7752 178.522 85.9971 180.746 87.2013 183.989C88.4055 187.233 91.1102 190.235 93.3889 190.587Z" fill="white"/>
<path id="Vector_135" d="M101.059 220.257C103.319 220.498 104.486 217.403 103.56 213.382C102.633 209.36 99.9657 205.876 97.7055 205.561C95.4454 205.265 94.4635 208.304 95.3898 212.399C96.3161 216.495 98.7986 220.016 101.077 220.257H101.059Z" fill="white"/>
<path id="Vector_136" d="M167.122 14.4738C168.233 13.158 169.03 10.0631 168.808 7.45001C168.585 4.85548 167.307 3.68794 166.066 4.92961C164.825 6.15275 164.195 9.37738 164.547 12.046C164.899 14.7147 166.029 15.771 167.14 14.4738H167.122Z" fill="white"/>
<path id="Vector_137" d="M165.214 31.783C166.14 30.3931 167.4 27.6503 168.048 25.6303C168.697 23.6102 168.122 22.9245 167.14 24.2959C166.159 25.6673 165.214 28.6325 164.621 30.6525C164.028 32.6726 164.306 33.1729 165.232 31.783H165.214Z" fill="white"/>
<path id="Vector_138" d="M162.472 39.5481C161.527 40.9009 160.156 43.4584 159.397 45.256C158.656 47.0537 158.859 47.4429 159.841 46.1456C160.842 44.8483 162.176 42.2909 162.861 40.4376C163.547 38.5844 163.38 38.1767 162.453 39.5295L162.472 39.5481Z" fill="white"/>
<path id="Vector_139" d="M156.748 53.2806C155.654 54.4852 154.061 56.8017 153.191 58.4696C152.32 60.1375 152.579 60.3043 153.783 59.1924C154.988 58.0619 156.599 56.0234 157.359 54.2628C158.1 52.5022 157.841 52.076 156.748 53.2806Z" fill="white"/>
<path id="Vector_140" d="M150.356 65.1413C149.022 66.1606 147.151 68.1065 146.206 69.5149C145.261 70.9048 145.687 71.294 147.133 70.3674C148.578 69.4223 150.412 67.4578 151.245 65.9752C152.079 64.4926 151.671 64.1405 150.337 65.1598L150.356 65.1413Z" fill="white"/>
<path id="Vector_141" d="M138.796 80.1896C137.833 81.5795 138.444 82.1355 140.148 81.3942C141.834 80.6343 143.891 78.7996 144.743 77.3356C145.595 75.853 145.039 75.3526 143.446 76.2051C141.871 77.0391 139.759 78.8182 138.796 80.2081V80.1896Z" fill="white"/>
<path id="Vector_142" d="M136.517 87.3245C134.72 87.9917 132.478 89.6781 131.571 91.1422C130.663 92.6248 131.515 93.3661 133.405 92.773C135.294 92.18 137.443 90.4009 138.277 88.8627C139.092 87.3245 138.333 86.6388 136.536 87.306L136.517 87.3245Z" fill="white"/>
<path id="Vector_143" d="M132.275 101.168C132.997 99.5003 132.052 98.6293 130.107 99.1667C128.162 99.7041 125.92 101.409 125.161 103.04C124.42 104.671 125.457 105.653 127.421 105.134C129.385 104.634 131.534 102.818 132.256 101.15L132.275 101.168Z" fill="white"/>
<path id="Vector_144" d="M122.845 118.366C124.753 117.884 126.773 116.272 127.273 114.678C127.847 112.844 126.773 111.769 124.809 112.251C122.845 112.732 120.789 114.604 120.27 116.457C119.825 118.014 120.937 118.83 122.864 118.366H122.845Z" fill="white"/>
<path id="Vector_145" d="M117.862 128.485C119.77 128.151 121.845 126.891 122.53 125.612C123.234 124.352 122.271 123.611 120.381 124.019C118.491 124.426 116.398 125.816 115.694 127.002C114.99 128.188 115.935 128.818 117.843 128.466L117.862 128.485Z" fill="white"/>
<path id="Vector_146" d="M116.806 134.341C117.584 133.322 116.731 132.673 114.786 132.914C112.841 133.155 110.599 134.156 109.784 135.082C108.969 136.009 109.914 136.565 111.896 136.417C113.897 136.287 116.028 135.36 116.806 134.341Z" fill="white"/>
<path id="Vector_147" d="M110.859 141.532C111.618 140.661 110.692 139.975 108.636 139.994C106.561 139.994 104.208 140.679 103.393 141.421C102.578 142.162 103.652 142.792 105.801 142.903C107.95 143.014 110.099 142.403 110.859 141.532Z" fill="white"/>
<path id="Vector_148" d="M105.523 147.851C106.135 147.054 105.06 146.22 102.837 145.961C100.614 145.701 98.2057 146.091 97.5203 146.776C96.8348 147.444 98.1687 148.24 100.484 148.63C102.8 149.019 104.912 148.648 105.523 147.851Z" fill="white"/>
<path id="Vector_149" d="M101.614 154.023C102.004 153.207 100.651 152.151 98.2613 151.613C95.8714 151.076 93.5187 151.261 93.074 151.947C92.6294 152.633 94.2597 153.726 96.7236 154.412C99.1876 155.079 101.225 154.856 101.614 154.023Z" fill="white"/>
<path id="Vector_150" d="M95.9641 162.344C98.5207 163.252 100.021 162.918 99.9101 161.769C99.799 160.601 98.1131 159.137 95.5936 158.322C93.0741 157.507 90.9251 157.748 90.9992 158.804C91.0918 159.86 93.4075 161.435 95.9641 162.362V162.344Z" fill="white"/>
<path id="Vector_151" d="M104.375 172.37C103.263 170.739 100.873 168.756 98.3167 167.736C95.7602 166.717 94.4078 167.143 95.5749 168.719C96.742 170.294 99.8729 172.907 102.374 173.982C104.875 175.038 105.486 174 104.375 172.37Z" fill="white"/>
<path id="Vector_152" d="M111.359 195.628C113.749 196.554 114.527 194.571 113.416 191.514C112.304 188.456 109.729 185.416 107.283 184.416C104.857 183.415 103.875 185.046 105.005 188.178C106.153 191.31 108.951 194.701 111.341 195.609L111.359 195.628Z" fill="white"/>
<path id="Vector_153" d="M121.326 218.07C120.381 214.271 117.917 210.732 115.546 209.935C113.175 209.138 112.063 211.621 113.008 215.531C113.749 218.589 115.509 221.554 117.38 223.019H121.215C121.789 221.981 121.863 220.22 121.326 218.089V218.07Z" fill="white"/>
<path id="Vector_154" d="M173.198 2.16829C173.273 4.67016 174.014 5.54119 174.94 4.18832C175.551 3.29877 176.126 1.68645 176.459 0.0185394H173.291C173.198 0.759834 173.161 1.4826 173.18 2.18683L173.198 2.16829Z" fill="white"/>
<path id="Vector_155" d="M173.921 13.4174C173.124 14.8444 172.18 17.7725 171.476 19.7926C170.772 21.8126 170.864 22.2574 171.605 20.8118C172.346 19.3663 173.458 16.5679 174.199 14.5479C174.921 12.5279 174.718 11.9904 173.921 13.4174Z" fill="white"/>
<path id="Vector_156" d="M168.993 28.8549C168.234 30.2634 167.048 32.9691 166.418 34.8965C165.788 36.8053 165.992 37.2686 166.826 35.9157C167.659 34.5629 168.734 31.8571 169.29 29.8927C169.845 27.9098 169.734 27.465 168.975 28.8734L168.993 28.8549Z" fill="white"/>
<path id="Vector_157" d="M162.491 50.2783C163.565 49.0922 164.899 46.924 165.381 44.9595C165.862 42.9951 165.51 42.4391 164.565 43.6993C163.621 44.9595 162.324 47.4985 161.712 49.3702C161.101 51.242 161.435 51.4644 162.509 50.2783H162.491Z" fill="white"/>
<path id="Vector_158" d="M160.101 57.0056C158.878 58.0805 157.322 60.2487 156.636 61.8425C155.951 63.4363 156.507 63.9182 157.878 62.9174C159.23 61.9352 160.768 59.7669 161.323 58.099C161.879 56.4125 161.323 55.9307 160.119 57.0056H160.101Z" fill="white"/>
<path id="Vector_159" d="M152.857 75.3897C154.487 74.5928 156.303 72.5913 156.896 70.9234C157.489 69.2555 156.766 68.6254 155.265 69.5149C153.765 70.4045 151.931 72.3874 151.208 73.9812C150.486 75.5565 151.245 76.2051 152.876 75.3897H152.857Z" fill="white"/>
<path id="Vector_160" d="M147.651 88.0102C149.504 87.3616 151.523 85.4713 152.153 83.7848C152.783 82.0984 151.875 81.32 150.115 82.0243C148.355 82.7285 146.317 84.6003 145.595 86.2311C144.872 87.8434 145.799 88.6589 147.67 88.0102H147.651Z" fill="white"/>
<path id="Vector_161" d="M147.225 96.9243C147.874 95.1823 146.836 94.2556 144.909 94.8301C142.964 95.4046 140.815 97.2393 140.13 98.9443C139.444 100.649 140.5 101.613 142.482 101.076C144.465 100.52 146.577 98.6663 147.225 96.9243Z" fill="white"/>
<path id="Vector_162" d="M139.796 108.303C137.814 108.841 135.702 110.768 135.054 112.584C134.479 114.215 135.517 115.067 137.443 114.549C139.37 114.03 141.538 112.306 142.168 110.638C142.853 108.841 141.76 107.766 139.778 108.303H139.796Z" fill="white"/>
<path id="Vector_163" d="M132.034 125.761C133.905 125.409 136.017 124.019 136.739 122.592C137.481 121.165 136.536 120.294 134.646 120.72C132.756 121.146 130.663 122.666 129.941 124.019C129.218 125.371 130.144 126.113 132.015 125.761H132.034Z" fill="white"/>
<path id="Vector_164" d="M131.089 132.859C131.812 131.598 130.904 130.727 129.033 130.968C127.162 131.209 125.031 132.377 124.272 133.507C123.531 134.638 124.457 135.416 126.365 135.286C128.255 135.157 130.367 134.1 131.108 132.859H131.089Z" fill="white"/>
<path id="Vector_165" d="M121.011 143.737C122.993 143.885 125.105 143.144 125.754 141.995C126.402 140.865 125.383 139.882 123.438 139.864C121.493 139.845 119.344 140.679 118.64 141.68C117.936 142.681 119.01 143.57 120.992 143.737H121.011Z" fill="white"/>
<path id="Vector_166" d="M118.528 147.944C116.491 147.629 114.342 148.185 113.786 149.13C113.23 150.075 114.508 151.187 116.602 151.632C118.695 152.095 120.77 151.613 121.27 150.52C121.771 149.426 120.566 148.259 118.528 147.944Z" fill="white"/>
<path id="Vector_167" d="M118.158 158.952C118.455 157.84 116.991 156.413 114.842 155.783C112.693 155.172 110.637 155.468 110.303 156.45C109.97 157.414 111.47 158.841 113.656 159.619C115.842 160.379 117.862 160.083 118.158 158.971V158.952Z" fill="white"/>
<path id="Vector_168" d="M113.23 169.441C115.453 170.479 117.028 170.146 116.898 168.737C116.787 167.329 115.027 165.476 112.786 164.567C110.562 163.659 108.691 163.937 108.821 165.235C108.932 166.513 110.989 168.422 113.23 169.46V169.441Z" fill="white"/>
<path id="Vector_169" d="M118.899 182.266C121.03 183.47 121.771 182.748 120.826 180.95C119.881 179.152 117.528 176.817 115.342 175.668C113.156 174.519 112.007 174.927 113.026 176.651C114.045 178.374 116.787 181.08 118.899 182.284V182.266Z" fill="white"/>
<path id="Vector_170" d="M127.458 202.763C129.533 203.8 130.348 202.188 129.255 199.316C128.162 196.443 125.568 193.33 123.493 192.218C121.419 191.087 120.64 192.44 121.752 195.405C122.845 198.37 125.402 201.743 127.458 202.781V202.763Z" fill="white"/>
<path id="Vector_171" d="M131.738 216.143C129.663 215.235 128.792 217.403 129.774 221.054C129.941 221.703 130.181 222.37 130.441 223H136.999C135.832 219.868 133.609 216.958 131.738 216.143Z" fill="white"/>
<path id="Vector_172" d="M179.479 2.37215C178.812 3.78061 177.737 6.59753 176.978 8.61756C176.218 10.6376 176.2 11.1009 176.811 9.6739C177.441 8.24691 178.478 5.44852 179.256 3.42849C180.053 1.40846 180.146 0.945155 179.46 2.37215H179.479Z" fill="white"/>
<path id="Vector_173" d="M174.403 17.9949C173.754 19.3849 172.754 22.1832 172.291 24.2218C171.809 26.2604 172.068 26.8349 172.809 25.5005C173.532 24.1662 174.384 21.4049 174.792 19.2922C175.199 17.198 175.07 16.605 174.421 17.9949H174.403Z" fill="white"/>
<path id="Vector_174" d="M171.457 34.0254C170.605 35.2671 169.604 37.9543 169.289 40.0299C168.956 42.1055 169.401 42.4391 170.382 41.2901C171.364 40.1411 172.42 37.8987 172.606 35.7304C172.791 33.5621 172.309 32.8023 171.457 34.0254Z" fill="white"/>
<path id="Vector_175" d="M169.141 48.7587C168.011 49.7965 166.77 52.113 166.362 53.9107C165.973 55.6898 166.677 56.3384 167.956 55.3933C169.234 54.4481 170.475 52.1686 170.716 50.2969C170.975 48.4251 170.271 47.7209 169.123 48.7587H169.141Z" fill="white"/>
<path id="Vector_176" d="M163.12 67.5319C162.676 69.2925 163.565 70.0894 165.121 69.3296C166.677 68.5698 168.215 66.4756 168.53 64.6224C168.845 62.7691 167.956 61.9166 166.529 62.7691C165.103 63.6216 163.583 65.7528 163.12 67.5134V67.5319Z" fill="white"/>
<path id="Vector_177" d="M159.378 81.0791C158.859 82.8397 159.878 83.7848 161.675 83.1918C163.472 82.5988 165.269 80.6529 165.695 78.8182C166.121 76.9835 165.084 76.0012 163.38 76.6684C161.694 77.3356 159.897 79.3185 159.378 81.0791Z" fill="white"/>
<path id="Vector_178" d="M161.935 92.8842C162.49 91.0681 161.397 89.9932 159.526 90.5121C157.655 91.0495 155.654 92.9398 155.043 94.7189C154.432 96.498 155.506 97.5358 157.414 97.054C159.341 96.5536 161.36 94.7189 161.916 92.8842H161.935Z" fill="white"/>
<path id="Vector_179" d="M152.134 110.842C154.024 110.397 156.247 108.618 157.007 106.839C157.766 105.079 156.729 103.911 154.802 104.393C152.875 104.875 150.782 106.784 150.06 108.563C149.356 110.286 150.226 111.287 152.116 110.842H152.134Z" fill="white"/>
<path id="Vector_180" d="M146.262 123.37C148.096 123.111 150.171 121.628 150.93 119.997C151.69 118.366 150.838 117.291 148.985 117.643C147.133 117.996 145.021 119.608 144.28 121.146C143.539 122.684 144.428 123.648 146.262 123.389V123.37Z" fill="white"/>
<path id="Vector_181" d="M145.428 132.025C146.095 130.505 145.169 129.356 143.316 129.504C141.464 129.652 139.389 130.931 138.685 132.321C137.981 133.711 138.963 134.767 140.834 134.749C142.705 134.73 144.743 133.526 145.41 132.025H145.428Z" fill="white"/>
<path id="Vector_182" d="M140.76 143.329C141.297 141.884 140.222 140.587 138.296 140.457C136.369 140.327 134.294 141.309 133.701 142.607C133.109 143.904 134.257 145.146 136.239 145.424C138.222 145.701 140.222 144.793 140.76 143.348V143.329Z" fill="white"/>
<path id="Vector_183" d="M137.184 154.263C137.573 152.855 136.258 151.317 134.22 150.872C132.182 150.427 130.126 151.113 129.681 152.373C129.236 153.633 130.626 155.116 132.719 155.709C134.813 156.302 136.795 155.672 137.184 154.263Z" fill="white"/>
<path id="Vector_184" d="M131.404 161.157C129.236 160.379 127.254 160.824 127.013 162.103C126.772 163.381 128.366 165.198 130.57 166.124C132.775 167.051 134.72 166.606 134.924 165.16C135.128 163.733 133.572 161.917 131.404 161.157Z" fill="white"/>
<path id="Vector_185" d="M130.459 178.096C132.719 179.301 134.313 178.893 134.183 177.225C134.053 175.557 132.238 173.333 129.996 172.258C127.754 171.183 125.902 171.536 126.032 173.074C126.161 174.612 128.218 176.891 130.478 178.096H130.459Z" fill="white"/>
<path id="Vector_186" d="M135.369 192.292C137.536 193.682 138.407 193.218 137.629 191.236C136.832 189.234 134.535 186.602 132.312 185.268C130.089 183.934 128.81 184.341 129.681 186.232C130.552 188.141 133.22 190.902 135.369 192.292Z" fill="white"/>
<path id="Vector_187" d="M143.52 211.436C145.613 212.64 146.466 211.343 145.391 208.674C144.335 206.006 141.76 202.929 139.648 201.614C137.536 200.298 136.703 201.354 137.777 204.116C138.852 206.877 141.427 210.231 143.52 211.436Z" fill="white"/>
<path id="Vector_188" d="M179.238 7.82066C178.627 9.06233 177.774 11.8422 177.459 14.0105C177.145 16.1788 177.515 16.9756 178.2 15.7896C178.886 14.6035 179.534 11.8607 179.794 9.63683C180.035 7.41294 179.849 6.59752 179.238 7.83919V7.82066Z" fill="white"/>
<path id="Vector_189" d="M177.719 32.9506C178.664 31.9498 179.46 29.7445 179.368 27.3723C179.275 25.0002 178.589 23.9253 177.793 25.0187C176.996 26.1121 176.255 28.8549 176.218 31.1344C176.181 33.4139 176.792 33.9513 177.719 32.9506Z" fill="white"/>
<path id="Vector_190" d="M177.534 48.5733C178.756 47.7764 179.72 45.4784 179.683 43.4028C179.646 41.3272 178.719 40.3264 177.645 41.216C176.552 42.1055 175.607 44.4962 175.496 46.4792C175.403 48.4621 176.311 49.3702 177.534 48.5733Z" fill="white"/>
<path id="Vector_191" d="M176.885 64.0108C178.386 63.3992 179.683 61.3051 179.72 59.248C179.757 57.2094 178.664 56.0604 177.293 56.7647C175.922 57.4689 174.662 59.6742 174.495 61.6201C174.329 63.5846 175.385 64.6224 176.904 64.0108H176.885Z" fill="white"/>
<path id="Vector_192" d="M176.163 72.0539C174.514 72.5728 172.958 74.5928 172.661 76.5202C172.346 78.429 173.476 79.578 175.218 79.1332C176.959 78.6884 178.571 76.7611 178.793 74.7781C178.997 72.7951 177.811 71.5349 176.163 72.0724V72.0539Z" fill="white"/>
<path id="Vector_193" d="M171.976 93.7553C173.847 93.4031 175.792 91.6426 176.255 89.7337C176.718 87.8249 175.57 86.5462 173.736 86.9353C171.92 87.3245 170.068 89.1963 169.549 91.0681C169.049 92.9398 170.105 94.1074 171.976 93.7553Z" fill="white"/>
<path id="Vector_194" d="M171.457 103.948C172.272 102.225 171.309 100.909 169.438 101.242C167.567 101.576 165.492 103.411 164.714 105.153C163.88 106.987 164.621 108.192 166.455 107.895C168.289 107.58 170.568 105.82 171.457 103.948Z" fill="white"/>
<path id="Vector_195" d="M164.806 118.274C165.584 116.457 164.806 115.105 162.991 115.327C161.194 115.549 159.063 117.199 158.304 118.941C157.544 120.683 158.396 121.924 160.193 121.776C161.99 121.646 164.028 120.09 164.788 118.274H164.806Z" fill="white"/>
<path id="Vector_196" d="M159.545 132.062C160.138 130.301 159.193 128.837 157.396 128.856C155.58 128.874 153.561 130.264 152.931 131.913C152.301 133.563 153.32 134.934 155.173 135.045C157.025 135.138 158.952 133.822 159.545 132.062Z" fill="white"/>
<path id="Vector_197" d="M155.636 145.516C156.062 143.774 154.913 142.143 153.005 141.902C151.097 141.661 149.133 142.792 148.652 144.386C148.17 145.979 149.411 147.573 151.356 147.944C153.32 148.333 155.191 147.258 155.617 145.516H155.636Z" fill="white"/>
<path id="Vector_198" d="M153.024 158.841C153.283 157.099 151.875 155.246 149.856 154.69C147.837 154.134 145.891 155.005 145.576 156.58C145.261 158.174 146.744 159.99 148.818 160.694C150.912 161.398 152.764 160.564 153.024 158.822V158.841Z" fill="white"/>
<path id="Vector_199" d="M147.54 173.611C149.745 174.631 151.616 173.982 151.708 172.24C151.801 170.479 150.152 168.348 148.003 167.496C145.854 166.625 143.946 167.236 143.798 168.848C143.65 170.461 145.336 172.61 147.54 173.63V173.611Z" fill="white"/>
<path id="Vector_200" d="M151.597 186.528C151.431 184.582 149.578 182.099 147.318 180.932C145.058 179.764 143.242 180.264 143.39 182.081C143.539 183.897 145.595 186.454 147.874 187.751C150.134 189.03 151.764 188.474 151.597 186.528Z" fill="white"/>
<path id="Vector_201" d="M152.06 203.337C154.246 204.801 155.247 204.505 154.598 202.318C153.95 200.131 151.727 197.277 149.485 195.869C147.244 194.46 145.873 194.961 146.595 197.055C147.318 199.149 149.893 201.873 152.06 203.337Z" fill="white"/>
<path id="Vector_202" d="M159.712 221.073C161.824 222.37 162.676 221.295 161.657 218.849C160.638 216.402 158.1 213.419 155.969 212.029C153.839 210.639 152.931 211.454 153.987 213.993C155.025 216.551 157.6 219.775 159.712 221.073Z" fill="white"/>
<path id="Vector_203" d="M183.48 7.70946C184.184 6.80138 184.703 4.18831 184.814 1.8347C184.851 1.09341 184.833 0.481842 184.796 0H183.629C183.091 1.24167 182.554 3.33583 182.424 5.2076C182.258 7.50561 182.795 8.61755 183.499 7.70946H183.48Z" fill="white"/>
<path id="Vector_204" d="M183.981 17.6243C183.165 18.4397 182.647 21.164 182.906 23.6473C183.147 26.1306 183.962 26.9646 184.907 26.2418C185.852 25.5191 186.463 23.4434 186.093 20.8674C185.722 18.2914 184.814 16.8274 183.999 17.6428L183.981 17.6243Z" fill="white"/>
<path id="Vector_205" d="M185.963 35.2486C184.888 35.8787 184.166 38.2323 184.351 40.4191C184.536 42.6059 185.666 43.8476 186.889 43.2916C188.112 42.7356 188.834 40.5303 188.519 38.2693C188.186 36.0084 187.037 34.6185 185.963 35.2486Z" fill="white"/>
<path id="Vector_206" d="M187.816 52.2798C186.445 52.7246 185.463 54.9114 185.555 57.0426C185.648 59.1924 186.908 60.5452 188.39 60.1931C189.872 59.8225 190.946 57.8025 190.724 55.5786C190.502 53.3547 189.186 51.835 187.816 52.2798Z" fill="white"/>
<path id="Vector_207" d="M188.649 68.9219C187.037 69.1999 185.685 71.1828 185.592 73.2399C185.481 75.297 186.741 76.724 188.445 76.5016C190.15 76.2792 191.595 74.4816 191.613 72.3504C191.613 70.2192 190.261 68.6254 188.649 68.9034V68.9219Z" fill="white"/>
<path id="Vector_208" d="M186.13 91.8835C187.945 91.7538 189.816 90.16 190.187 88.177C190.557 86.1941 189.353 84.6188 187.556 84.7856C185.778 84.9338 184.055 86.7315 183.647 88.6774C183.24 90.6233 184.296 92.0132 186.111 91.8835H186.13Z" fill="white"/>
<path id="Vector_209" d="M178.923 103.003C177.96 104.93 178.571 106.394 180.349 106.302C182.128 106.209 184.425 104.541 185.463 102.577C186.352 100.872 185.463 99.3706 183.647 99.4818C181.831 99.5929 179.775 101.279 178.923 103.003Z" fill="white"/>
<path id="Vector_210" d="M176.626 114.271C174.884 114.308 172.772 115.938 171.994 117.866C171.216 119.775 172.068 121.313 173.81 121.35C175.551 121.387 177.534 119.849 178.312 117.847C179.09 115.864 178.386 114.234 176.626 114.271Z" fill="white"/>
<path id="Vector_211" d="M173.365 133.155C173.884 131.154 172.921 129.393 171.161 129.263C169.382 129.134 167.455 130.598 166.9 132.488C166.344 134.378 167.418 136.065 169.215 136.306C171.031 136.547 172.846 135.138 173.365 133.137V133.155Z" fill="white"/>
<path id="Vector_212" d="M170.271 148.537C170.568 146.535 169.345 144.59 167.474 144.237C165.603 143.885 163.75 145.146 163.398 147.017C163.046 148.908 164.362 150.798 166.288 151.28C168.215 151.762 169.975 150.538 170.253 148.537H170.271Z" fill="white"/>
<path id="Vector_213" d="M165.344 159.212C163.343 158.581 161.527 159.619 161.342 161.51C161.157 163.4 162.731 165.55 164.806 166.291C166.881 167.051 168.604 166.013 168.715 163.993C168.826 161.973 167.344 159.823 165.344 159.193V159.212Z" fill="white"/>
<path id="Vector_214" d="M164.473 181.506C166.677 182.544 168.437 181.691 168.4 179.634C168.363 177.577 166.659 175.205 164.51 174.297C162.361 173.389 160.582 174.204 160.545 176.132C160.508 178.04 162.268 180.468 164.473 181.506Z" fill="white"/>
<path id="Vector_215" d="M165.288 197.629C167.548 198.908 169.16 198.111 168.975 195.943C168.789 193.756 166.863 191.087 164.621 189.92C162.379 188.752 160.619 189.456 160.786 191.532C160.953 193.608 163.028 196.369 165.288 197.629Z" fill="white"/>
<path id="Vector_216" d="M168.845 214.475C171.031 215.884 172.161 215.624 171.661 213.271C171.142 210.935 168.993 207.989 166.752 206.617C164.51 205.246 163.065 205.913 163.639 208.174C164.214 210.454 166.677 213.048 168.864 214.475H168.845Z" fill="white"/>
<path id="Vector_217" d="M172.328 222.648C170.679 221.592 169.734 221.758 169.864 223H172.828C172.661 222.889 172.495 222.759 172.328 222.648Z" fill="white"/>
<path id="Vector_218" d="M189.094 2.22388C189.52 1.9459 189.853 1.11194 190.057 0H187.667C187.852 1.68645 188.445 2.6316 189.094 2.22388Z" fill="white"/>
<path id="Vector_219" d="M189.723 18.4397C190.242 21.1269 191.28 22.35 192.262 21.9979C193.243 21.6458 193.744 19.8296 193.095 17.0498C192.465 14.2885 191.298 12.3426 190.427 12.7688C189.557 13.195 189.186 15.771 189.705 18.4397H189.723Z" fill="white"/>
<path id="Vector_220" d="M194.411 31.7089C193.281 31.9683 192.78 34.1922 193.243 36.5458C193.707 38.8994 195.078 40.5859 196.337 40.4006C197.579 40.2152 198.134 38.1767 197.541 35.7304C196.949 33.2841 195.541 31.4309 194.429 31.6904L194.411 31.7089Z" fill="white"/>
<path id="Vector_221" d="M198.32 50.1115C196.949 50.2042 196.152 52.2613 196.504 54.5778C196.856 56.8944 198.32 58.655 199.802 58.6364C201.302 58.6179 202.173 56.7646 201.71 54.374C201.247 51.9833 199.69 50.0003 198.301 50.1115H198.32Z" fill="white"/>
<path id="Vector_222" d="M198.338 71.9983C198.431 74.2036 199.783 75.9642 201.469 76.0754C203.155 76.1866 204.47 74.5743 204.303 72.3133C204.137 70.0524 202.617 68.0509 201.006 67.9953C199.394 67.9397 198.245 69.7929 198.338 71.9797V71.9983Z" fill="white"/>
<path id="Vector_223" d="M199.95 92.0688C201.728 92.2541 203.544 90.9013 203.859 88.8627C204.174 86.8241 202.896 84.9153 201.136 84.7485C199.376 84.5817 197.782 86.2126 197.449 88.2141C197.115 90.2156 198.171 91.8835 199.95 92.0688Z" fill="white"/>
<path id="Vector_224" d="M193.818 106.598C195.541 106.784 197.838 105.338 199.024 103.355C200.005 101.669 199.209 99.9451 197.449 99.7412C195.689 99.5559 193.633 100.983 192.688 102.688C191.595 104.689 192.095 106.413 193.818 106.598Z" fill="white"/>
<path id="Vector_225" d="M187.037 122.425C188.742 122.684 190.65 121.22 191.428 119.126C192.206 117.032 191.558 115.123 189.872 114.919C188.186 114.715 186.093 116.254 185.296 118.311C184.518 120.368 185.333 122.184 187.037 122.443V122.425Z" fill="white"/>
<path id="Vector_226" d="M180.535 134.23C180.072 136.324 181.183 138.307 182.943 138.696C184.703 139.085 186.407 137.658 186.834 135.49C187.26 133.322 186.296 131.283 184.573 130.968C182.85 130.653 180.998 132.136 180.535 134.23Z" fill="white"/>
<path id="Vector_227" d="M177.904 150.446C177.682 152.577 179.09 154.745 180.979 155.301C182.869 155.857 184.462 154.541 184.629 152.318C184.796 150.094 183.499 147.907 181.665 147.425C179.849 146.943 178.126 148.315 177.904 150.427V150.446Z" fill="white"/>
<path id="Vector_228" d="M180.609 172.203C182.647 172.981 184.221 171.777 184.203 169.516C184.166 167.255 182.591 164.883 180.627 164.215C178.663 163.548 176.996 164.753 176.959 166.903C176.922 169.052 178.589 171.424 180.627 172.203H180.609Z" fill="white"/>
<path id="Vector_229" d="M181.276 189.29C183.443 190.272 185.092 189.178 184.944 186.917C184.796 184.638 182.999 182.099 180.887 181.209C178.775 180.32 177.107 181.358 177.2 183.526C177.293 185.694 179.127 188.307 181.294 189.29H181.276Z" fill="white"/>
<path id="Vector_230" d="M182.628 207.007C184.87 208.156 186.463 207.136 186.222 204.783C185.981 202.429 184.036 199.686 181.813 198.593C179.59 197.518 177.904 198.445 178.126 200.724C178.349 203.004 180.387 205.858 182.628 207.007Z" fill="white"/>
<path id="Vector_231" d="M183.907 216.643C181.683 215.42 180.183 216.31 180.627 218.719C180.905 220.239 181.943 221.758 183.203 223H188.557C188.093 220.609 186.074 217.829 183.925 216.643H183.907Z" fill="white"/>
<path id="Vector_232" d="M196.078 0H194.948C195.133 0.166791 195.337 0.277986 195.541 0.277986C195.744 0.277986 195.93 0.185324 196.078 0Z" fill="white"/>
<path id="Vector_233" d="M200.265 21.1454C201.358 21.2937 201.765 19.8296 200.913 16.883C200.061 13.9363 198.634 11.453 197.634 11.3603C196.634 11.2677 196.374 13.5842 197.134 16.4382C197.893 19.2922 199.19 20.9786 200.265 21.1269V21.1454Z" fill="white"/>
<path id="Vector_234" d="M206.119 40.7342C207.434 41.0307 207.861 39.2701 207.027 36.6756C206.193 34.081 204.526 31.6904 203.322 31.468C202.117 31.2456 201.747 33.2285 202.469 35.7489C203.192 38.2693 204.804 40.4376 206.119 40.7342Z" fill="white"/>
<path id="Vector_235" d="M209.102 51.0937C207.675 50.7231 207.045 52.5578 207.638 55.0411C208.231 57.5059 209.88 59.7298 211.399 60.1746C212.918 60.6008 213.678 59.0256 212.992 56.4867C212.307 53.9477 210.528 51.4644 209.102 51.0937Z" fill="white"/>
<path id="Vector_236" d="M211.01 73.4994C211.269 75.8159 212.733 77.9842 214.418 78.5216C216.104 79.0591 217.327 77.7433 217.012 75.3711C216.697 73.0175 215.011 70.5342 213.4 70.0523C211.788 69.552 210.769 71.1828 211.028 73.4994H211.01Z" fill="white"/>
<path id="Vector_237" d="M214.53 87.5284C212.807 86.9539 211.288 88.3253 210.991 90.3638C210.695 92.4209 211.732 94.4039 213.492 94.9784C215.234 95.5714 217.031 94.5336 217.309 92.4765C217.586 90.4009 216.271 88.1029 214.53 87.5284Z" fill="white"/>
<path id="Vector_238" d="M206.823 109.341C208.49 109.878 210.769 108.785 212.084 106.839C213.196 105.19 212.51 103.188 210.806 102.614C209.102 102.039 207.027 103.133 205.989 104.801C204.748 106.784 205.156 108.785 206.823 109.322V109.341Z" fill="white"/>
<path id="Vector_239" d="M202.673 117.643C201.043 117.125 198.968 118.477 198.19 120.59C197.412 122.703 198.208 124.797 199.857 125.316C201.488 125.835 203.34 124.556 204.118 122.443C204.896 120.331 204.322 118.162 202.673 117.643Z" fill="white"/>
<path id="Vector_240" d="M197.597 134.174C195.93 133.655 194.188 135.045 193.799 137.269C193.41 139.493 194.577 141.717 196.282 142.273C197.986 142.829 199.561 141.458 199.894 139.215C200.228 136.973 199.246 134.693 197.578 134.174H197.597Z" fill="white"/>
<path id="Vector_241" d="M195.3 159.934C197.134 160.564 198.579 159.193 198.597 156.858C198.616 154.523 197.264 152.132 195.485 151.539C193.707 150.946 192.132 152.336 192.058 154.634C191.965 156.932 193.466 159.304 195.3 159.934Z" fill="white"/>
<path id="Vector_242" d="M195.559 169.497C193.633 168.811 192.132 170.127 192.243 172.481C192.354 174.816 194.096 177.336 196.096 178.096C198.097 178.837 199.505 177.485 199.32 175.094C199.135 172.703 197.467 170.201 195.559 169.497Z" fill="white"/>
<path id="Vector_243" d="M197.801 196.443C199.931 197.314 201.432 196.017 201.154 193.589C200.876 191.161 199.005 188.585 196.93 187.77C194.855 186.955 193.336 188.196 193.54 190.55C193.744 192.903 195.652 195.572 197.782 196.443H197.801Z" fill="white"/>
<path id="Vector_244" d="M199.746 215.142C201.951 216.087 203.507 214.809 203.229 212.362C202.951 209.916 200.969 207.229 198.783 206.321C196.597 205.413 195.003 206.58 195.263 208.99C195.522 211.417 197.541 214.197 199.746 215.142Z" fill="white"/>
<path id="Vector_245" d="M203.266 2.85399C204.285 3.46555 204.841 2.22388 204.804 0H201.432C201.914 1.35286 202.618 2.44627 203.266 2.85399Z" fill="white"/>
<path id="Vector_246" d="M205.897 14.3626C204.73 13.6398 204.489 15.5672 205.452 18.588C206.415 21.5902 207.972 23.8141 209.213 24.5739C210.454 25.3337 210.88 24.3515 209.824 21.2752C208.768 18.2173 207.064 15.0853 205.897 14.3626Z" fill="white"/>
<path id="Vector_247" d="M217.346 41.9202C216.327 39.2145 214.4 36.2122 213.066 35.3968C211.732 34.5814 211.436 36.2122 212.381 38.8624C213.326 41.5125 215.178 44.2553 216.605 45.1263C218.031 45.9973 218.383 44.6445 217.364 41.9202H217.346Z" fill="white"/>
<path id="Vector_248" d="M220.365 55.9863C218.846 55.0597 218.346 56.5608 219.124 59.1739C219.902 61.7684 221.755 64.5297 223.33 65.4934C224.923 66.4756 225.59 65.271 224.719 62.6209C223.848 59.9707 221.866 56.9129 220.347 55.9863H220.365Z" fill="white"/>
<path id="Vector_249" d="M225.96 75.8159C224.311 74.7966 223.385 76.0939 223.774 78.4846C224.163 80.8938 225.719 83.5254 227.424 84.5632C229.128 85.6195 230.295 84.6744 229.869 82.2467C229.443 79.8189 227.628 76.8167 225.979 75.7974L225.96 75.8159Z" fill="white"/>
<path id="Vector_250" d="M230.554 99.6671C230.851 97.5915 229.498 94.8487 227.794 93.7738C226.071 92.6989 224.608 93.7182 224.33 95.7938C224.052 97.8694 225.052 100.205 226.757 101.279C228.461 102.354 230.277 101.743 230.554 99.6671Z" fill="white"/>
<path id="Vector_251" d="M224.682 113.696C225.96 112.139 225.441 109.804 223.774 108.766C222.107 107.729 220.013 108.414 218.809 110.008C217.42 111.861 217.753 114.122 219.346 115.086C220.94 116.05 223.237 115.438 224.682 113.696Z" fill="white"/>
<path id="Vector_252" d="M216.308 128.244C217.068 126.224 216.568 123.852 214.993 122.962C213.418 122.091 211.399 123.092 210.621 125.168C209.843 127.243 210.621 129.56 212.214 130.375C213.789 131.191 215.549 130.245 216.308 128.225V128.244Z" fill="white"/>
<path id="Vector_253" d="M210.176 139.122C208.564 138.363 206.934 139.586 206.638 141.828C206.341 144.071 207.546 146.48 209.194 147.203C210.843 147.944 212.27 146.739 212.51 144.534C212.751 142.329 211.769 139.901 210.158 139.122H210.176Z" fill="white"/>
<path id="Vector_254" d="M209.231 165.068C211.01 165.772 212.288 164.419 212.158 162.066C212.029 159.712 210.621 157.247 208.916 156.524C207.193 155.82 205.785 157.154 205.841 159.527C205.897 161.88 207.453 164.364 209.231 165.068Z" fill="white"/>
<path id="Vector_255" d="M211.195 183.619C213.122 184.304 214.381 182.859 214.048 180.45C213.714 178.022 211.973 175.52 210.102 174.834C208.231 174.149 206.897 175.539 207.175 177.966C207.434 180.394 209.268 182.952 211.195 183.637V183.619Z" fill="white"/>
<path id="Vector_256" d="M213.974 202.429C216.049 203.115 217.401 201.632 216.994 199.186C216.586 196.74 214.641 194.238 212.64 193.552C210.621 192.866 209.25 194.256 209.602 196.703C209.935 199.149 211.899 201.743 213.974 202.411V202.429Z" fill="white"/>
<path id="Vector_257" d="M216.512 221.258C218.661 221.888 220.162 220.368 219.828 217.941C219.495 215.513 217.494 213.067 215.363 212.399C213.233 211.732 211.751 213.141 212.047 215.587C212.362 218.033 214.344 220.609 216.493 221.239L216.512 221.258Z" fill="white"/>
<path id="Vector_258" d="M212.121 1.4826C210.75 0.0926685 209.565 1.01929 209.732 3.61382C209.898 6.20835 211.362 9.48858 212.714 10.8785C214.419 12.602 215.549 11.6754 215.363 9.08087C215.197 6.48634 213.807 3.20611 212.103 1.4826H212.121Z" fill="white"/>
<path id="Vector_259" d="M215.715 22.6651C214.326 21.2381 214.011 22.628 215.141 25.7415C216.271 28.8549 218.068 31.7089 219.513 33.1729C221.217 34.8964 221.996 34.4146 220.865 31.2826C219.717 28.1507 217.42 24.3886 215.734 22.6651H215.715Z" fill="white"/>
<path id="Vector_260" d="M223.237 46.7386C224.33 49.5 226.442 52.8543 228.017 54.411C229.702 56.0975 230.24 55.1153 229.11 52.3539C227.998 49.5741 225.627 46.0529 223.941 44.348C222.44 42.8468 222.144 43.9773 223.237 46.7386Z" fill="white"/>
<path id="Vector_261" d="M231.24 67.8099C231.648 68.996 232.296 70.3118 233 71.5535V66.2903C232.796 66.0494 232.593 65.827 232.389 65.6416C230.777 64.0479 230.295 65.1042 231.222 67.8099H231.24Z" fill="white"/>
<path id="Vector_262" d="M233 117.773C232.315 117.94 231.666 118.311 231.129 118.885C229.628 120.497 229.832 122.962 231.37 124.408C231.87 124.871 232.426 125.205 233 125.409V117.773Z" fill="white"/>
<path id="Vector_263" d="M228.628 137.102C229.369 135.323 228.591 132.803 226.812 131.283C225.312 130.005 223.311 130.523 222.552 132.432C221.792 134.341 222.552 136.824 224.052 137.973C225.886 139.363 227.887 138.9 228.628 137.102Z" fill="white"/>
<path id="Vector_264" d="M221.606 153.578C223.533 154.727 225.145 153.893 225.312 151.854C225.46 149.816 224.126 147.277 222.236 146.017C220.699 144.997 219.18 145.887 218.976 148.037C218.772 150.168 220.032 152.651 221.606 153.578Z" fill="white"/>
<path id="Vector_265" d="M222.663 170.609C224.645 171.499 226.034 170.405 225.793 168.2C225.553 165.994 223.793 163.437 221.829 162.436C220.199 161.602 218.92 162.788 219.124 165.086C219.328 167.384 220.977 169.849 222.663 170.609Z" fill="white"/>
<path id="Vector_266" d="M225.812 188.511C227.85 189.178 229.147 187.863 228.684 185.565C228.22 183.267 226.183 180.765 224.163 180.005C222.403 179.338 221.218 180.728 221.625 183.118C222.051 185.509 223.978 187.918 225.812 188.53V188.511Z" fill="white"/>
<path id="Vector_267" d="M229.665 206.729C231.759 207.192 233.093 205.691 232.574 203.356C232.055 201.039 229.906 198.704 227.85 198.148C225.923 197.629 224.7 199.149 225.182 201.558C225.664 203.967 227.683 206.302 229.665 206.729Z" fill="white"/>
<path id="Vector_268" d="M233 216.81C232.518 216.551 232.018 216.365 231.518 216.273C229.461 215.939 228.091 217.533 228.443 219.887C228.609 221.036 229.165 222.148 229.943 223H233V216.81Z" fill="white"/>
<path id="Vector_269" d="M228.554 4.02152C229.999 5.00374 231.685 4.85548 233 3.94739V0H226.534C226.46 1.51965 227.238 3.11344 228.572 4.02152H228.554Z" fill="white"/>
<path id="Vector_270" d="M227.035 22.591C228.998 23.9068 230.24 22.6651 230.054 20.0706C229.888 17.476 228.387 14.5109 226.423 13.1765C224.46 11.8607 222.774 12.6761 222.959 15.2707C223.126 17.8652 225.09 21.2752 227.035 22.591Z" fill="white"/>
<path id="Vector_271" d="M229.925 34.3034C227.979 32.9876 227.201 34.3034 228.331 37.3983C229.35 40.2152 231.24 42.8468 233 44.2738V37.6207C232.018 36.1752 230.907 34.9706 229.925 34.3034Z" fill="white"/>
</g>
</svg>
