<svg width="236" height="236" viewBox="0 0 236 236" fill="none" xmlns="http://www.w3.org/2000/svg">
<g id="star" opacity="0.9">
<g id="Group">
<g id="Group_2">
<path id="Vector" d="M118 93.5426C119.708 93.5426 121.092 92.1581 121.092 90.4503C121.092 88.7424 119.708 87.3579 118 87.3579C116.292 87.3579 114.908 88.7424 114.908 90.4503C114.908 92.1581 116.292 93.5426 118 93.5426Z" fill="white"/>
<path id="Vector_2" d="M122.428 69.9637C122.428 72.4059 120.442 74.3913 118 74.3913C115.558 74.3913 113.572 72.4059 113.572 69.9637C113.572 67.5214 115.558 65.536 118 65.536C120.442 65.536 122.428 67.5214 122.428 69.9637Z" fill="white"/>
<path id="Vector_3" d="M123.781 49.4771C123.781 52.6748 121.198 55.2576 118 55.2576C114.802 55.2576 112.219 52.6748 112.219 49.4771C112.219 46.2793 114.802 43.6965 118 43.6965C121.198 43.6965 123.781 46.2793 123.781 49.4771Z" fill="white"/>
<path id="Vector_4" d="M118 36.1063C121.94 36.1063 125.133 32.9126 125.133 28.9729C125.133 25.0332 121.94 21.8395 118 21.8395C114.06 21.8395 110.867 25.0332 110.867 28.9729C110.867 32.9126 114.06 36.1063 118 36.1063Z" fill="white"/>
<path id="Vector_5" d="M126.486 8.4863C126.486 13.1775 122.691 16.9726 118 16.9726C113.309 16.9726 109.514 13.1775 109.514 8.4863C109.514 3.79512 113.309 0 118 0C122.691 0 126.486 3.79512 126.486 8.4863Z" fill="white"/>
</g>
<g id="Group_3">
<path id="Vector_6" d="M114.908 145.55C114.908 143.845 116.296 142.457 118 142.457C119.704 142.457 121.092 143.845 121.092 145.55C121.092 147.254 119.704 148.642 118 148.642C116.296 148.642 114.908 147.254 114.908 145.55Z" fill="white"/>
<path id="Vector_7" d="M113.572 166.036C113.572 163.594 115.558 161.609 118 161.609C120.442 161.609 122.428 163.594 122.428 166.036C122.428 168.479 120.442 170.464 118 170.464C115.558 170.464 113.572 168.479 113.572 166.036Z" fill="white"/>
<path id="Vector_8" d="M112.219 186.523C112.219 183.325 114.802 180.742 118 180.742C121.198 180.742 123.781 183.325 123.781 186.523C123.781 189.721 121.198 192.303 118 192.303C114.802 192.303 112.219 189.721 112.219 186.523Z" fill="white"/>
<path id="Vector_9" d="M125.135 207.358C125.314 203.423 122.268 200.087 118.333 199.908C114.397 199.73 111.062 202.775 110.883 206.711C110.704 210.647 113.75 213.982 117.686 214.161C121.621 214.339 124.957 211.294 125.135 207.358Z" fill="white"/>
<path id="Vector_10" d="M109.514 227.514C109.514 222.823 113.309 219.027 118 219.027C122.691 219.027 126.486 222.823 126.486 227.514C126.486 232.205 122.691 236 118 236C113.309 236 109.514 232.205 109.514 227.514Z" fill="white"/>
</g>
</g>
<g id="Group_4">
<g id="Group_5">
<path id="Vector_11" d="M145.55 121.092C143.845 121.092 142.457 119.704 142.457 118C142.457 116.296 143.845 114.908 145.55 114.908C147.254 114.908 148.642 116.296 148.642 118C148.642 119.704 147.254 121.092 145.55 121.092Z" fill="white"/>
<path id="Vector_12" d="M166.036 122.428C163.594 122.428 161.609 120.442 161.609 118C161.609 115.558 163.594 113.572 166.036 113.572C168.478 113.572 170.464 115.558 170.464 118C170.464 120.442 168.478 122.428 166.036 122.428Z" fill="white"/>
<path id="Vector_13" d="M186.523 123.781C183.325 123.781 180.742 121.198 180.742 118C180.742 114.802 183.325 112.219 186.523 112.219C189.721 112.219 192.303 114.802 192.303 118C192.303 121.198 189.721 123.781 186.523 123.781Z" fill="white"/>
<path id="Vector_14" d="M207.027 125.133C203.091 125.133 199.894 121.936 199.894 118C199.894 114.064 203.091 110.867 207.027 110.867C210.963 110.867 214.161 114.064 214.161 118C214.161 121.936 210.963 125.133 207.027 125.133Z" fill="white"/>
<path id="Vector_15" d="M227.514 126.486C222.822 126.486 219.027 122.691 219.027 118C219.027 113.309 222.822 109.514 227.514 109.514C232.205 109.514 236 113.309 236 118C236 122.691 232.205 126.486 227.514 126.486Z" fill="white"/>
</g>
<g id="Group_6">
<path id="Vector_16" d="M90.4502 121.092C92.1581 121.092 93.5425 119.708 93.5425 118C93.5425 116.292 92.1581 114.908 90.4502 114.908C88.7424 114.908 87.3579 116.292 87.3579 118C87.3579 119.708 88.7424 121.092 90.4502 121.092Z" fill="white"/>
<path id="Vector_17" d="M69.9636 113.555C72.4059 113.555 74.3913 115.54 74.3913 117.982C74.3913 120.425 72.4059 122.41 69.9636 122.41C67.5214 122.41 65.536 120.425 65.536 117.982C65.536 115.54 67.5214 113.555 69.9636 113.555Z" fill="white"/>
<path id="Vector_18" d="M49.4771 112.219C52.6748 112.219 55.2576 114.802 55.2576 118C55.2576 121.198 52.6748 123.781 49.4771 123.781C46.2793 123.781 43.6965 121.198 43.6965 118C43.6965 114.802 46.2793 112.219 49.4771 112.219Z" fill="white"/>
<path id="Vector_19" d="M28.9729 110.867C32.9086 110.867 36.1063 114.064 36.1063 118C36.1063 121.936 32.9086 125.133 28.9729 125.133C25.0372 125.133 21.8395 121.936 21.8395 118C21.8395 114.064 25.0372 110.867 28.9729 110.867Z" fill="white"/>
<path id="Vector_20" d="M8.4863 109.514C13.1775 109.514 16.9726 113.309 16.9726 118C16.9726 122.691 13.1775 126.486 8.4863 126.486C3.79512 126.486 0 122.691 0 118C0 113.309 3.79512 109.514 8.4863 109.514Z" fill="white"/>
</g>
</g>
<g id="Group_7">
<g id="Group_8">
<path id="Vector_21" d="M143.406 106.896C141.93 107.739 140.05 107.247 139.189 105.771C138.346 104.295 138.838 102.415 140.314 101.554C141.79 100.711 143.67 101.203 144.531 102.679C145.374 104.155 144.882 106.035 143.406 106.896Z" fill="white"/>
<path id="Vector_22" d="M161.82 97.8297C159.694 99.0596 156.988 98.3216 155.758 96.2132C154.528 94.0872 155.266 91.3815 157.374 90.1516C159.5 88.9217 162.206 89.6596 163.436 91.768C164.666 93.8764 163.928 96.5998 161.82 97.8297Z" fill="white"/>
<path id="Vector_23" d="M180.25 88.746C177.474 90.3448 173.943 89.3961 172.344 86.62C170.745 83.8439 171.694 80.3124 174.47 78.7135C177.246 77.1146 180.778 78.0634 182.376 80.8395C183.975 83.6155 183.027 87.1471 180.25 88.746Z" fill="white"/>
<path id="Vector_24" d="M198.664 79.6799C195.255 81.6477 190.88 80.4881 188.912 77.0619C186.945 73.6534 188.104 69.2784 191.53 67.3106C194.957 65.3428 199.314 66.5024 201.282 69.9285C203.25 73.3371 202.09 77.712 198.664 79.6799Z" fill="white"/>
<path id="Vector_25" d="M217.077 70.5962C213.018 72.933 207.818 71.545 205.481 67.4863C203.144 63.4276 204.532 58.2269 208.591 55.8901C212.649 53.5533 217.85 54.9413 220.187 59C222.524 63.0587 221.136 68.2594 217.077 70.5962Z" fill="white"/>
</g>
<g id="Group_9">
<path id="Vector_26" d="M92.5939 129.104C94.0698 128.261 95.9498 128.753 96.8107 130.229C97.654 131.705 97.1621 133.585 95.6862 134.445C94.2103 135.289 92.3303 134.797 91.4694 133.321C90.6261 131.845 91.118 129.965 92.5939 129.104Z" fill="white"/>
<path id="Vector_27" d="M74.1805 138.17C76.3065 136.94 79.0123 137.678 80.2422 139.787C81.4721 141.913 80.7341 144.619 78.6257 145.848C76.4998 147.078 73.794 146.34 72.5641 144.232C71.3342 142.106 72.0721 139.4 74.1805 138.17Z" fill="white"/>
<path id="Vector_28" d="M55.7496 147.254C58.5256 145.655 62.0572 146.604 63.6561 149.38C65.255 152.156 64.3062 155.688 61.5301 157.286C58.7541 158.885 55.2225 157.937 53.6236 155.16C52.0248 152.384 52.9735 148.853 55.7496 147.254Z" fill="white"/>
<path id="Vector_29" d="M37.3363 156.32C40.7449 154.352 45.1198 155.512 47.0876 158.938C49.0555 162.347 47.8958 166.722 44.4697 168.689C41.0611 170.657 36.6862 169.498 34.7183 166.071C32.7505 162.663 33.9101 158.288 37.3363 156.32Z" fill="white"/>
<path id="Vector_30" d="M18.9229 165.404C22.9816 163.067 28.1823 164.455 30.5191 168.514C32.8559 172.572 31.4679 177.773 27.4092 180.11C23.3505 182.447 18.1498 181.059 15.813 177C13.4762 172.941 14.8642 167.741 18.9229 165.404Z" fill="white"/>
</g>
</g>
<g id="Group_10">
<g id="Group_11">
<path id="Vector_31" d="M134.446 95.6861C133.602 97.162 131.705 97.6715 130.229 96.8106C128.753 95.9672 128.243 94.0697 129.104 92.5938C129.948 91.1179 131.845 90.6084 133.321 91.4693C134.797 92.3127 135.306 94.2102 134.446 95.6861Z" fill="white"/>
<path id="Vector_32" d="M145.866 78.6081C144.636 80.7341 141.93 81.4544 139.804 80.2245C137.678 78.9946 136.958 76.2889 138.188 74.1629C139.418 72.0369 142.124 71.3166 144.25 72.5465C146.376 73.7764 147.096 76.4821 145.866 78.6081Z" fill="white"/>
<path id="Vector_33" d="M157.269 61.5476C155.67 64.3237 152.139 65.2725 149.363 63.6736C146.586 62.0747 145.638 58.5432 147.237 55.7671C148.835 52.9911 152.367 52.0423 155.143 53.6412C157.919 55.24 158.868 58.7716 157.269 61.5476Z" fill="white"/>
<path id="Vector_34" d="M168.689 44.4696C166.722 47.8782 162.347 49.0554 158.938 47.0876C155.53 45.1197 154.352 40.7448 156.32 37.3362C158.288 33.9276 162.663 32.7504 166.072 34.7183C169.48 36.6861 170.657 41.061 168.689 44.4696Z" fill="white"/>
<path id="Vector_35" d="M180.11 27.4092C177.773 31.4678 172.572 32.8559 168.514 30.5191C164.455 28.1823 163.067 22.9815 165.404 18.9229C167.741 14.8642 172.941 13.4762 177 15.813C181.059 18.1498 182.447 23.3505 180.11 27.4092Z" fill="white"/>
</g>
<g id="Group_12">
<path id="Vector_36" d="M101.554 140.314C102.398 138.838 104.295 138.328 105.771 139.189C107.247 140.033 107.757 141.93 106.896 143.406C106.052 144.882 104.155 145.392 102.679 144.531C101.203 143.687 100.694 141.79 101.554 140.314Z" fill="white"/>
<path id="Vector_37" d="M90.1341 157.392C91.364 155.266 94.0698 154.546 96.1957 155.775C98.3217 157.005 99.0421 159.711 97.8122 161.837C96.5823 163.963 93.8765 164.683 91.7505 163.454C89.6246 162.224 88.9042 159.518 90.1341 157.392Z" fill="white"/>
<path id="Vector_38" d="M78.7312 174.452C80.33 171.676 83.8616 170.728 86.6377 172.326C89.4137 173.925 90.3625 177.457 88.7636 180.233C87.1648 183.009 83.6332 183.958 80.8571 182.359C78.0811 180.76 77.1323 177.228 78.7312 174.452Z" fill="white"/>
<path id="Vector_39" d="M67.3107 191.53C69.2785 188.122 73.6535 186.945 77.062 188.912C80.4706 190.88 81.6478 195.255 79.68 198.664C77.7121 202.072 73.3372 203.25 69.9286 201.282C66.5201 199.314 65.3429 194.939 67.3107 191.53Z" fill="white"/>
<path id="Vector_40" d="M55.8902 208.591C58.227 204.532 63.4277 203.144 67.4864 205.481C71.545 207.818 72.933 213.018 70.5962 217.077C68.2594 221.136 63.0587 222.524 59.0001 220.187C54.9414 217.85 53.5534 212.649 55.8902 208.591Z" fill="white"/>
</g>
</g>
<g id="Group_13">
<g id="Group_14">
<path id="Vector_41" d="M128.103 92.1897C127.664 93.8413 125.977 94.8076 124.325 94.3684C122.674 93.9291 121.707 92.2424 122.147 90.5908C122.586 88.9393 124.272 87.9729 125.924 88.4122C127.576 88.8514 128.542 90.5381 128.103 92.1897Z" fill="white"/>
<path id="Vector_42" d="M134.727 72.7397C134.094 75.1117 131.652 76.5173 129.297 75.8848C126.926 75.2522 125.52 72.81 126.152 70.4556C126.785 68.0837 129.227 66.6781 131.582 67.3106C133.954 67.9431 135.359 70.3854 134.727 72.7397Z" fill="white"/>
<path id="Vector_43" d="M141.333 53.3073C140.507 56.3996 137.327 58.2269 134.252 57.4011C131.16 56.5753 129.333 53.3952 130.158 50.3204C130.984 47.2281 134.164 45.4008 137.239 46.2266C140.331 47.0524 142.159 50.2326 141.333 53.3073Z" fill="white"/>
<path id="Vector_44" d="M147.939 33.8574C146.92 37.67 143.002 39.919 139.189 38.8999C135.377 37.8809 133.128 33.9628 134.147 30.1501C135.166 26.3374 139.084 24.0884 142.897 25.1075C146.709 26.1266 148.958 30.0447 147.939 33.8574Z" fill="white"/>
<path id="Vector_45" d="M154.546 14.425C153.333 18.958 148.677 21.6462 144.144 20.4339C139.611 19.2216 136.923 14.5655 138.135 10.0325C139.348 5.49941 144.004 2.8112 148.537 4.02353C153.07 5.23586 155.758 9.89191 154.546 14.425Z" fill="white"/>
</g>
<g id="Group_15">
<path id="Vector_46" d="M107.897 143.81C108.337 142.159 110.023 141.192 111.675 141.632C113.326 142.071 114.293 143.758 113.853 145.409C113.414 147.061 111.728 148.027 110.076 147.588C108.424 147.149 107.458 145.462 107.897 143.81Z" fill="white"/>
<path id="Vector_47" d="M101.273 163.26C101.906 160.888 104.348 159.483 106.702 160.115C109.074 160.748 110.48 163.19 109.847 165.544C109.215 167.916 106.773 169.322 104.418 168.689C102.046 168.057 100.641 165.615 101.273 163.26Z" fill="white"/>
<path id="Vector_48" d="M94.667 182.693C95.4928 179.6 98.6729 177.773 101.748 178.599C104.84 179.425 106.667 182.605 105.841 185.68C105.016 188.772 101.836 190.599 98.7608 189.773C95.6685 188.948 93.8412 185.767 94.667 182.693Z" fill="white"/>
<path id="Vector_49" d="M88.0608 202.143C89.0798 198.33 92.9979 196.081 96.8106 197.1C100.623 198.119 102.872 202.037 101.853 205.85C100.834 209.663 96.916 211.912 93.1034 210.892C89.2907 209.873 87.0417 205.955 88.0608 202.143Z" fill="white"/>
<path id="Vector_50" d="M81.4544 221.575C82.6667 217.042 87.3228 214.354 91.8558 215.566C96.3889 216.778 99.0771 221.434 97.8648 225.968C96.6524 230.501 91.9964 233.189 87.4633 231.976C82.9303 230.764 80.2421 226.108 81.4544 221.575Z" fill="white"/>
</g>
</g>
<g id="Group_16">
<g id="Group_17">
<path id="Vector_51" d="M113.853 90.5908C114.293 92.2424 113.326 93.9291 111.675 94.3684C110.023 94.8076 108.337 93.8413 107.897 92.1897C107.458 90.5381 108.424 88.8514 110.076 88.4122C111.728 87.9729 113.414 88.9393 113.853 90.5908Z" fill="white"/>
<path id="Vector_52" d="M109.847 70.4556C110.48 72.8276 109.074 75.2522 106.702 75.8848C104.33 76.5173 101.906 75.1117 101.273 72.7397C100.641 70.3678 102.046 67.9431 104.418 67.3106C106.79 66.6781 109.215 68.0837 109.847 70.4556Z" fill="white"/>
<path id="Vector_53" d="M105.859 50.3029C106.685 53.3952 104.858 56.5578 101.765 57.3836C98.6729 58.2094 95.5104 56.3821 94.6846 53.2898C93.8588 50.1974 95.6861 47.0348 98.7784 46.2091C101.871 45.3833 105.033 47.2105 105.859 50.3029Z" fill="white"/>
<path id="Vector_54" d="M101.853 30.1677C102.872 33.9803 100.606 37.8985 96.8106 38.9175C93.0154 39.9366 89.0798 37.67 88.0607 33.8749C87.0416 30.0622 89.3082 26.1441 93.1033 25.1251C96.916 24.106 100.834 26.3725 101.853 30.1677Z" fill="white"/>
<path id="Vector_55" d="M97.8648 10.0325C99.0771 14.5655 96.3889 19.2216 91.8558 20.4339C87.3228 21.6462 82.6667 18.958 81.4544 14.425C80.2421 9.89191 82.9303 5.23586 87.4633 4.02353C91.9964 2.8112 96.6524 5.49941 97.8648 10.0325Z" fill="white"/>
</g>
<g id="Group_18">
<path id="Vector_56" d="M122.147 145.409C121.707 143.758 122.674 142.071 124.325 141.632C125.977 141.192 127.664 142.159 128.103 143.81C128.542 145.462 127.576 147.149 125.924 147.588C124.272 148.027 122.586 147.061 122.147 145.409Z" fill="white"/>
<path id="Vector_57" d="M126.152 165.544C125.52 163.172 126.926 160.748 129.297 160.115C131.669 159.483 134.094 160.888 134.727 163.26C135.359 165.632 133.954 168.057 131.582 168.689C129.21 169.322 126.785 167.916 126.152 165.544Z" fill="white"/>
<path id="Vector_58" d="M130.141 185.697C129.315 182.605 131.142 179.442 134.235 178.616C137.327 177.791 140.49 179.618 141.315 182.71C142.141 185.803 140.314 188.965 137.222 189.791C134.129 190.617 130.967 188.789 130.141 185.697Z" fill="white"/>
<path id="Vector_59" d="M134.147 205.832C133.128 202.02 135.394 198.102 139.189 197.082C143.002 196.063 146.92 198.33 147.939 202.125C148.958 205.938 146.692 209.856 142.897 210.875C139.084 211.894 135.166 209.627 134.147 205.832Z" fill="white"/>
<path id="Vector_60" d="M138.135 225.968C136.923 221.434 139.611 216.778 144.144 215.566C148.677 214.354 153.333 217.042 154.546 221.575C155.758 226.108 153.07 230.764 148.537 231.976C144.004 233.189 139.348 230.501 138.135 225.968Z" fill="white"/>
</g>
</g>
<g id="Group_19">
<g id="Group_20">
<path id="Vector_61" d="M100.693 96.3362C101.906 97.5485 101.906 99.4988 100.693 100.694C99.4812 101.888 97.5309 101.906 96.3361 100.694C95.1238 99.4812 95.1238 97.531 96.3361 96.3362C97.5485 95.1239 99.4987 95.1239 100.693 96.3362Z" fill="white"/>
<path id="Vector_62" d="M87.1647 80.8922C88.9041 82.6316 88.9041 85.4253 87.1647 87.1647C85.4253 88.9041 82.6316 88.9041 80.8922 87.1647C79.1528 85.4253 79.1528 82.6316 80.8922 80.8922C82.6316 79.1528 85.4253 79.1528 87.1647 80.8922Z" fill="white"/>
<path id="Vector_63" d="M73.6358 65.4482C75.9023 67.7147 75.9023 71.3693 73.6358 73.6358C71.3693 75.9023 67.7147 75.9023 65.4482 73.6358C63.1817 71.3693 63.1817 67.7147 65.4482 65.4482C67.7147 63.1817 71.3693 63.1817 73.6358 65.4482Z" fill="white"/>
<path id="Vector_64" d="M60.1069 50.0042C62.9005 52.7978 62.9005 57.3133 60.1069 60.1069C57.3133 62.9005 52.7978 62.9005 50.0042 60.1069C47.2105 57.3133 47.2105 52.7978 50.0042 50.0042C52.7978 47.2105 57.3133 47.2105 60.1069 50.0042Z" fill="white"/>
<path id="Vector_65" d="M46.5604 34.5602C49.8811 37.8809 49.8811 43.2573 46.5604 46.5605C43.2397 49.8812 37.8633 49.8812 34.5601 46.5605C31.2394 43.2397 31.2394 37.8633 34.5601 34.5602C37.8809 31.257 43.2573 31.2394 46.5604 34.5602Z" fill="white"/>
</g>
<g id="Group_21">
<path id="Vector_66" d="M135.306 139.664C134.094 138.451 134.094 136.501 135.306 135.306C136.519 134.094 138.469 134.094 139.664 135.306C140.876 136.519 140.876 138.469 139.664 139.664C138.451 140.859 136.501 140.876 135.306 139.664Z" fill="white"/>
<path id="Vector_67" d="M148.835 155.108C147.096 153.368 147.096 150.575 148.835 148.835C150.575 147.096 153.368 147.096 155.108 148.835C156.847 150.575 156.847 153.368 155.108 155.108C153.368 156.847 150.575 156.847 148.835 155.108Z" fill="white"/>
<path id="Vector_68" d="M162.364 170.552C160.098 168.285 160.098 164.631 162.364 162.364C164.631 160.098 168.285 160.098 170.552 162.364C172.818 164.631 172.818 168.285 170.552 170.552C168.285 172.818 164.631 172.818 162.364 170.552Z" fill="white"/>
<path id="Vector_69" d="M175.893 185.996C173.099 183.202 173.099 178.687 175.893 175.893C178.687 173.099 183.202 173.099 185.996 175.893C188.789 178.687 188.789 183.202 185.996 185.996C183.202 188.789 178.687 188.789 175.893 185.996Z" fill="white"/>
<path id="Vector_70" d="M189.422 201.44C186.101 198.119 186.101 192.743 189.422 189.44C192.743 186.119 198.119 186.119 201.422 189.44C204.743 192.76 204.743 198.137 201.422 201.44C198.101 204.761 192.725 204.761 189.422 201.44Z" fill="white"/>
</g>
</g>
<g id="Group_22">
<g id="Group_23">
<path id="Vector_71" d="M92.1897 107.897C93.8413 108.337 94.8076 110.023 94.3684 111.675C93.9291 113.326 92.2424 114.293 90.5908 113.853C88.9393 113.414 87.9729 111.728 88.4122 110.076C88.8514 108.424 90.5381 107.458 92.1897 107.897Z" fill="white"/>
<path id="Vector_72" d="M72.7397 101.273C75.1116 101.906 76.5172 104.348 75.8847 106.702C75.2522 109.074 72.81 110.48 70.4556 109.848C68.0836 109.215 66.678 106.773 67.3106 104.418C67.9431 102.046 70.3853 100.641 72.7397 101.273Z" fill="white"/>
<path id="Vector_73" d="M53.3073 94.6671C56.3996 95.4928 58.2268 98.673 57.4011 101.748C56.5753 104.84 53.3951 106.667 50.3204 105.842C47.228 105.016 45.4008 101.836 46.2266 98.7609C47.0523 95.6861 50.2325 93.8413 53.3073 94.6671Z" fill="white"/>
<path id="Vector_74" d="M33.8574 88.0607C37.6701 89.0798 39.919 92.9979 38.9 96.8106C37.8809 100.623 33.9628 102.872 30.1501 101.853C26.3374 100.834 24.0885 96.916 25.1075 93.1033C26.1266 89.2906 30.0447 87.0417 33.8574 88.0607Z" fill="white"/>
<path id="Vector_75" d="M14.4249 81.4544C18.958 82.6668 21.6462 87.3228 20.4339 91.8559C19.2215 96.3889 14.5655 99.0771 10.0324 97.8648C5.49938 96.6525 2.81117 91.9964 4.0235 87.4634C5.23583 82.9303 9.89188 80.2421 14.4249 81.4544Z" fill="white"/>
</g>
<g id="Group_24">
<path id="Vector_76" d="M143.81 128.103C142.159 127.663 141.192 125.977 141.632 124.325C142.071 122.674 143.758 121.707 145.409 122.147C147.061 122.586 148.027 124.272 147.588 125.924C147.149 127.576 145.462 128.542 143.81 128.103Z" fill="white"/>
<path id="Vector_77" d="M163.26 134.709C160.888 134.077 159.483 131.634 160.115 129.28C160.748 126.926 163.19 125.502 165.544 126.135C167.916 126.767 169.322 129.21 168.689 131.564C168.057 133.936 165.615 135.342 163.26 134.709Z" fill="white"/>
<path id="Vector_78" d="M182.693 141.333C179.6 140.507 177.773 137.327 178.599 134.252C179.425 131.16 182.605 129.333 185.68 130.158C188.772 130.984 190.599 134.164 189.773 137.239C188.948 140.331 185.767 142.159 182.693 141.333Z" fill="white"/>
<path id="Vector_79" d="M202.143 147.939C198.33 146.92 196.081 143.002 197.1 139.189C198.119 135.377 202.037 133.128 205.85 134.147C209.663 135.166 211.912 139.084 210.893 142.897C209.873 146.709 205.955 148.958 202.143 147.939Z" fill="white"/>
<path id="Vector_80" d="M221.575 154.546C217.042 153.333 214.354 148.677 215.566 144.144C216.778 139.611 221.434 136.923 225.968 138.135C230.501 139.348 233.189 144.004 231.976 148.537C230.764 153.07 226.108 155.758 221.575 154.546Z" fill="white"/>
</g>
</g>
</g>
</svg>
