<?xml version="1.0" encoding="UTF-8"?>
<svg id="Layer_2" xmlns="http://www.w3.org/2000/svg" viewBox="0 0 46.2 41.97">
  <defs>
    <style>
      .cls-1 {
        fill: none;
        stroke: #000;
        stroke-miterlimit: 10;
      }
    </style>
  </defs>
  <g id="OBJECTS">
    <g>
      <g>
        <line class="cls-1" x1="29.72" x2="29.72" y2="6.51"/>
        <line class="cls-1" x1="32.97" y1="3.25" x2="26.46" y2="3.25"/>
      </g>
      <g>
        <line class="cls-1" x1="3.25" y1="11.82" x2="3.25" y2="18.33"/>
        <line class="cls-1" x1="6.51" y1="15.07" y2="15.07"/>
      </g>
      <g>
        <line class="cls-1" x1="16.48" y1="11.82" x2="16.48" y2="18.33"/>
        <line class="cls-1" x1="19.74" y1="15.07" x2="13.23" y2="15.07"/>
      </g>
      <g>
        <line class="cls-1" x1="42.95" y1="11.82" x2="42.95" y2="18.33"/>
        <line class="cls-1" x1="46.2" y1="15.07" x2="39.69" y2="15.07"/>
      </g>
      <g>
        <line class="cls-1" x1="16.48" y1="23.64" x2="16.48" y2="30.15"/>
        <line class="cls-1" x1="19.74" y1="26.89" x2="13.23" y2="26.89"/>
      </g>
      <g>
        <line class="cls-1" x1="29.72" y1="23.64" x2="29.72" y2="30.15"/>
        <line class="cls-1" x1="32.97" y1="26.89" x2="26.46" y2="26.89"/>
      </g>
      <g>
        <line class="cls-1" x1="42.95" y1="23.64" x2="42.95" y2="30.15"/>
        <line class="cls-1" x1="46.2" y1="26.89" x2="39.69" y2="26.89"/>
      </g>
      <g>
        <g>
          <line class="cls-1" x1="3.25" y1="35.46" x2="3.25" y2="41.97"/>
          <line class="cls-1" x1="6.51" y1="38.71" y2="38.71"/>
        </g>
        <g>
          <line class="cls-1" x1="16.48" y1="35.46" x2="16.48" y2="41.97"/>
          <line class="cls-1" x1="19.74" y1="38.71" x2="13.23" y2="38.71"/>
        </g>
        <g>
          <line class="cls-1" x1="29.72" y1="35.46" x2="29.72" y2="41.97"/>
          <line class="cls-1" x1="32.97" y1="38.71" x2="26.46" y2="38.71"/>
        </g>
      </g>
    </g>
  </g>
</svg>